 <svg
    width="43"
    height="40"
    viewBox="0 0 43 40"
    fill="none"
    xmlns="http://www.w3.org/2000/svg"
  >
    <path
      d="M4.83366 39.75C3.68783 39.75 2.70727 39.3424 1.89199 38.5271C1.07533 37.7104 0.666992 36.7292 0.666992 35.5833V12.6667C0.666992 11.5208 1.07533 10.5403 1.89199 9.725C2.70727 8.90833 3.68783 8.5 4.83366 8.5H13.167V4.33333C13.167 3.1875 13.5753 2.20625 14.392 1.38958C15.2073 0.574307 16.1878 0.166668 17.3337 0.166668H25.667C26.8128 0.166668 27.7941 0.574307 28.6107 1.38958C29.426 2.20625 29.8337 3.1875 29.8337 4.33333V8.5H38.167C39.3128 8.5 40.2941 8.90833 41.1107 9.725C41.926 10.5403 42.3337 11.5208 42.3337 12.6667V35.5833C42.3337 36.7292 41.926 37.7104 41.1107 38.5271C40.2941 39.3424 39.3128 39.75 38.167 39.75H4.83366ZM4.83366 35.5833H38.167V12.6667H4.83366V35.5833ZM17.3337 8.5H25.667V4.33333H17.3337V8.5Z"
      fill="currentColor"
    />
  </svg>