 <svg
    xmlns="http://www.w3.org/2000/svg"
    width="15"
    height="15"
    viewBox="0 0 15 15"
    fill="none"
  >
    <path
      d="M1.33301 12V3.78334V12ZM1.33301 13C1.06634 13 0.833008 12.9 0.633008 12.7C0.433008 12.5 0.333008 12.2667 0.333008 12V3.78334C0.333008 3.51668 0.433008 3.28334 0.633008 3.08334C0.833008 2.88334 1.06634 2.78334 1.33301 2.78334H4.49967V1.33334C4.49967 1.07779 4.59967 0.847232 4.79967 0.641677C4.99967 0.436121 5.23301 0.333344 5.49967 0.333344H8.49967C8.76634 0.333344 8.99967 0.436121 9.19967 0.641677C9.39967 0.847232 9.49967 1.07779 9.49967 1.33334V2.78334H12.6663C12.933 2.78334 13.1663 2.88334 13.3663 3.08334C13.5663 3.28334 13.6663 3.51668 13.6663 3.78334V7.75001C13.5108 7.62779 13.3525 7.51668 13.1913 7.41668C13.0302 7.31668 12.8552 7.22223 12.6663 7.13334V3.78334H1.33301V12.0083V12H6.89967C6.94412 12.1778 6.99967 12.35 7.06634 12.5167C7.13301 12.6833 7.21079 12.8445 7.29967 13H1.33301ZM5.49967 2.78334H8.49967V1.33334H5.49967V2.78334ZM10.9997 14.2167C10.1219 14.2167 9.36634 13.9 8.73301 13.2667C8.09968 12.6333 7.78301 11.8778 7.78301 11C7.78301 10.1222 8.09968 9.36668 8.73301 8.73334C9.36634 8.10001 10.1219 7.78334 10.9997 7.78334C11.8775 7.78334 12.633 8.10001 13.2663 8.73334C13.8997 9.36668 14.2163 10.1222 14.2163 11C14.2163 11.8778 13.8997 12.6333 13.2663 13.2667C12.633 13.9 11.8775 14.2167 10.9997 14.2167ZM12.233 12.6833L12.683 12.2333L11.283 10.9667V8.90001H10.583V11.1667L12.233 12.6833Z"
      fill="#848484"
    />
  </svg>