 <svg
    width="14"
    height="13"
    viewBox="0 0 14 13"
    fill="none"
    xmlns="http://www.w3.org/2000/svg"
  >
    <path
      d="M1.3335 13C1.06683 13 0.833496 12.9 0.633496 12.7C0.433496 12.5 0.333496 12.2667 0.333496 12V3.85C0.333496 3.58333 0.433496 3.34999 0.633496 3.14999C0.833496 2.94999 1.06683 2.85 1.3335 2.85H4.50016V1.33333C4.50016 1.06666 4.60016 0.833328 4.80016 0.633328C5.00016 0.433328 5.2335 0.333328 5.50016 0.333328H8.50016C8.76683 0.333328 9.00016 0.433328 9.20016 0.633328C9.40016 0.833328 9.50016 1.06666 9.50016 1.33333V2.85H12.6668C12.9335 2.85 13.1668 2.94999 13.3668 3.14999C13.5668 3.34999 13.6668 3.58333 13.6668 3.85V12C13.6668 12.2667 13.5668 12.5 13.3668 12.7C13.1668 12.9 12.9335 13 12.6668 13H1.3335ZM5.50016 2.85H8.50016V1.33333H5.50016V2.85ZM12.6668 8.81666H8.51683V9.81666H5.51683V8.81666H1.3335V12H12.6668V8.81666ZM6.51683 8.81666H7.51683V7.81666H6.51683V8.81666ZM1.3335 7.81666H5.51683V6.81666H8.51683V7.81666H12.6668V3.85H1.3335V7.81666Z"
      fill="currentColor"
    />
  </svg>