<svg
    width="12"
    height="14"
    viewBox="0 0 12 14"
    fill="none"
    xmlns="http://www.w3.org/2000/svg"
  >
    <path
      d="M5.99984 6.83333C6.32206 6.83333 6.59706 6.71944 6.82484 6.49166C7.05261 6.26388 7.1665 5.98888 7.1665 5.66666C7.1665 5.34444 7.05261 5.06944 6.82484 4.84166C6.59706 4.61388 6.32206 4.49999 5.99984 4.49999C5.67761 4.49999 5.40261 4.61388 5.17484 4.84166C4.94706 5.06944 4.83317 5.34444 4.83317 5.66666C4.83317 5.98888 4.94706 6.26388 5.17484 6.49166C5.40261 6.71944 5.67761 6.83333 5.99984 6.83333ZM5.99984 12.35C7.47761 11.0055 8.56928 9.78611 9.27484 8.69166C9.98039 7.59722 10.3332 6.63333 10.3332 5.79999C10.3332 4.48888 9.91372 3.41666 9.07484 2.58333C8.23595 1.74999 7.21095 1.33333 5.99984 1.33333C4.78873 1.33333 3.76373 1.74999 2.92484 2.58333C2.08595 3.41666 1.6665 4.48888 1.6665 5.79999C1.6665 6.63333 2.02761 7.59722 2.74984 8.69166C3.47206 9.78611 4.55539 11.0055 5.99984 12.35ZM5.99984 13.6667C4.21095 12.1444 2.87484 10.7305 1.9915 9.42499C1.10817 8.11944 0.666504 6.91111 0.666504 5.79999C0.666504 4.13333 1.20261 2.80555 2.27484 1.81666C3.34706 0.827773 4.58873 0.333328 5.99984 0.333328C7.41095 0.333328 8.65261 0.827773 9.72484 1.81666C10.7971 2.80555 11.3332 4.13333 11.3332 5.79999C11.3332 6.91111 10.8915 8.11944 10.0082 9.42499C9.12484 10.7305 7.78873 12.1444 5.99984 13.6667Z"
      fill="currentColor"
    />
  </svg>