<svg
    xmlns="http://www.w3.org/2000/svg"
    width="15"
    height="16"
    viewBox="0 0 15 16"
    fill="none"
  >
    <path
      d="M14.5832 3.99996V13.5833C14.5832 14 14.4373 14.3541 14.1457 14.6458C13.854 14.9375 13.4998 15.0833 13.0832 15.0833H1.9165C1.49984 15.0833 1.14567 14.9375 0.854004 14.6458C0.562337 14.3541 0.416504 14 0.416504 13.5833V2.41663C0.416504 1.99996 0.562337 1.64579 0.854004 1.35413C1.14567 1.06246 1.49984 0.916626 1.9165 0.916626H11.4998L14.5832 3.99996ZM13.3332 4.54163L10.9582 2.16663H1.9165C1.84706 2.16663 1.78817 2.19107 1.73984 2.23996C1.69095 2.28829 1.6665 2.34718 1.6665 2.41663V13.5833C1.6665 13.6527 1.69095 13.7119 1.73984 13.7608C1.78817 13.8091 1.84706 13.8333 1.9165 13.8333H13.0832C13.1526 13.8333 13.2118 13.8091 13.2607 13.7608C13.309 13.7119 13.3332 13.6527 13.3332 13.5833V4.54163ZM7.49984 12.3958C8.08317 12.3958 8.57623 12.1908 8.979 11.7808C9.38178 11.3713 9.58317 10.8819 9.58317 10.3125C9.58317 9.72913 9.38178 9.23607 8.979 8.83329C8.57623 8.43052 8.08317 8.22913 7.49984 8.22913C6.9165 8.22913 6.42345 8.43052 6.02067 8.83329C5.61789 9.23607 5.4165 9.72913 5.4165 10.3125C5.4165 10.8819 5.61789 11.3713 6.02067 11.7808C6.42345 12.1908 6.9165 12.3958 7.49984 12.3958ZM2.81234 6.22913H9.6665V3.31246H2.81234V6.22913Z"
      fill="#EEA23D"
    />
  </svg>