<svg
    width="16"
    height="14"
    viewBox="0 0 16 14"
    fill="none"
    xmlns="http://www.w3.org/2000/svg"
  >
    <path
      d="M7.94375 13.9187L11.0937 5.61249H12.5375L15.6875 13.9187H14.2437L13.5125 11.8H10.1562L9.40625 13.9187H7.94375ZM10.5687 10.6H13.0625L11.8437 7.16874H11.7875L10.5687 10.6ZM2.46875 11.8375L1.49375 10.8625L5 7.37499C4.5625 6.88749 4.18125 6.38424 3.85625 5.86524C3.53125 5.34674 3.24375 4.79999 2.99375 4.22499H4.4375C4.65 4.64999 4.875 5.02799 5.1125 5.35899C5.35 5.69049 5.63125 6.03749 5.95625 6.39999C6.46875 5.84999 6.89375 5.28449 7.23125 4.70349C7.56875 4.12199 7.85 3.49999 8.075 2.83749H0.40625V1.46874H5.24375V0.0812378H6.63125V1.46874H11.4687V2.83749H9.4625C9.2125 3.66249 8.88125 4.45924 8.46875 5.22774C8.05625 5.99674 7.54375 6.72499 6.93125 7.41249L8.6 9.09999L8.075 10.525L5.9375 8.38749L2.46875 11.8375Z"
      fill="currentColor"
    />
  </svg>