<svg width="18" height="20" viewBox="0 0 18 20" fill="none" xmlns="http://www.w3.org/2000/svg">
<path d="M3 19.5C2.3 19.5 1.70833 19.2583 1.225 18.775C0.741667 18.2917 0.5 17.7 0.5 17V14.5H3.5V0.700012L4.875 1.87501L6.3 0.700012L7.7 1.87501L9.1 0.700012L10.5 1.87501L11.9 0.700012L13.3 1.87501L14.7 0.700012L16.125 1.87501L17.5 0.700012V17C17.5 17.7 17.2583 18.2917 16.775 18.775C16.2917 19.2583 15.7 19.5 15 19.5H3ZM15 18C15.2833 18 15.5207 17.904 15.712 17.712C15.904 17.5207 16 17.2833 16 17V3.00001H5V14.5H14V17C14 17.2833 14.096 17.5207 14.288 17.712C14.4793 17.904 14.7167 18 15 18ZM6.2 6.75001V5.25001H11.875V6.75001H6.2ZM6.2 9.75001V8.25001H11.875V9.75001H6.2ZM13.95 6.87501C13.7 6.87501 13.4873 6.79168 13.312 6.62501C13.1373 6.45835 13.05 6.25001 13.05 6.00001C13.05 5.75001 13.1373 5.54168 13.312 5.37501C13.4873 5.20835 13.7 5.12501 13.95 5.12501C14.1833 5.12501 14.3873 5.20835 14.562 5.37501C14.7373 5.54168 14.825 5.75001 14.825 6.00001C14.825 6.25001 14.7373 6.45835 14.562 6.62501C14.3873 6.79168 14.1833 6.87501 13.95 6.87501ZM13.95 9.87501C13.7 9.87501 13.4873 9.79168 13.312 9.62501C13.1373 9.45835 13.05 9.25001 13.05 9.00001C13.05 8.75001 13.1373 8.54168 13.312 8.37501C13.4873 8.20835 13.7 8.12501 13.95 8.12501C14.1833 8.12501 14.3873 8.20835 14.562 8.37501C14.7373 8.54168 14.825 8.75001 14.825 9.00001C14.825 9.25001 14.7373 9.45835 14.562 9.62501C14.3873 9.79168 14.1833 9.87501 13.95 9.87501ZM3 18H12.5V16H2V17C2 17.2833 2.09567 17.5207 2.287 17.712C2.479 17.904 2.71667 18 3 18Z" fill="#1C1B1F"/>
</svg>
