<svg width="28" height="22" viewBox="0 0 28 22" fill="none"
  xmlns="http://www.w3.org/2000/svg">
  <path d="M28 2.98586C26.9699 3.40758 25.8626 3.69247 24.7008 3.82064C25.8867 3.16455 26.7977 2.12563 27.2265 0.887611C26.1164 1.49525 24.8871 1.93635 23.5785 2.17408C22.5308 1.14369 21.0378 0.5 19.3855 0.5C16.2131 0.5 13.6409 2.87358 13.6409 5.80132C13.6409 6.21684 13.6917 6.62151 13.7897 7.0095C9.01541 6.78844 4.78264 4.67778 1.94932 1.47031C1.45484 2.25328 1.17147 3.16391 1.17147 4.13551C1.17147 5.97485 2.18564 7.5975 3.72704 8.54818C2.7854 8.52066 1.89962 8.28215 1.12513 7.88511C1.12448 7.9072 1.12448 7.92943 1.12448 7.95178C1.12448 10.5203 3.10465 12.6629 5.73259 13.1503C5.25057 13.2715 4.74307 13.3362 4.21918 13.3362C3.84903 13.3362 3.48923 13.3028 3.13839 13.2411C3.86947 15.3472 5.99089 16.88 8.50473 16.9226C6.53871 18.3446 4.06183 19.1922 1.37032 19.1922C0.906641 19.1922 0.449401 19.167 0 19.118C2.54226 20.6223 5.56179 21.5 8.80587 21.5C19.3721 21.5 25.1503 13.4218 25.1503 6.41594C25.1503 6.18609 25.1447 5.95753 25.1337 5.73C26.2559 4.98269 27.2298 4.04907 27.9999 2.98586H28Z" fill="currentColor" />
</svg>