<svg
    width="50"
    height="44"
    viewBox="0 0 50 44"
    fill="none"
    xmlns="http://www.w3.org/2000/svg"
  >
    <path
      d="M8.24051 42.9001C7.10246 43.0334 6.08845 42.7484 5.19849 42.0451C4.30852 41.3418 3.79688 40.4212 3.66355 39.2831L0.890327 15.6117C0.757 14.4736 1.04199 13.4596 1.74529 12.5696C2.4486 11.6797 3.36928 11.168 4.50733 11.0347L14.0669 9.91475L13.6136 6.04538C13.4803 4.90733 13.7653 3.89333 14.4686 3.00336C15.1719 2.1134 16.0926 1.60175 17.2306 1.46842L24.9694 0.561793C26.1074 0.428465 27.1214 0.713454 28.0114 1.41676C28.9014 2.12006 29.413 3.04074 29.5463 4.17879L29.9996 8.04816L39.5593 6.92821C40.6973 6.79488 41.7113 7.07987 42.6013 7.78317C43.4912 8.48648 44.0029 9.40716 44.1362 10.5452L45.2695 20.2186C44.694 19.9015 44.116 19.6423 43.5356 19.4411C42.9537 19.2401 42.3291 19.0826 41.662 18.9684L40.7221 10.9452C40.6999 10.7555 40.6149 10.6016 40.4673 10.4836C40.3183 10.3672 40.1489 10.3201 39.9592 10.3424L4.90731 14.4489C4.71764 14.4711 4.56452 14.5559 4.44798 14.7034C4.33009 14.8526 4.28226 15.022 4.30448 15.2117L7.0777 38.8831C7.09992 39.0728 7.18562 39.2266 7.33479 39.3445C7.48227 39.461 7.65085 39.5082 7.84053 39.486L24.3992 37.546C24.5841 38.1397 24.7857 38.7121 25.0041 39.2633C25.2225 39.8146 25.4766 40.3424 25.7665 40.8469L8.24051 42.9001ZM17.4811 9.51477L26.5855 8.44815L26.1322 4.57878C26.11 4.3891 26.025 4.23523 25.8774 4.11717C25.7284 4.0008 25.559 3.95372 25.3694 3.97594L17.6306 4.88257C17.4409 4.90479 17.2878 4.98964 17.1713 5.13712C17.0534 5.2863 17.0056 5.45573 17.0278 5.6454L17.4811 9.51477ZM39.9564 43.7991C37.1113 44.1324 34.5759 43.4204 32.3503 41.663C30.1261 39.9039 28.8473 37.6017 28.514 34.7566C28.1807 31.9115 28.8927 29.3761 30.6501 27.1506C32.4092 24.9263 34.7114 23.6475 37.5565 23.3142C40.4016 22.9809 42.937 23.693 45.1625 25.4504C47.3868 27.2095 48.6656 29.5116 48.9989 32.3567C49.3322 35.2018 48.6202 37.7372 46.8627 39.9628C45.1036 42.187 42.8015 43.4658 39.9564 43.7991ZM43.1186 38.2948L44.3745 36.7056L39.734 33.0384L38.994 26.7222L36.9456 26.9622L37.7789 34.075L43.1186 38.2948Z"
      fill="currentColor"
    />
  </svg>