<svg width="28" height="19" viewBox="0 0 28 19" fill="none"
  xmlns="http://www.w3.org/2000/svg">
  <path fillRule="evenodd" clipRule="evenodd" d="M24.3895 0.71961C25.5362 1.02769 26.4434 1.93485 26.7515 3.08161C27.3163 5.16976 27.3334 9.50009 27.3334 9.50009C27.3334 9.50009 27.3334 13.8476 26.7686 15.9186C26.4605 17.0654 25.5534 17.9725 24.4066 18.2806C22.3356 18.8454 14.0001 18.8454 14.0001 18.8454C14.0001 18.8454 5.66461 18.8454 3.59358 18.2806C2.44681 17.9725 1.53966 17.0654 1.23158 15.9186C0.666748 13.8304 0.666748 9.50009 0.666748 9.50009C0.666748 9.50009 0.666748 5.16976 1.21446 3.09873C1.52255 1.95196 2.42969 1.04482 3.57646 0.736732C5.64749 0.171897 13.983 0.154785 13.983 0.154785C13.983 0.154785 22.3184 0.154785 24.3895 0.71961ZM18.2448 9.5001L11.33 13.5052V5.49497L18.2448 9.5001Z" fill="currentColor" />
</svg>