<svg
    width="16"
    height="16"
    viewBox="0 0 16 16"
    fill="none"
    xmlns="http://www.w3.org/2000/svg"
  >
    <path
      d="M5.00016 11.875L8.00016 8.87504L11.0002 11.875L11.8752 11L8.87516 8.00004L11.8752 5.00004L11.0002 4.12504L8.00016 7.12504L5.00016 4.12504L4.12516 5.00004L7.12516 8.00004L4.12516 11L5.00016 11.875ZM8.00016 15.9167C6.90294 15.9167 5.87183 15.7084 4.90683 15.2917C3.94127 14.875 3.10433 14.3125 2.396 13.6042C1.68766 12.8959 1.12516 12.0589 0.708496 11.0934C0.291829 10.1284 0.0834961 9.09726 0.0834961 8.00004C0.0834961 6.90282 0.291829 5.87143 0.708496 4.90587C1.12516 3.94087 1.68766 3.10421 2.396 2.39587C3.10433 1.68754 3.94127 1.12504 4.90683 0.708374C5.87183 0.291707 6.90294 0.083374 8.00016 0.083374C9.09738 0.083374 10.1288 0.291707 11.0943 0.708374C12.0593 1.12504 12.896 1.68754 13.6043 2.39587C14.3127 3.10421 14.8752 3.94087 15.2918 4.90587C15.7085 5.87143 15.9168 6.90282 15.9168 8.00004C15.9168 9.09726 15.7085 10.1284 15.2918 11.0934C14.8752 12.0589 14.3127 12.8959 13.6043 13.6042C12.896 14.3125 12.0593 14.875 11.0943 15.2917C10.1288 15.7084 9.09738 15.9167 8.00016 15.9167ZM8.00016 14.6667C9.86127 14.6667 11.4377 14.0209 12.7293 12.7292C14.021 11.4375 14.6668 9.86115 14.6668 8.00004C14.6668 6.13893 14.021 4.56254 12.7293 3.27087C11.4377 1.97921 9.86127 1.33337 8.00016 1.33337C6.13905 1.33337 4.56266 1.97921 3.271 3.27087C1.97933 4.56254 1.3335 6.13893 1.3335 8.00004C1.3335 9.86115 1.97933 11.4375 3.271 12.7292C4.56266 14.0209 6.13905 14.6667 8.00016 14.6667Z"
      fill="currentColor"
    />
  </svg>