<svg width="15" height="14" viewBox="0 0 15 14" fill="none" xmlns="http://www.w3.org/2000/svg"><path d="M9.95016 10.2167L10.7002 9.46666L8.05016 6.79999V3.44999H7.05016V7.19999L9.95016 10.2167ZM7.50016 13.6667C6.58905 13.6667 5.72794 13.4917 4.91683 13.1417C4.10572 12.7917 3.39738 12.3139 2.79183 11.7083C2.18627 11.1028 1.7085 10.3944 1.3585 9.58333C1.0085 8.77222 0.833496 7.91111 0.833496 6.99999C0.833496 6.08888 1.0085 5.22777 1.3585 4.41666C1.7085 3.60555 2.18627 2.89722 2.79183 2.29166C3.39738 1.68611 4.10572 1.20833 4.91683 0.858328C5.72794 0.508328 6.58905 0.333328 7.50016 0.333328C8.41127 0.333328 9.27238 0.508328 10.0835 0.858328C10.8946 1.20833 11.6029 1.68611 12.2085 2.29166C12.8141 2.89722 13.2918 3.60555 13.6418 4.41666C13.9918 5.22777 14.1668 6.08888 14.1668 6.99999C14.1668 7.91111 13.9918 8.77222 13.6418 9.58333C13.2918 10.3944 12.8141 11.1028 12.2085 11.7083C11.6029 12.3139 10.8946 12.7917 10.0835 13.1417C9.27238 13.4917 8.41127 13.6667 7.50016 13.6667ZM7.50016 12.6667C9.05572 12.6667 10.3891 12.1111 11.5002 11C12.6113 9.88888 13.1668 8.55555 13.1668 6.99999C13.1668 5.44444 12.6113 4.11111 11.5002 2.99999C10.3891 1.88888 9.05572 1.33333 7.50016 1.33333C5.94461 1.33333 4.61127 1.88888 3.50016 2.99999C2.38905 4.11111 1.8335 5.44444 1.8335 6.99999C1.8335 8.55555 2.38905 9.88888 3.50016 11C4.61127 12.1111 5.94461 12.6667 7.50016 12.6667Z" fill="currentColor"></path></svg>