<svg
    width="17"
    height="20"
    viewBox="0 0 17 20"
    fill="none"
    xmlns="http://www.w3.org/2000/svg"
  >
    <path
      d="M7.45 16.475L4.25 13.275L5.325 12.2L7.45 14.325L11.675 10.1L12.75 11.175L7.45 16.475ZM1.8 20C1.3 20 0.875 19.825 0.525 19.475C0.175 19.125 0 18.7 0 18.2V4.8C0 4.3 0.175 3.875 0.525 3.525C0.875 3.175 1.3 3 1.8 3H3.2V0.875H4.725V3H12.3V0.875H13.8V3H15.2C15.7 3 16.125 3.175 16.475 3.525C16.825 3.875 17 4.3 17 4.8V18.2C17 18.7 16.825 19.125 16.475 19.475C16.125 19.825 15.7 20 15.2 20H1.8ZM1.8 18.5H15.2C15.2667 18.5 15.3333 18.4667 15.4 18.4C15.4667 18.3333 15.5 18.2667 15.5 18.2V8.8H1.5V18.2C1.5 18.2667 1.53333 18.3333 1.6 18.4C1.66667 18.4667 1.73333 18.5 1.8 18.5ZM1.5 7.3H15.5V4.8C15.5 4.73333 15.4667 4.66667 15.4 4.6C15.3333 4.53333 15.2667 4.5 15.2 4.5H1.8C1.73333 4.5 1.66667 4.53333 1.6 4.6C1.53333 4.66667 1.5 4.73333 1.5 4.8V7.3Z"
      fill="currentColor"
    />
  </svg>