 <svg
    width="18"
    height="18"
    viewBox="0 0 18 18"
    fill="none"
    xmlns="http://www.w3.org/2000/svg"
  >
    <path
      d="M16.55 17.575L10.25 11.3C9.75 11.7167 9.175 12.0417 8.525 12.275C7.875 12.5083 7.20833 12.625 6.525 12.625C4.80833 12.625 3.35834 12.0333 2.175 10.85C0.991668 9.66667 0.400002 8.21667 0.400002 6.5C0.400002 4.8 0.991668 3.354 2.175 2.162C3.35834 0.970667 4.80833 0.375 6.525 0.375C8.225 0.375 9.66667 0.966667 10.85 2.15C12.0333 3.33333 12.625 4.78333 12.625 6.5C12.625 7.21667 12.5083 7.9 12.275 8.55C12.0417 9.2 11.725 9.76667 11.325 10.25L17.6 16.525L16.55 17.575ZM6.525 11.125C7.80833 11.125 8.896 10.675 9.788 9.775C10.6793 8.875 11.125 7.78333 11.125 6.5C11.125 5.21667 10.6793 4.125 9.788 3.225C8.896 2.325 7.80833 1.875 6.525 1.875C5.225 1.875 4.12933 2.325 3.238 3.225C2.346 4.125 1.9 5.21667 1.9 6.5C1.9 7.78333 2.346 8.875 3.238 9.775C4.12933 10.675 5.225 11.125 6.525 11.125Z"
      fill="#848484"
    />
  </svg>