 <svg
    width="47"
    height="43"
    viewBox="0 0 47 43"
    fill="none"
    xmlns="http://www.w3.org/2000/svg"
  >
    <path
      d="M23.3281 42.6404L32.9531 17.2602H37.3646L46.9896 42.6404H42.5781L40.3438 36.1664H30.0885L27.7969 42.6404H23.3281ZM31.349 32.4998H38.9687L35.2448 22.0154H35.0729L31.349 32.4998ZM6.59896 36.281L3.61979 33.3018L14.3333 22.6456C12.9965 21.156 11.8316 19.6183 10.8385 18.0325C9.84549 16.4482 8.96701 14.7775 8.20312 13.0206H12.6146C13.2639 14.3192 13.9514 15.4742 14.6771 16.4856C15.4028 17.4985 16.2622 18.5588 17.2552 19.6664C18.8212 17.9859 20.1198 16.2579 21.151 14.4827C22.1823 12.7059 23.0417 10.8053 23.7292 8.781H0.296875V4.59871H15.0781V0.359131H19.3177V4.59871H34.099V8.781H27.9687C27.2049 11.3018 26.1927 13.7364 24.9323 16.0845C23.6719 18.4343 22.1059 20.6595 20.2344 22.7602L25.3333 27.9164L23.7292 32.2706L17.1979 25.7393L6.59896 36.281Z"
      fill="currentColor"
    />
  </svg>