<svg width="117" height="40" viewBox="0 0 117 40" fill="none"
  xmlns="http://www.w3.org/2000/svg">
  <g clip-path="url(#clip0_9_500)">
    <path d="M28.1767 4.39642C35.9442 4.42299 40.7713 13.016 36.8647 19.8643L32.581 27.3742L28.2974 34.8841C24.3913 41.7324 14.6814 41.6993 10.8199 34.8245L6.58524 27.2858L2.35106 19.7471C-1.51037 12.8723 3.37252 4.31235 11.1406 4.33893L19.6589 4.36767L28.1772 4.39642H28.1767Z" fill="#284792"/>
    <path d="M10.8848 5.14572C14.7686 -1.71556 24.4785 -1.71556 28.3623 5.14572L32.6214 12.6697L36.8806 20.1938C40.7644 27.0551 35.9097 35.6318 28.1421 35.6318H11.1055C3.33794 35.6318 -1.5173 27.0551 2.367 20.1938L6.62617 12.6703L10.8848 5.14572Z" fill="#EEA23D"/>
    <path d="M21.9103 28.7831C21.8438 30.0115 20.8458 30.9872 19.6244 30.9872C18.403 30.9872 17.3863 29.9931 17.3374 28.7484C18.1042 28.8948 18.9012 28.9719 19.7185 28.9719C20.4688 28.9719 21.202 28.9068 21.9103 28.7831Z" fill="white"/>
    <path d="M29.5396 22.4892C28.0056 25.0659 25.0917 26.9619 21.6115 27.4918C20.967 27.59 20.3029 27.6409 19.6244 27.6409C18.9459 27.6409 18.2829 27.59 17.6384 27.4918C14.1577 26.9619 11.2422 25.0653 9.7087 22.4864C9.35669 21.8947 9.44389 21.136 9.91501 20.6376C11.2348 19.2432 12.1563 17.4545 12.4939 15.4614C12.5189 15.3155 12.5407 15.1685 12.5588 15.021C12.8587 13.3354 13.7238 11.8515 14.9468 10.7803C16.2033 9.67882 17.8378 9.01282 19.625 9.01282C19.6547 9.01282 19.684 9.01282 19.7132 9.01282C21.3887 9.03343 22.9254 9.63923 24.1367 10.6382C25.4362 11.7088 26.3615 13.2328 26.6826 14.9738C26.7044 15.156 26.731 15.3366 26.7624 15.5151C27.1075 17.487 28.0247 19.2562 29.3322 20.6381C29.8039 21.1371 29.8922 21.8964 29.5396 22.4886V22.4892Z" fill="white"/>
    <path d="M48.2487 30.3734V9.41699H52.0644V30.3734H48.2487ZM51.6533 25.4337L51.4481 20.8232L62.2199 9.41699H66.5051L57.5529 19.1169L55.4398 21.4821L51.6533 25.4337ZM62.5719 30.3734L54.7055 20.8232L57.2296 17.9791L67.0331 30.3734H62.5719Z" fill="#284792"/>
    <path d="M75.6632 30.5833C74.0584 30.5833 72.6296 30.2292 71.378 29.5203C70.1252 28.812 69.1372 27.839 68.4136 26.6014C67.6893 25.3643 67.3278 23.9569 67.3278 22.3803C67.3278 20.8036 67.6899 19.3713 68.4136 18.144C69.1372 16.9166 70.1257 15.9539 71.378 15.2549C72.6302 14.5563 74.0584 14.207 75.6632 14.207C77.2679 14.207 78.7302 14.5563 79.9925 15.2549C81.2549 15.9539 82.2423 16.9117 82.9569 18.1288C83.671 19.3463 84.0284 20.7635 84.0284 22.3797C84.0284 23.9959 83.671 25.3637 82.9569 26.6008C82.2423 27.8385 81.2543 28.8115 79.9925 29.5198C78.7302 30.2286 77.2871 30.5828 75.6632 30.5828V30.5833ZM75.6632 27.3802C76.5629 27.3802 77.3658 27.1811 78.0698 26.7814C78.7743 26.3823 79.3268 25.8036 79.7283 25.0448C80.1292 24.2866 80.3302 23.3983 80.3302 22.3803C80.3302 21.3623 80.1292 20.4495 79.7283 19.701C79.3268 18.9526 78.7743 18.3793 78.0698 17.9796C77.3653 17.5805 76.573 17.3809 75.6924 17.3809C74.8119 17.3809 73.9946 17.5805 73.3002 17.9796C72.6052 18.3793 72.0527 18.9526 71.6417 19.701C71.2307 20.4495 71.0254 21.3427 71.0254 22.3803C71.0254 23.4178 71.2307 24.2866 71.6417 25.0448C72.0527 25.8036 72.6052 26.3823 73.3002 26.7814C73.9946 27.1811 74.7826 27.3802 75.6632 27.3802Z" fill="#EEA23D"/>
    <path d="M94.5943 30.5833C92.9896 30.5833 91.5608 30.2292 90.3091 29.5203C89.0563 28.812 88.0684 27.839 87.3447 26.6014C86.6205 25.3643 86.2589 23.9569 86.2589 22.3803C86.2589 20.8036 86.621 19.3713 87.3447 18.144C88.0684 16.9166 89.0569 15.9539 90.3091 15.2549C91.5613 14.5563 92.9896 14.207 94.5943 14.207C96.1991 14.207 97.6614 14.5563 98.9237 15.2549C100.186 15.9539 101.173 16.9117 101.888 18.1288C102.602 19.3463 102.96 20.7635 102.96 22.3797C102.96 23.9959 102.602 25.3637 101.888 26.6008C101.173 27.8385 100.185 28.8115 98.9237 29.5198C97.6614 30.2286 96.2182 30.5828 94.5943 30.5828V30.5833ZM94.5943 27.3802C95.494 27.3802 96.2969 27.1811 97.0009 26.7814C97.7055 26.3823 98.258 25.8036 98.6594 25.0448C99.0603 24.2866 99.2613 23.3983 99.2613 22.3803C99.2613 21.3623 99.0603 20.4495 98.6594 19.701C98.258 18.9526 97.7055 18.3793 97.0009 17.9796C96.2964 17.5805 95.5041 17.3809 94.6236 17.3809C93.743 17.3809 92.9258 17.5805 92.2313 17.9796C91.5363 18.3793 90.9839 18.9526 90.5728 19.701C90.1618 20.4495 89.9566 21.3427 89.9566 22.3803C89.9566 23.4178 90.1618 24.2866 90.5728 25.0448C90.9839 25.8036 91.5363 26.3823 92.2313 26.7814C92.9258 27.1811 93.7138 27.3802 94.5943 27.3802Z" fill="#EEA23D"/>
    <path d="M106.482 30.3734V14.3871H109.975V18.7877L109.564 17.5002C110.033 16.4225 110.772 15.6041 111.78 15.0455C112.787 14.4869 114.045 14.207 115.551 14.207V17.7697C115.395 17.7301 115.248 17.7052 115.111 17.6949C114.974 17.6851 114.837 17.6797 114.7 17.6797C113.311 17.6797 112.205 18.0941 111.383 18.9222C110.561 19.7504 110.151 20.9832 110.151 22.6194V30.3734H106.482Z" fill="#EEA23D"/>
  </g>
  <defs>
    <clipPath id="clip0_9_500">
      <rect width="117" height="40" fill="white"/>
    </clipPath>
  </defs>
</svg>
