 <svg
    width="14"
    height="14"
    viewBox="0 0 14 14"
    fill="none"
    xmlns="http://www.w3.org/2000/svg"
  >
    <path
      d="M7.00016 11.6667C8.30016 11.6667 9.40294 11.2139 10.3085 10.3083C11.2141 9.40277 11.6668 8.29999 11.6668 6.99999C11.6668 5.69999 11.2141 4.59722 10.3085 3.69166C9.40294 2.78611 8.30016 2.33333 7.00016 2.33333V6.99999L3.81683 10.3333C4.22794 10.7667 4.71127 11.0972 5.26683 11.325C5.82238 11.5528 6.40016 11.6667 7.00016 11.6667ZM7.00016 13.6667C6.08905 13.6667 5.22794 13.4917 4.41683 13.1417C3.60572 12.7917 2.89738 12.3139 2.29183 11.7083C1.68627 11.1028 1.2085 10.3944 0.858496 9.58333C0.508496 8.77222 0.333496 7.91111 0.333496 6.99999C0.333496 6.07777 0.508496 5.21111 0.858496 4.39999C1.2085 3.58888 1.68627 2.88333 2.29183 2.28333C2.89738 1.68333 3.60572 1.20833 4.41683 0.858328C5.22794 0.508328 6.08905 0.333328 7.00016 0.333328C7.92238 0.333328 8.78905 0.508328 9.60016 0.858328C10.4113 1.20833 11.1168 1.68333 11.7168 2.28333C12.3168 2.88333 12.7918 3.58888 13.1418 4.39999C13.4918 5.21111 13.6668 6.07777 13.6668 6.99999C13.6668 7.91111 13.4918 8.77222 13.1418 9.58333C12.7918 10.3944 12.3168 11.1028 11.7168 11.7083C11.1168 12.3139 10.4113 12.7917 9.60016 13.1417C8.78905 13.4917 7.92238 13.6667 7.00016 13.6667ZM7.00016 12.6667C8.57794 12.6667 9.91683 12.1139 11.0168 11.0083C12.1168 9.90277 12.6668 8.56666 12.6668 6.99999C12.6668 5.42222 12.1168 4.08333 11.0168 2.98333C9.91683 1.88333 8.57794 1.33333 7.00016 1.33333C5.4335 1.33333 4.09738 1.88333 2.99183 2.98333C1.88627 4.08333 1.3335 5.42222 1.3335 6.99999C1.3335 8.56666 1.88627 9.90277 2.99183 11.0083C4.09738 12.1139 5.4335 12.6667 7.00016 12.6667Z"
      fill="#848484"
    />
  </svg>