 <svg
    xmlns="http://www.w3.org/2000/svg"
    width="22"
    height="22"
    viewBox="0 0 22 22"
    fill="none"
  >
    <rect width="22" height="22" rx="11" fill="#EEA23D" />
    <path
      d="M5 9.64416C5 8.77143 5.18168 7.94795 5.54505 7.17371C5.908 6.3999 6.41579 5.72727 7.06842 5.15584L7.74737 5.81039C7.17895 6.2987 6.73684 6.87262 6.42105 7.53216C6.10526 8.1921 5.94737 8.8961 5.94737 9.64416H5ZM16.0526 9.64416C16.0526 8.8961 15.8947 8.1921 15.5789 7.53216C15.2632 6.87262 14.8211 6.2987 14.2526 5.81039L14.9316 5.15584C15.5842 5.72727 16.0922 6.3999 16.4556 7.17371C16.8185 7.94795 17 8.77143 17 9.64416H16.0526ZM6.10526 15.1766V14.2416H7.36842V9.72208C7.36842 8.87013 7.63432 8.11938 8.16611 7.46982C8.69747 6.82068 9.37895 6.4026 10.2105 6.21558V5.77922C10.2105 5.56104 10.2869 5.37652 10.4398 5.22566C10.5922 5.07522 10.7789 5 11 5C11.2211 5 11.4078 5.07522 11.5602 5.22566C11.7131 5.37652 11.7895 5.56104 11.7895 5.77922V6.21558C12.6211 6.4026 13.3027 6.82068 13.8345 7.46982C14.3659 8.11938 14.6316 8.87013 14.6316 9.72208V14.2416H15.8947V15.1766H6.10526ZM11 17C10.6842 17 10.4158 16.8909 10.1947 16.6727C9.97368 16.4545 9.86316 16.1896 9.86316 15.8779H12.1368C12.1368 16.1896 12.0263 16.4545 11.8053 16.6727C11.5842 16.8909 11.3158 17 11 17ZM8.31579 14.2416H13.6842V9.72208C13.6842 8.98442 13.4236 8.35834 12.9023 7.84384C12.3815 7.32977 11.7474 7.07273 11 7.07273C10.2526 7.07273 9.61853 7.32977 9.09768 7.84384C8.57642 8.35834 8.31579 8.98442 8.31579 9.72208V14.2416Z"
      fill="white"
    />
  </svg>