<svg
    xmlns="http://www.w3.org/2000/svg"
    width="22"
    height="22"
    viewBox="0 0 22 22"
    fill="none"
  >
    <rect width="21.5273" height="22" rx="10.7637" fill="#848484" />
    <path
      d="M6.35705 14.9568V14.0419H7.57687V9.62008C7.57687 9.30496 7.6151 9 7.69154 8.70521C7.76757 8.41042 7.88183 8.12579 8.03431 7.85133L8.72046 8.53748C8.6493 8.71029 8.59339 8.88554 8.55273 9.06323C8.51207 9.24132 8.49174 9.42694 8.49174 9.62008V14.0419H12.9288L5 6.11309L5.65565 5.47268L16.5273 16.3443L15.8869 17L13.8285 14.9568H6.35705ZM14.5909 12.6849L13.676 11.77V9.62008C13.676 8.89835 13.4219 8.28579 12.9136 7.78241C12.4053 7.27944 11.7954 7.02795 11.0839 7.02795C10.7992 7.02795 10.5173 7.07614 10.2379 7.1725C9.95817 7.26928 9.71156 7.40915 9.49809 7.59212L8.84244 6.93647C9.05591 6.75349 9.28971 6.59837 9.54384 6.47111C9.79797 6.34424 10.0572 6.25032 10.3215 6.18933V5.76239C10.3215 5.54892 10.3953 5.36839 10.5429 5.22079C10.6901 5.0736 10.8704 5 11.0839 5C11.2973 5 11.4777 5.0736 11.6249 5.22079C11.7725 5.36839 11.8463 5.54892 11.8463 5.76239V6.18933C12.6086 6.36213 13.2568 6.76122 13.7906 7.38658C14.3241 8.01154 14.5909 8.75604 14.5909 9.62008V12.6849ZM11.0839 16.7408C10.7789 16.7408 10.5197 16.6341 10.3062 16.4206C10.0928 16.2071 9.98602 15.9479 9.98602 15.6429H12.1817C12.1817 15.9479 12.075 16.2071 11.8615 16.4206C11.648 16.6341 11.3888 16.7408 11.0839 16.7408Z"
      fill="#F0F0F0"
    />
  </svg>