<svg
    width="18"
    height="19"
    viewBox="0 0 18 19"
    fill="none"
    xmlns="http://www.w3.org/2000/svg"
  >
    <path
      d="M5.69935 13.7626L8.99935 10.4626L12.2993 13.7626L13.2618 12.8001L9.96185 9.50008L13.2618 6.20008L12.2993 5.23758L8.99935 8.53758L5.69935 5.23758L4.73685 6.20008L8.03685 9.50008L4.73685 12.8001L5.69935 13.7626ZM8.99935 18.2084C7.7924 18.2084 6.65818 17.9792 5.59668 17.5209C4.53457 17.0626 3.61393 16.4438 2.83477 15.6647C2.0556 14.8855 1.43685 13.9649 0.978516 12.9027C0.520182 11.8412 0.291016 10.707 0.291016 9.50008C0.291016 8.29314 0.520182 7.15861 0.978516 6.0965C1.43685 5.035 2.0556 4.11466 2.83477 3.3355C3.61393 2.55633 4.53457 1.93758 5.59668 1.47925C6.65818 1.02091 7.7924 0.791748 8.99935 0.791748C10.2063 0.791748 11.3408 1.02091 12.4029 1.47925C13.4644 1.93758 14.3848 2.55633 15.1639 3.3355C15.9431 4.11466 16.5618 5.035 17.0202 6.0965C17.4785 7.15861 17.7077 8.29314 17.7077 9.50008C17.7077 10.707 17.4785 11.8412 17.0202 12.9027C16.5618 13.9649 15.9431 14.8855 15.1639 15.6647C14.3848 16.4438 13.4644 17.0626 12.4029 17.5209C11.3408 17.9792 10.2063 18.2084 8.99935 18.2084ZM8.99935 16.8334C11.0466 16.8334 12.7806 16.123 14.2014 14.7022C15.6223 13.2813 16.3327 11.5473 16.3327 9.50008C16.3327 7.45286 15.6223 5.71883 14.2014 4.298C12.7806 2.87716 11.0466 2.16675 8.99935 2.16675C6.95213 2.16675 5.2181 2.87716 3.79727 4.298C2.37643 5.71883 1.66602 7.45286 1.66602 9.50008C1.66602 11.5473 2.37643 13.2813 3.79727 14.7022C5.2181 16.123 6.95213 16.8334 8.99935 16.8334Z"
      fill="currentColor"
    />
  </svg>