 <svg
    width="14"
    height="16"
    viewBox="0 0 14 16"
    fill="none"
    xmlns="http://www.w3.org/2000/svg"
  >
    <path
      d="M4.91646 15.0834V12.5834H3.66646C3.31924 12.5834 3.02424 12.4617 2.78146 12.2184C2.53813 11.9756 2.41646 11.6806 2.41646 11.3334V9.25002H1.66646C1.38868 9.25002 1.18396 9.12835 1.05229 8.88502C0.920072 8.64224 0.923406 8.4028 1.06229 8.16669L2.52063 5.60419C2.63174 4.27085 3.20118 3.15613 4.22896 2.26002C5.25674 1.36446 6.45813 0.916687 7.83313 0.916687C9.33313 0.916687 10.6109 1.44446 11.6665 2.50002C12.722 3.55558 13.2498 4.82641 13.2498 6.31252C13.2498 7.42363 12.9409 8.42363 12.3231 9.31252C11.7048 10.2014 10.9026 10.882 9.91646 11.3542V15.0834H4.91646ZM6.16646 13.8334H8.66646V10.5417L9.27063 10.2709C10.104 9.89585 10.7673 9.35419 11.2606 8.64585C11.7534 7.93752 11.9998 7.16669 11.9998 6.33335C11.9998 5.18058 11.5937 4.19808 10.7815 3.38585C9.96868 2.57308 8.98591 2.16669 7.83313 2.16669C6.72202 2.16669 5.77063 2.53474 4.97896 3.27085C4.18729 4.00696 3.75674 4.94446 3.68729 6.08335L2.58313 8.00002H3.66646V11.3334H6.16646V13.8334ZM7.20813 9.31252H8.45813L8.54146 8.45835C8.70813 8.41669 8.85063 8.36113 8.96896 8.29169C9.08674 8.22224 9.19424 8.13196 9.29146 8.02085L10.0831 8.37502L10.7081 7.31252L10.0206 6.79169C10.0623 6.63891 10.0831 6.48613 10.0831 6.33335C10.0831 6.18058 10.0623 6.0278 10.0206 5.87502L10.7081 5.35419L10.0831 4.29169L9.29146 4.64585C9.19424 4.53474 9.08674 4.44446 8.96896 4.37502C8.85063 4.30558 8.70813 4.25002 8.54146 4.20835L8.45813 3.35419H7.20813L7.12479 4.20835C6.95813 4.25002 6.81591 4.30558 6.69813 4.37502C6.57979 4.44446 6.47202 4.53474 6.37479 4.64585L5.58313 4.29169L4.95813 5.35419L5.64563 5.87502C5.60396 6.0278 5.58313 6.18058 5.58313 6.33335C5.58313 6.48613 5.60396 6.63891 5.64563 6.79169L4.95813 7.31252L5.58313 8.37502L6.37479 8.02085C6.47202 8.13196 6.57979 8.22224 6.69813 8.29169C6.81591 8.36113 6.95813 8.41669 7.12479 8.45835L7.20813 9.31252ZM7.83313 7.60419C7.47202 7.60419 7.17007 7.48252 6.92729 7.23919C6.68396 6.99641 6.56229 6.69447 6.56229 6.33335C6.56229 5.97224 6.68396 5.67002 6.92729 5.42669C7.17007 5.18391 7.47202 5.06252 7.83313 5.06252C8.19424 5.06252 8.49646 5.18391 8.73979 5.42669C8.98257 5.67002 9.10396 5.97224 9.10396 6.33335C9.10396 6.69447 8.98257 6.99641 8.73979 7.23919C8.49646 7.48252 8.19424 7.60419 7.83313 7.60419Z"
      fill="currentColor"
    />
  </svg>