<svg width="33" height="32" viewBox="0 0 33 32" fill="none"
  xmlns="http://www.w3.org/2000/svg">
  <path d="M16.5 15.375C14.4861 15.375 12.7674 14.6542 11.3437 13.2125C9.92014 11.7722 9.20833 10.0625 9.20833 8.08335C9.20833 6.06946 9.92014 4.35071 11.3437 2.9271C12.7674 1.50349 14.4861 0.791685 16.5 0.791685C18.5139 0.791685 20.2326 1.50349 21.6562 2.9271C23.0799 4.35071 23.7917 6.06946 23.7917 8.08335C23.7917 10.0625 23.0799 11.7722 21.6562 13.2125C20.2326 14.6542 18.5139 15.375 16.5 15.375ZM0.875 31.2083V26.5729C0.875 25.566 1.15278 24.6285 1.70833 23.7604C2.26389 22.8924 3.01042 22.2153 3.94792 21.7292C5.99653 20.7222 8.07153 19.9667 10.1729 19.4625C12.2729 18.9597 14.3819 18.7084 16.5 18.7084C18.6181 18.7084 20.7278 18.9597 22.8292 19.4625C24.9292 19.9667 27.0035 20.7222 29.0521 21.7292C29.9896 22.2153 30.7361 22.8924 31.2917 23.7604C31.8472 24.6285 32.125 25.566 32.125 26.5729V31.2083H0.875ZM4 28.0833H29V26.5729C29 26.1563 28.8785 25.7743 28.6354 25.4271C28.3924 25.0799 28.0625 24.7847 27.6458 24.5417C25.8403 23.6736 24.009 23.0049 22.1521 22.5354C20.2938 22.0674 18.4097 21.8334 16.5 21.8334C14.5903 21.8334 12.7062 22.0674 10.8479 22.5354C8.99097 23.0049 7.15972 23.6736 5.35417 24.5417C4.9375 24.7847 4.60764 25.0799 4.36458 25.4271C4.12153 25.7743 4 26.1563 4 26.5729V28.0833ZM16.5 12.25C17.6458 12.25 18.6271 11.8417 19.4438 11.025C20.259 10.2097 20.6667 9.22919 20.6667 8.08335C20.6667 6.93752 20.259 5.95627 19.4438 5.1396C18.6271 4.32432 17.6458 3.91669 16.5 3.91669C15.3542 3.91669 14.3736 4.32432 13.5583 5.1396C12.7417 5.95627 12.3333 6.93752 12.3333 8.08335C12.3333 9.22919 12.7417 10.2097 13.5583 11.025C14.3736 11.8417 15.3542 12.25 16.5 12.25Z" fill="currentColor" />
</svg>