<svg xmlns="http://www.w3.org/2000/svg" width="50" height="50" viewBox="0 0 50 50" fill="none">
<rect width="50" height="50" rx="25" fill="#EEA23D"/>
<mask id="mask0_3807_14922" style="mask-type:alpha" maskUnits="userSpaceOnUse" x="11" y="11" width="28" height="28">
<rect x="11.25" y="11.25" width="27.5" height="27.5" fill="#D9D9D9"/>
</mask>
<g mask="url(#mask0_3807_14922)">
<path d="M27.0046 25.8019C26.2025 25.8019 25.5245 25.525 24.9707 24.9712C24.4169 24.4174 24.14 23.7394 24.14 22.9373C24.14 22.1544 24.4169 21.4814 24.9707 20.9184C25.5245 20.3546 26.2025 20.0728 27.0046 20.0728C27.8066 20.0728 28.4846 20.3546 29.0384 20.9184C29.5922 21.4814 29.8691 22.1544 29.8691 22.9373C29.8691 23.7394 29.5922 24.4174 29.0384 24.9712C28.4846 25.525 27.8066 25.8019 27.0046 25.8019ZM19.4421 29.354C18.8691 29.354 18.3822 29.1535 17.9811 28.7524C17.5801 28.3514 17.3796 27.8644 17.3796 27.2915V18.6118C17.3796 18.0389 17.5801 17.5519 17.9811 17.1509C18.3822 16.7498 18.8691 16.5493 19.4421 16.5493H34.5671C35.14 16.5493 35.627 16.7498 36.028 17.1509C36.429 17.5519 36.6296 18.0389 36.6296 18.6118V27.2915C36.6296 27.8644 36.429 28.3514 36.028 28.7524C35.627 29.1535 35.14 29.354 34.5671 29.354H19.4421ZM21.1608 27.6353H32.8483C32.8483 27.0623 33.0488 26.5754 33.4499 26.1743C33.8509 25.7733 34.3379 25.5728 34.9108 25.5728V20.3306C34.3379 20.3306 33.8509 20.1251 33.4499 19.7141C33.0488 19.3039 32.8483 18.8219 32.8483 18.2681H21.1608C21.1608 18.841 20.9603 19.328 20.5592 19.729C20.1582 20.13 19.6712 20.3306 19.0983 20.3306V25.5728C19.6712 25.5728 20.1582 25.7733 20.5592 26.1743C20.9603 26.5754 21.1608 27.0623 21.1608 27.6353ZM33.2207 33.3644H15.4316C14.8587 33.3644 14.3717 33.1639 13.9707 32.7629C13.5697 32.3618 13.3691 31.8748 13.3691 31.3019V19.9582H15.0879V31.3019C15.0879 31.3974 15.1261 31.4784 15.2025 31.5448C15.2789 31.6121 15.3553 31.6457 15.4316 31.6457H33.2207V33.3644ZM19.4421 27.6353H19.0983V18.2681H19.4421C19.3466 18.2681 19.2656 18.3017 19.1991 18.3689C19.1319 18.4354 19.0983 18.5163 19.0983 18.6118V27.2915C19.0983 27.387 19.1319 27.468 19.1991 27.5344C19.2656 27.6016 19.3466 27.6353 19.4421 27.6353Z" fill="white"/>
</g>
</svg>