<svg width="24" height="24" viewBox="0 0 24 24" fill="none" xmlns="http://www.w3.org/2000/svg">
<mask id="mask0_547_14314" style="mask-type:alpha" maskUnits="userSpaceOnUse" x="0" y="0" width="24" height="24">
<rect width="24" height="24" fill="#D9D9D9"/>
</mask>
<g mask="url(#mask0_547_14314)">
<path d="M19.1993 4.80063C20.5363 6.13766 21.419 7.68313 21.8473 9.43704C22.2761 11.1914 22.2448 12.9314 21.7534 14.6569L22.9523 13.458L23.9808 14.4865L21.0506 17.4167L18.0846 14.4507L19.1131 13.4222L20.2621 14.5712C20.7649 13.0628 20.8334 11.5201 20.4678 9.94306C20.1021 8.36605 19.3364 6.99473 18.1708 5.82912C17.3366 4.9949 16.3966 4.36341 15.3507 3.93465C14.3053 3.50634 13.2368 3.2835 12.1453 3.26613C11.0541 3.24922 9.97721 3.44074 8.91444 3.84071C7.85167 4.24068 6.88033 4.84634 6.0004 5.6577L4.97191 4.62922C5.96612 3.68073 7.08328 2.97495 8.3234 2.51191C9.56307 2.04932 10.8258 1.821 12.1117 1.82694C13.397 1.83242 14.6538 2.0836 15.8821 2.58047C17.1108 3.0778 18.2165 3.81786 19.1993 4.80063ZM19.0279 19.3708C17.9994 20.3308 16.8623 21.045 15.6167 21.5135C14.3711 21.982 13.1024 22.2049 11.8107 22.182C10.5198 22.1592 9.2687 21.8963 8.05737 21.3935C6.84604 20.8907 5.76042 20.1593 4.8005 19.1994C3.4749 17.8738 2.59223 16.3284 2.15249 14.563C1.7123 12.7972 1.75504 11.0458 2.28071 9.30883L1.21939 10.3702L0.190901 9.34167L2.94923 6.58334L5.83824 9.47235L4.80975 10.5008L3.73773 9.42882C3.24634 10.903 3.17778 12.4343 3.53203 14.0227C3.88629 15.6112 4.65194 16.9939 5.82898 18.1709C6.65177 18.9937 7.58312 19.6165 8.62304 20.0394C9.66295 20.4622 10.7285 20.688 11.8196 20.7168C12.9111 20.7451 13.9913 20.5623 15.06 20.1683C16.1282 19.7738 17.108 19.1651 17.9994 18.3424L19.0279 19.3708Z" fill="#121212"/>
</g>
<mask id="mask1_547_14314" style="mask-type:alpha" maskUnits="userSpaceOnUse" x="4" y="4" width="16" height="16">
<rect x="4.37402" y="4.37378" width="15.028" height="15.028" fill="#D9D9D9"/>
</mask>
<g mask="url(#mask1_547_14314)">
<path d="M11.7757 11.4887C11.0452 11.4887 10.4242 11.2303 9.91284 10.7135C9.40147 10.1971 9.14579 9.57888 9.14579 8.85879C9.14579 8.12826 9.40147 7.50731 9.91284 6.99594C10.4242 6.48457 11.0452 6.22888 11.7757 6.22888C12.5062 6.22888 13.1272 6.48457 13.6385 6.99594C14.1499 7.50731 14.4056 8.12826 14.4056 8.85879C14.4056 9.57888 14.1499 10.1971 13.6385 10.7135C13.1272 11.2303 12.5062 11.4887 11.7757 11.4887ZM6.64111 16.7485V14.87C6.64111 14.4839 6.73775 14.1343 6.93103 13.8212C7.12389 13.5081 7.38208 13.2681 7.7056 13.1011C8.36308 12.7671 9.03099 12.5192 9.70934 12.3572C10.3877 12.1956 11.0765 12.1149 11.7757 12.1149C12.4749 12.1149 13.1637 12.1956 13.842 12.3572C14.5204 12.5192 15.1883 12.7619 15.8458 13.0854C16.1693 13.2524 16.4277 13.4951 16.621 13.8137C16.8138 14.1318 16.9103 14.4839 16.9103 14.87V16.7485H6.64111ZM8.06565 15.324H15.4857V14.8857C15.4857 14.7709 15.4571 14.6665 15.4 14.5726C15.3423 14.4786 15.2666 14.4108 15.1727 14.3691C14.63 14.0873 14.0741 13.8786 13.5052 13.7429C12.9366 13.6072 12.3601 13.5394 11.7757 13.5394C11.1913 13.5394 10.6148 13.6072 10.0462 13.7429C9.47724 13.8786 8.92141 14.0873 8.37873 14.3691C8.2848 14.4108 8.20925 14.4786 8.15206 14.5726C8.09445 14.6665 8.06565 14.7709 8.06565 14.8857V15.324ZM11.7757 10.0642C12.1096 10.0642 12.3941 9.94665 12.6292 9.71163C12.8638 9.47703 12.9811 9.19274 12.9811 8.85879C12.9811 8.52483 12.8638 8.24034 12.6292 8.00532C12.3941 7.77072 12.1096 7.65341 11.7757 7.65341C11.4417 7.65341 11.1575 7.77072 10.9229 8.00532C10.6878 8.24034 10.5703 8.52483 10.5703 8.85879C10.5703 9.19274 10.6878 9.47703 10.9229 9.71163C11.1575 9.94665 11.4417 10.0642 11.7757 10.0642Z" fill="#121212"/>
</g>
</svg>
