<svg width="50" height="50" viewBox="0 0 50 50" fill="none" xmlns="http://www.w3.org/2000/svg">
<path d="M33.3399 20.5005C33.2123 20.5996 30.9593 21.8691 30.9593 24.692C30.9593 27.9571 33.8262 29.1122 33.912 29.1408C33.8988 29.2112 33.4565 30.7228 32.4004 32.2629C31.4587 33.6183 30.4752 34.9714 28.9791 34.9714C27.4829 34.9714 27.0979 34.1023 25.3707 34.1023C23.6876 34.1023 23.0891 35 21.7206 35C20.352 35 19.3971 33.7459 18.2992 32.2057C17.0275 30.3971 16 27.5875 16 24.9208C16 20.6436 18.7811 18.3751 21.5182 18.3751C22.9725 18.3751 24.1848 19.33 25.0979 19.33C25.967 19.33 27.3223 18.3179 28.9769 18.3179C29.604 18.3179 31.857 18.3751 33.3399 20.5005ZM28.1914 16.5072C28.8757 15.6953 29.3597 14.5688 29.3597 13.4422C29.3597 13.286 29.3465 13.1276 29.3179 13C28.2046 13.0418 26.8801 13.7415 26.0814 14.6678C25.4543 15.3806 24.8691 16.5072 24.8691 17.6491C24.8691 17.8207 24.8977 17.9923 24.9109 18.0473C24.9813 18.0605 25.0957 18.0759 25.2101 18.0759C26.209 18.0759 27.4653 17.407 28.1914 16.5072Z" fill="black"/>
<rect x="0.5" y="0.5" width="49" height="49" rx="15.5" stroke="#CACACA"/>
</svg>
