<svg width="298" height="305" viewBox="0 0 298 305" fill="none" xmlns="http://www.w3.org/2000/svg">
<circle cx="142.5" cy="162.5" r="86.5" fill="#FEEFD3"/>
<circle opacity="0.15" cx="27.5" cy="192.5" r="13.5" fill="#FEEFD3"/>
<circle opacity="0.45" cx="284.5" cy="110.5" r="13.5" fill="#FEEFD3"/>
<circle opacity="0.25" cx="28" cy="277" r="28" fill="#FEEFD3"/>
<circle opacity="0.15" cx="191" cy="32" r="32" fill="#FEEFD3"/>
<circle opacity="0.45" cx="47" cy="67" r="18" fill="#FEEFD3"/>
<circle opacity="0.35" cx="259" cy="240" r="18" fill="#FEEFD3"/>
<rect opacity="0.25" x="93" y="124" width="76" height="10" fill="#EEA23D"/>
<rect opacity="0.25" x="93" y="144" width="76" height="10" fill="#EEA23D"/>
<rect opacity="0.25" x="93" y="164" width="76" height="10" fill="#EEA23D"/>
<rect opacity="0.25" x="93" y="184" width="76" height="10" fill="#EEA23D"/>
<rect x="140" y="155" width="52" height="51" fill="#FEEFD3"/>
<mask id="mask0_771_18340" style="mask-type:alpha" maskUnits="userSpaceOnUse" x="126" y="142" width="80" height="80">
<rect x="126" y="142" width="80" height="80" fill="#D9D9D9"/>
</mask>
<g mask="url(#mask0_771_18340)">
<path d="M161.333 195.5L184.833 172L180.167 167.333L161.333 186.167L151.833 176.667L147.167 181.333L161.333 195.5ZM142.667 212C140.833 212 139.263 211.348 137.957 210.043C136.652 208.737 136 207.167 136 205.333V158.667C136 156.833 136.652 155.263 137.957 153.957C139.263 152.652 140.833 152 142.667 152H156.667C157.389 150 158.598 148.389 160.293 147.167C161.987 145.945 163.889 145.333 166 145.333C168.111 145.333 170.014 145.945 171.71 147.167C173.403 148.389 174.611 150 175.333 152H189.333C191.167 152 192.737 152.652 194.043 153.957C195.348 155.263 196 156.833 196 158.667V205.333C196 207.167 195.348 208.737 194.043 210.043C192.737 211.348 191.167 212 189.333 212H142.667ZM142.667 205.333H189.333V158.667H142.667V205.333ZM166 156.167C166.722 156.167 167.32 155.93 167.793 155.457C168.264 154.986 168.5 154.389 168.5 153.667C168.5 152.945 168.264 152.347 167.793 151.873C167.32 151.402 166.722 151.167 166 151.167C165.278 151.167 164.681 151.402 164.21 151.873C163.737 152.347 163.5 152.945 163.5 153.667C163.5 154.389 163.737 154.986 164.21 155.457C164.681 155.93 165.278 156.167 166 156.167Z" fill="#EEA23D"/>
</g>
</svg>
