<svg
    width="24"
    height="24"
    viewBox="0 0 18 18"
    fill="none"
    xmlns="http://www.w3.org/2000/svg"
  >
    <path
      d="M15.9245 16.6631C14.7495 17.6482 13.4106 18.0747 11.9079 17.9426C10.4052 17.8105 9.16133 17.157 8.1762 15.982L1.43024 7.93572C0.723522 7.09278 0.418664 6.11954 0.51567 5.01599C0.612675 3.91245 1.08265 3.00731 1.92559 2.30059C2.76853 1.59387 3.74177 1.28902 4.84531 1.38602C5.94886 1.48303 6.85399 1.953 7.56071 2.79594L13.6642 10.0759C14.1139 10.6123 14.3089 11.221 14.249 11.9019C14.1892 12.5828 13.891 13.1481 13.3546 13.5978C12.8182 14.0476 12.2095 14.2425 11.5286 14.1826C10.8477 14.1228 10.2824 13.8247 9.83266 13.2882L3.72917 6.0083L4.87863 5.04459L10.9821 12.3245C11.1642 12.5416 11.3902 12.6618 11.6603 12.6851C11.9302 12.7093 12.1738 12.6304 12.3909 12.4484C12.608 12.2663 12.7285 12.0401 12.7522 11.7696C12.7759 11.5 12.6968 11.2567 12.5147 11.0396L6.41125 3.75965C5.96152 3.22323 5.3962 2.9251 4.71529 2.86524C4.03437 2.80539 3.42571 3.00033 2.8893 3.45006C2.35288 3.89979 2.05474 4.46511 1.99489 5.14602C1.93504 5.82693 2.12997 6.43559 2.5797 6.97201L9.32567 15.0183C10.0324 15.8612 10.9375 16.3312 12.0411 16.4282C13.1446 16.5252 14.1179 16.2203 14.9608 15.5136C15.8037 14.8069 16.2737 13.9017 16.3707 12.7982C16.4677 11.6947 16.1629 10.7214 15.4561 9.87847L8.71017 1.83223L9.85964 0.868522L16.6056 8.91476C17.5907 10.0898 18.0172 11.4286 17.8851 12.9313C17.7531 14.434 17.0995 15.6779 15.9245 16.6631Z"
      fill="currentColor"
    />
  </svg>