 <svg
    width="15"
    height="15"
    viewBox="0 0 15 15"
    fill="none"
    xmlns="http://www.w3.org/2000/svg"
  >
    <path
      d="M1.3335 12V3.78333V12ZM1.3335 13C1.06683 13 0.833496 12.9 0.633496 12.7C0.433496 12.5 0.333496 12.2667 0.333496 12V3.78333C0.333496 3.51666 0.433496 3.28333 0.633496 3.08333C0.833496 2.88333 1.06683 2.78333 1.3335 2.78333H4.50016V1.33333C4.50016 1.07777 4.60016 0.847217 4.80016 0.641662C5.00016 0.436106 5.2335 0.333328 5.50016 0.333328H8.50016C8.76683 0.333328 9.00016 0.436106 9.20016 0.641662C9.40016 0.847217 9.50016 1.07777 9.50016 1.33333V2.78333H12.6668C12.9335 2.78333 13.1668 2.88333 13.3668 3.08333C13.5668 3.28333 13.6668 3.51666 13.6668 3.78333V7.75C13.5113 7.62777 13.3529 7.51666 13.1918 7.41666C13.0307 7.31666 12.8557 7.22222 12.6668 7.13333V3.78333H1.3335V12.0083V12H6.90016C6.94461 12.1778 7.00016 12.35 7.06683 12.5167C7.1335 12.6833 7.21127 12.8444 7.30016 13H1.3335ZM5.50016 2.78333H8.50016V1.33333H5.50016V2.78333ZM11.0002 14.2167C10.1224 14.2167 9.36683 13.9 8.7335 13.2667C8.10016 12.6333 7.7835 11.8778 7.7835 11C7.7835 10.1222 8.10016 9.36666 8.7335 8.73333C9.36683 8.1 10.1224 7.78333 11.0002 7.78333C11.8779 7.78333 12.6335 8.1 13.2668 8.73333C13.9002 9.36666 14.2168 10.1222 14.2168 11C14.2168 11.8778 13.9002 12.6333 13.2668 13.2667C12.6335 13.9 11.8779 14.2167 11.0002 14.2167ZM12.2335 12.6833L12.6835 12.2333L11.2835 10.9667V8.9H10.5835V11.1667L12.2335 12.6833Z"
      fill="#848484"
    />
  </svg>