<svg width="217" height="217" viewBox="0 0 217 217" fill="currentColor" xmlns="http://www.w3.org/2000/svg">
    <g opacity="0.75">
        <rect x="0.75" y="0.75" width="215.5" height="215.5" rx="107.75" fill="#FEEFD3" />
        <mask id="mask0_3375_19649" style="mask-type:alpha" maskUnits="userSpaceOnUse" x="40" y="40" width="137"
            height="137">
            <rect x="40.75" y="40.75" width="135.5" height="135.5" fill="#D9D9D9" />
        </mask>
        <g mask="url(#mask0_3375_19649)">
            <path
                d="M63.3359 148.021V136.729H74.6276V97.2083C74.6276 89.3983 76.98 82.4576 81.6849 76.3865C86.3898 70.3191 92.5061 66.3444 100.034 64.4625V60.5104C100.034 58.158 100.858 56.1594 102.507 54.5145C104.152 52.8659 106.15 52.0417 108.503 52.0417C110.855 52.0417 112.854 52.8659 114.498 54.5145C116.147 56.1594 116.971 58.158 116.971 60.5104V64.4625C124.499 66.3444 130.615 70.3191 135.32 76.3865C140.025 82.4576 142.378 89.3983 142.378 97.2083V136.729H153.669V148.021H63.3359ZM108.503 164.958C105.397 164.958 102.74 163.854 100.531 161.644C98.3175 159.431 97.2109 156.772 97.2109 153.667H119.794C119.794 156.772 118.69 159.431 116.48 161.644C114.267 163.854 111.608 164.958 108.503 164.958Z"
                fill="#EEA23D" />
        </g>
    </g>
</svg>