<svg
    width="14"
    height="16"
    viewBox="0 0 14 16"
    fill="none"
    xmlns="http://www.w3.org/2000/svg"
  >
    <path
      d="M5.25 10.6042L7 8.85417L8.75 10.6042L9.625 9.70833L7.875 7.95833L9.625 6.20833L8.75 5.33333L7 7.08333L5.25 5.33333L4.375 6.20833L6.125 7.95833L4.375 9.70833L5.25 10.6042ZM7 15.8958C5.19444 15.4097 3.70139 14.3508 2.52083 12.7192C1.34028 11.0869 0.75 9.26389 0.75 7.25V2.45833L7 0.125L13.25 2.45833V7.25C13.25 9.26389 12.6597 11.0869 11.4792 12.7192C10.2986 14.3508 8.80556 15.4097 7 15.8958ZM7 14.5833C8.44444 14.125 9.63889 13.2083 10.5833 11.8333C11.5278 10.4583 12 8.93056 12 7.25V3.3125L7 1.4375L2 3.3125V7.25C2 8.93056 2.47222 10.4583 3.41667 11.8333C4.36111 13.2083 5.55556 14.125 7 14.5833Z"
      fill="currentColor"
    />
  </svg>