<svg width="40" height="40" viewBox="0 0 40 40" fill="none" xmlns="http://www.w3.org/2000/svg">
<circle cx="20" cy="19.9998" r="20" fill="#D5E3F7"/>
<mask id="mask0_50_5095" style="mask-type:alpha" maskUnits="userSpaceOnUse" x="8" y="7" width="24" height="25">
<rect x="8" y="7.99982" width="24" height="24" fill="#D9D9D9"/>
</mask>
<g mask="url(#mask0_50_5095)">
<path d="M26.0641 27.5424C24.8891 28.5275 23.5503 28.954 22.0476 28.8219C20.5449 28.6898 19.301 28.0363 18.3159 26.8613L11.5699 18.8151C10.8632 17.9721 10.5583 16.9989 10.6553 15.8953C10.7523 14.7918 11.2223 13.8866 12.0652 13.1799C12.9082 12.4732 13.8814 12.1684 14.985 12.2654C16.0885 12.3624 16.9936 12.8323 17.7004 13.6753L23.8038 20.9552C24.2536 21.4916 24.4485 22.1003 24.3887 22.7812C24.3288 23.4621 24.0307 24.0274 23.4943 24.4772C22.9578 24.9269 22.3492 25.1218 21.6683 25.062C20.9874 25.0021 20.422 24.704 19.9723 24.1676L13.8688 16.8876L15.0183 15.9239L21.1218 23.2039C21.3038 23.421 21.5298 23.5412 21.7999 23.5644C22.0699 23.5886 22.3134 23.5097 22.5305 23.3277C22.7477 23.1457 22.8681 22.9194 22.8919 22.6489C22.9156 22.3794 22.8364 22.136 22.6544 21.9189L16.5509 14.639C16.1012 14.1026 15.5358 13.8044 14.8549 13.7446C14.174 13.6847 13.5654 13.8797 13.0289 14.3294C12.4925 14.7791 12.1944 15.3444 12.1345 16.0254C12.0747 16.7063 12.2696 17.3149 12.7194 17.8513L19.4653 25.8976C20.172 26.7405 21.0772 27.2105 22.1807 27.3075C23.2843 27.4045 24.2575 27.0997 25.1004 26.3929C25.9434 25.6862 26.4134 24.7811 26.5104 23.6775C26.6074 22.574 26.3025 21.6007 25.5958 20.7578L18.8498 12.7116L19.9993 11.7479L26.7452 19.7941C27.7304 20.9691 28.1569 22.308 28.0248 23.8107C27.8927 25.3134 27.2392 26.5573 26.0641 27.5424Z" fill="#274593"/>
</g>
</svg>
