<svg xmlns="http://www.w3.org/2000/svg" width="64" height="34" viewBox="0 0 64 34" fill="none">
  <mask id="mask0_1178_4690" maskUnits="userSpaceOnUse" x="20" y="5" width="24" height="24">
    <rect x="20" y="5" width="24" height="24" fill="#D9D9D9" />
  </mask>
  <g mask="url(#mask0_1178_4690)">
    <path
      d="M39.6 26L33.3 19.7C32.8 20.1 32.225 20.4167 31.575 20.65C30.925 20.8833 30.2333 21 29.5 21C27.6833 21 26.146 20.371 24.888 19.113C23.6293 17.8543 23 16.3167 23 14.5C23 12.6833 23.6293 11.1457 24.888 9.887C26.146 8.629 27.6833 8 29.5 8C31.3167 8 32.8543 8.629 34.113 9.887C35.371 11.1457 36 12.6833 36 14.5C36 15.2333 35.8833 15.925 35.65 16.575C35.4167 17.225 35.1 17.8 34.7 18.3L41 24.6L39.6 26ZM29.5 19C30.75 19 31.8127 18.5627 32.688 17.688C33.5627 16.8127 34 15.75 34 14.5C34 13.25 33.5627 12.1873 32.688 11.312C31.8127 10.4373 30.75 10 29.5 10C28.25 10 27.1873 10.4373 26.312 11.312C25.4373 12.1873 25 13.25 25 14.5C25 15.75 25.4373 16.8127 26.312 17.688C27.1873 18.5627 28.25 19 29.5 19Z"
      fill="currentColor" />
  </g>
</svg>