<svg
    width="18"
    height="20"
    viewBox="0 0 18 20"
    fill="none"
    xmlns="http://www.w3.org/2000/svg"
  >
    <path
      d="M11.7 15.75C11.05 15.75 10.5 15.525 10.05 15.075C9.6 14.625 9.375 14.0833 9.375 13.45C9.375 12.8 9.6 12.25 10.05 11.8C10.5 11.35 11.05 11.125 11.7 11.125C12.3333 11.125 12.875 11.35 13.325 11.8C13.775 12.25 14 12.8 14 13.45C14 14.0833 13.775 14.625 13.325 15.075C12.875 15.525 12.3333 15.75 11.7 15.75ZM2.3 19.25C1.8 19.25 1.375 19.075 1.025 18.725C0.675 18.375 0.5 17.95 0.5 17.45V4.04995C0.5 3.54995 0.675 3.12495 1.025 2.77495C1.375 2.42495 1.8 2.24995 2.3 2.24995H3.7V0.12495H5.225V2.24995H12.8V0.12495H14.3V2.24995H15.7C16.2 2.24995 16.625 2.42495 16.975 2.77495C17.325 3.12495 17.5 3.54995 17.5 4.04995V17.45C17.5 17.95 17.325 18.375 16.975 18.725C16.625 19.075 16.2 19.25 15.7 19.25H2.3ZM2.3 17.75H15.7C15.7667 17.75 15.8333 17.7166 15.9 17.65C15.9667 17.5833 16 17.5166 16 17.45V8.04995H2V17.45C2 17.5166 2.03333 17.5833 2.1 17.65C2.16667 17.7166 2.23333 17.75 2.3 17.75ZM2 6.54995H16V4.04995C16 3.98328 15.9667 3.91662 15.9 3.84995C15.8333 3.78328 15.7667 3.74995 15.7 3.74995H2.3C2.23333 3.74995 2.16667 3.78328 2.1 3.84995C2.03333 3.91662 2 3.98328 2 4.04995V6.54995Z"
      fill="currentColor"
    />
  </svg>