<svg width="15" height="15" viewBox="0 0 15 15" fill="none" xmlns="http://www.w3.org/2000/svg">
<mask id="mask0_7665_33412" style="mask-type:alpha" maskUnits="userSpaceOnUse" x="0" y="0" width="15" height="15">
<rect width="15" height="15" fill="#D9D9D9"/>
</mask>
<g mask="url(#mask0_7665_33412)">
<path d="M12.1502 12.8125C10.9724 12.8125 9.78907 12.5386 8.60037 11.991C7.41167 11.4433 6.31953 10.6707 5.32395 9.67306C4.32835 8.67547 3.55672 7.58333 3.00904 6.39664C2.46136 5.20994 2.18752 4.02766 2.18752 2.84978C2.18752 2.66056 2.25002 2.50288 2.37502 2.37673C2.50002 2.25059 2.65627 2.18752 2.84377 2.18752H4.88221C5.04007 2.18752 5.17929 2.239 5.29988 2.34197C5.42048 2.44494 5.4972 2.57214 5.53004 2.72358L5.88821 4.5625C5.91306 4.73318 5.90785 4.87981 5.87259 5.00241C5.83734 5.125 5.77404 5.22796 5.68268 5.3113L4.23918 6.71634C4.47156 7.14182 4.73698 7.54427 5.03546 7.92367C5.33394 8.30309 5.65706 8.66547 6.00481 9.01083C6.34776 9.35378 6.71235 9.67229 7.09857 9.96636C7.48479 10.2604 7.90186 10.5341 8.34977 10.7873L9.75242 9.37261C9.85018 9.27085 9.96857 9.19954 10.1076 9.15867C10.2466 9.11781 10.391 9.10779 10.5409 9.12862L12.2764 9.48198C12.4343 9.52365 12.5631 9.60418 12.6629 9.72356C12.7626 9.84296 12.8125 9.97838 12.8125 10.1298V12.1562C12.8125 12.3437 12.7494 12.5 12.6233 12.625C12.4971 12.75 12.3394 12.8125 12.1502 12.8125ZM3.79568 5.82934L4.91107 4.76203C4.9311 4.746 4.94412 4.72396 4.95013 4.69592C4.95614 4.66787 4.95514 4.64183 4.94713 4.6178L4.67549 3.22116C4.66748 3.1891 4.65346 3.16507 4.63343 3.14905C4.6134 3.13302 4.58736 3.125 4.55531 3.125H3.21876C3.19473 3.125 3.1747 3.13302 3.15867 3.14905C3.14263 3.16507 3.13462 3.1851 3.13462 3.20914C3.16667 3.63622 3.23658 4.07012 3.34435 4.51083C3.45213 4.95154 3.60258 5.39104 3.79568 5.82934ZM9.23317 11.2308C9.64744 11.4239 10.0795 11.5715 10.5294 11.6737C10.9794 11.7758 11.3998 11.8365 11.7909 11.8558C11.8149 11.8558 11.8349 11.8478 11.851 11.8317C11.867 11.8157 11.875 11.7957 11.875 11.7716V10.4567C11.875 10.4247 11.867 10.3986 11.851 10.3786C11.8349 10.3586 11.8109 10.3445 11.7789 10.3365L10.4664 10.0697C10.4423 10.0617 10.4213 10.0607 10.4033 10.0667C10.3852 10.0727 10.3662 10.0857 10.3462 10.1058L9.23317 11.2308Z" fill="#121212"/>
</g>
</svg>
