 <svg
    width="13"
    height="14"
    viewBox="0 0 13 14"
    fill="none"
    xmlns="http://www.w3.org/2000/svg"
  >
    <path
      d="M2.8 6.08356L6 0.816895L9.2 6.08356H2.8ZM9.66667 13.4169C8.9 13.4169 8.25 13.1502 7.71667 12.6169C7.18333 12.0836 6.91667 11.4336 6.91667 10.6669C6.91667 9.90023 7.18333 9.25023 7.71667 8.7169C8.25 8.18356 8.9 7.91689 9.66667 7.91689C10.4333 7.91689 11.0833 8.18356 11.6167 8.7169C12.15 9.25023 12.4167 9.90023 12.4167 10.6669C12.4167 11.4336 12.15 12.0836 11.6167 12.6169C11.0833 13.1502 10.4333 13.4169 9.66667 13.4169ZM0.25 13.0836V8.25023H5.08333V13.0836H0.25ZM9.66667 12.4169C10.1556 12.4169 10.5696 12.2476 10.9087 11.9089C11.2473 11.5698 11.4167 11.1558 11.4167 10.6669C11.4167 10.178 11.2473 9.76401 10.9087 9.4249C10.5696 9.08623 10.1556 8.91689 9.66667 8.91689C9.17778 8.91689 8.764 9.08623 8.42533 9.4249C8.08622 9.76401 7.91667 10.178 7.91667 10.6669C7.91667 11.1558 8.08622 11.5698 8.42533 11.9089C8.764 12.2476 9.17778 12.4169 9.66667 12.4169ZM1.25 12.0836H4.08333V9.25023H1.25V12.0836ZM4.56667 5.08356H7.43333L6 2.76689L4.56667 5.08356Z"
      fill="currentColor"
    />
  </svg>