<svg
    width="18"
    height="18"
    viewBox="0 0 18 18"
    fill="none"
    xmlns="http://www.w3.org/2000/svg"
  >
    <path
      d="M7.77082 12.5352L13.6667 6.63932L12.7083 5.70182L7.77082 10.6393L5.27082 8.13932L4.33332 9.07682L7.77082 12.5352ZM8.99999 17.0768C7.8611 17.0768 6.78471 16.8581 5.77082 16.4206C4.75693 15.9831 3.87152 15.3858 3.11457 14.6289C2.35763 13.872 1.76041 12.9865 1.32291 11.9727C0.885406 10.9588 0.666656 9.88238 0.666656 8.74349C0.666656 7.59071 0.885406 6.50738 1.32291 5.49349C1.76041 4.4796 2.35763 3.59766 3.11457 2.84766C3.87152 2.09766 4.75693 1.50391 5.77082 1.06641C6.78471 0.628906 7.8611 0.410156 8.99999 0.410156C10.1528 0.410156 11.2361 0.628906 12.25 1.06641C13.2639 1.50391 14.1458 2.09766 14.8958 2.84766C15.6458 3.59766 16.2396 4.4796 16.6771 5.49349C17.1146 6.50738 17.3333 7.59071 17.3333 8.74349C17.3333 9.88238 17.1146 10.9588 16.6771 11.9727C16.2396 12.9865 15.6458 13.872 14.8958 14.6289C14.1458 15.3858 13.2639 15.9831 12.25 16.4206C11.2361 16.8581 10.1528 17.0768 8.99999 17.0768ZM8.99999 15.8268C10.9722 15.8268 12.6458 15.1359 14.0208 13.7539C15.3958 12.372 16.0833 10.7018 16.0833 8.74349C16.0833 6.77127 15.3958 5.09766 14.0208 3.72266C12.6458 2.34766 10.9722 1.66016 8.99999 1.66016C7.04166 1.66016 5.37152 2.34766 3.98957 3.72266C2.60763 5.09766 1.91666 6.77127 1.91666 8.74349C1.91666 10.7018 2.60763 12.372 3.98957 13.7539C5.37152 15.1359 7.04166 15.8268 8.99999 15.8268Z"
      fill="currentColor"
    />
  </svg>