<svg width="43" height="42" viewBox="0 0 43 42" fill="none" xmlns="http://www.w3.org/2000/svg">
<path d="M28.6253 30.7917L31.542 27.875L23.8337 20.1667V10.5833H19.667V21.8333L28.6253 30.7917ZM21.7503 41.8333C18.8684 41.8333 16.16 41.2861 13.6253 40.1917C11.0906 39.0986 8.88574 37.6146 7.01074 35.7396C5.13574 33.8646 3.65171 31.6597 2.55866 29.125C1.46421 26.5903 0.916992 23.8819 0.916992 21C0.916992 18.1181 1.46421 15.4097 2.55866 12.875C3.65171 10.3403 5.13574 8.13542 7.01074 6.26042C8.88574 4.38542 11.0906 2.9007 13.6253 1.80625C16.16 0.713196 18.8684 0.166668 21.7503 0.166668C24.6323 0.166668 27.3406 0.713196 29.8753 1.80625C32.41 2.9007 34.6149 4.38542 36.4899 6.26042C38.3649 8.13542 39.8489 10.3403 40.942 12.875C42.0364 15.4097 42.5837 18.1181 42.5837 21C42.5837 23.8819 42.0364 26.5903 40.942 29.125C39.8489 31.6597 38.3649 33.8646 36.4899 35.7396C34.6149 37.6146 32.41 39.0986 29.8753 40.1917C27.3406 41.2861 24.6323 41.8333 21.7503 41.8333ZM21.7503 37.6667C26.3684 37.6667 30.301 36.0438 33.5482 32.7979C36.7941 29.5507 38.417 25.6181 38.417 21C38.417 16.3819 36.7941 12.4493 33.5482 9.20208C30.301 5.95625 26.3684 4.33333 21.7503 4.33333C17.1323 4.33333 13.2003 5.95625 9.95449 9.20208C6.70727 12.4493 5.08366 16.3819 5.08366 21C5.08366 25.6181 6.70727 29.5507 9.95449 32.7979C13.2003 36.0438 17.1323 37.6667 21.7503 37.6667Z" fill="currentColor"/>
</svg>
