<svg width="63" height="62" viewBox="0 0 63 62" fill="none" xmlns="http://www.w3.org/2000/svg">
<rect x="0.667969" width="62" height="62" rx="31" fill="#D5E3F7"/>
<mask id="mask0_11316_41067" style="mask-type:alpha" maskUnits="userSpaceOnUse" x="15" y="15" width="33" height="32">
<rect x="15.668" y="15" width="32" height="32" fill="#D9D9D9"/>
</mask>
<g mask="url(#mask0_11316_41067)">
<path d="M17.6797 41.2559V36.2559C17.6797 35.6115 17.8981 35.0658 18.3348 34.6188C18.7716 34.1718 19.301 33.9397 19.9233 33.9226H24.0335C24.4352 33.9226 24.8168 34.0209 25.1784 34.2175C25.5399 34.4141 25.8343 34.6884 26.0617 35.0406C26.7232 35.95 27.5433 36.6577 28.522 37.1637C29.5006 37.6696 30.5489 37.9226 31.6668 37.9226C32.7984 37.9226 33.8557 37.6696 34.8386 37.1637C35.8215 36.6577 36.6369 35.95 37.2848 35.0406C37.5395 34.6884 37.8442 34.4141 38.1989 34.2175C38.5536 34.0209 38.9207 33.9226 39.3002 33.9226H43.4104C44.0463 33.9397 44.5813 34.1718 45.0155 34.6188C45.4497 35.0658 45.6668 35.6115 45.6668 36.2559V41.2559H37.0002V38.12C36.2395 38.7012 35.407 39.1469 34.5027 39.4572C33.5985 39.7674 32.6532 39.9226 31.6668 39.9226C30.7027 39.9226 29.7672 39.7662 28.8604 39.4533C27.9536 39.1405 27.1155 38.6935 26.3463 38.1123V41.2559H17.6797ZM31.6668 36.0764C30.8651 36.0764 30.1057 35.8905 29.3886 35.5187C28.6715 35.147 28.0703 34.6337 27.5848 33.979C27.2412 33.4833 26.8224 33.0786 26.3284 32.7649C25.8344 32.4512 25.2968 32.2602 24.7156 32.1918C25.2814 31.4978 26.2699 30.959 27.681 30.5752C29.0921 30.1914 30.4207 29.9996 31.6668 29.9996C32.913 29.9996 34.2416 30.1914 35.6527 30.5752C37.0638 30.959 38.0565 31.4978 38.6309 32.1918C38.0634 32.2602 37.5292 32.4512 37.0283 32.7649C36.5275 33.0786 36.1053 33.4833 35.7617 33.979C35.2984 34.6559 34.7061 35.1747 33.9848 35.5354C33.2634 35.8961 32.4908 36.0764 31.6668 36.0764ZM21.3848 32.0764C20.3763 32.0764 19.513 31.7175 18.7951 30.9995C18.0771 30.2816 17.7182 29.4183 17.7182 28.4098C17.7182 27.379 18.0771 26.5102 18.7951 25.8034C19.513 25.0966 20.3763 24.7432 21.3848 24.7432C22.4156 24.7432 23.2844 25.0966 23.9912 25.8034C24.698 26.5102 25.0515 27.379 25.0515 28.4098C25.0515 29.4183 24.698 30.2816 23.9912 30.9995C23.2844 31.7175 22.4156 32.0764 21.3848 32.0764ZM41.9489 32.0764C40.9403 32.0764 40.0771 31.7175 39.3591 30.9995C38.6412 30.2816 38.2822 29.4183 38.2822 28.4098C38.2822 27.379 38.6412 26.5102 39.3591 25.8034C40.0771 25.0966 40.9403 24.7432 41.9489 24.7432C42.9796 24.7432 43.8484 25.0966 44.5552 25.8034C45.2621 26.5102 45.6155 27.379 45.6155 28.4098C45.6155 29.4183 45.2621 30.2816 44.5552 30.9995C43.8484 31.7175 42.9796 32.0764 41.9489 32.0764ZM31.6668 28.0764C30.6583 28.0764 29.795 27.7175 29.0771 26.9995C28.3592 26.2816 28.0002 25.4183 28.0002 24.4098C28.0002 23.379 28.3592 22.5102 29.0771 21.8034C29.795 21.0966 30.6583 20.7432 31.6668 20.7432C32.6976 20.7432 33.5664 21.0966 34.2732 21.8034C34.98 22.5102 35.3335 23.379 35.3335 24.4098C35.3335 25.4183 34.98 26.2816 34.2732 26.9995C33.5664 27.7175 32.6976 28.0764 31.6668 28.0764Z" fill="#274593"/>
</g>
</svg>
