<svg xmlns="http://www.w3.org/2000/svg" width="50" height="50" viewBox="0 0 50 50" fill="none">
<rect width="50" height="50" rx="25" fill="#EEA23D"/>
<mask id="mask0_3807_14868" style="mask-type:alpha" maskUnits="userSpaceOnUse" x="11" y="11" width="28" height="28">
<rect x="11.25" y="11.25" width="27.5" height="27.5" fill="#D9D9D9"/>
</mask>
<g mask="url(#mask0_3807_14868)">
<path d="M27.2923 35.0262C27.0441 35.0262 26.839 34.9452 26.677 34.7833C26.5143 34.6206 26.4329 34.4151 26.4329 34.1668C26.4329 33.9186 26.5143 33.7131 26.677 33.5504C26.839 33.3884 27.0441 33.3075 27.2923 33.3075C28.2854 33.3075 29.1543 33.1069 29.8991 32.7059C30.6439 32.3049 31.0163 31.837 31.0163 31.3022C31.0163 30.9203 30.8349 30.5766 30.472 30.271C30.1092 29.9654 29.6126 29.7076 28.9824 29.4976L30.2715 28.2085C31.0545 28.5522 31.661 28.9819 32.0911 29.4976C32.5204 30.0132 32.735 30.6147 32.735 31.3022C32.735 32.4672 32.1621 33.3789 31.0163 34.0373C29.8704 34.6966 28.6291 35.0262 27.2923 35.0262ZM17.123 26.4897C16.4355 26.1651 15.9058 25.7877 15.5338 25.3577C15.161 24.9284 14.9746 24.4272 14.9746 23.8543C14.9746 23.1286 15.2565 22.5126 15.8202 22.0061C16.3832 21.5004 17.4 20.9229 18.8704 20.2736C20.0927 19.7198 20.8947 19.3042 21.2767 19.0269C21.6586 18.7504 21.8496 18.4498 21.8496 18.1252C21.8496 17.7432 21.63 17.409 21.1908 17.1226C20.7515 16.8361 20.1118 16.6929 19.2715 16.6929C18.7559 16.6929 18.312 16.7597 17.94 16.8934C17.5672 17.0271 17.2376 17.2371 16.9512 17.5236C16.7984 17.6955 16.6074 17.7955 16.3783 17.8238C16.1491 17.8528 15.939 17.791 15.748 17.6382C15.5571 17.4854 15.4475 17.2944 15.4192 17.0653C15.3902 16.8361 15.4616 16.626 15.6335 16.4351C15.9581 16.034 16.4501 15.6903 17.1093 15.4038C17.7678 15.1174 18.4885 14.9741 19.2715 14.9741C20.551 14.9741 21.5872 15.2652 22.3801 15.8472C23.1723 16.4301 23.5684 17.1894 23.5684 18.1252C23.5684 18.8127 23.301 19.4333 22.7663 19.9871C22.2316 20.541 21.1621 21.1616 19.5579 21.8491C18.4121 22.3456 17.6482 22.7322 17.2663 23.0087C16.8843 23.286 16.6934 23.5679 16.6934 23.8543C16.6934 24.1026 16.8416 24.3413 17.1379 24.5705C17.4336 24.7996 17.8678 25.0097 18.4408 25.2007L17.123 26.4897ZM32.4772 22.422L28.5814 18.5262L29.6699 17.409C30.0519 17.0271 30.4961 16.8361 31.0025 16.8361C31.5082 16.8361 31.9425 17.0271 32.3053 17.409L33.5944 18.6981C33.9763 19.0609 34.1673 19.4952 34.1673 20.0009C34.1673 20.5074 33.9763 20.9516 33.5944 21.3335L32.4772 22.422ZM18.0397 32.9637H19.5007L28.2663 24.1981L26.8053 22.7371L18.0397 31.5028V32.9637ZM16.321 34.6825V30.7866L26.8053 20.2736L30.7298 24.1981L20.2168 34.6825H16.321Z" fill="white"/>
</g>
</svg>