<svg width="16" height="16" viewBox="0 0 16 16" fill="none" xmlns="http://www.w3.org/2000/svg"><path d="M5.74967 15.0833L8.27051 12.5833H15.9163V15.0833H5.74967ZM1.33301 13.8333H2.35384L10.083 6.12496L9.04134 5.08329L1.33301 12.8125V13.8333ZM12.7497 5.20829L9.93717 2.41663L11.0413 1.33329C11.2775 1.09718 11.5691 0.979126 11.9163 0.979126C12.2636 0.979126 12.5622 1.09718 12.8122 1.33329L13.833 2.35413C14.0691 2.60413 14.1941 2.89913 14.208 3.23913C14.2219 3.57968 14.1038 3.86801 13.8538 4.10413L12.7497 5.20829ZM11.8538 6.12496L2.89551 15.0833H0.0830078V12.2708L9.04134 3.31246L11.8538 6.12496Z" fill="currentColor"></path></svg>
