<svg
    width="19"
    height="16"
    viewBox="0 0 19 16"
    fill="none"
    xmlns="http://www.w3.org/2000/svg"
  >
    <path
      d="M9 15.5V13.725L14.4 8.325L16.175 10.1L10.775 15.5H9ZM0 10.25V8.75H7.5V10.25H0ZM17.25 9.025L15.475 7.25L16.2 6.525C16.3333 6.39167 16.5083 6.325 16.725 6.325C16.9417 6.325 17.1167 6.39167 17.25 6.525L17.975 7.25C18.1083 7.38333 18.175 7.55833 18.175 7.775C18.175 7.99167 18.1083 8.16667 17.975 8.3L17.25 9.025ZM0 6.125V4.625H11.75V6.125H0ZM0 2V0.5H11.75V2H0Z"
      fill="currentColor"
    />
  </svg>