<svg width="24" height="24" viewBox="0 0 24 24" fill="none" xmlns="http://www.w3.org/2000/svg">
<mask id="mask0_5837_32384" style="mask-type:alpha" maskUnits="userSpaceOnUse" x="0" y="0" width="24" height="24">
<rect y="24" width="24" height="24" transform="rotate(-90 0 24)" fill="#D9D9D9"/>
</mask>
<g mask="url(#mask0_5837_32384)">
<path d="M22 12C22 13.3833 21.7373 14.6833 21.212 15.9C20.6873 17.1167 19.975 18.175 19.075 19.075C18.175 19.975 17.1167 20.6873 15.9 21.212C14.6833 21.7373 13.3833 22 12 22C9.75 22 7.754 21.3417 6.012 20.025C4.27067 18.7083 3.08333 17.0333 2.45 15L4.6 15C5.2 16.4667 6.16233 17.6667 7.487 18.6C8.81233 19.5333 10.3167 20 12 20C14.2167 20 16.1043 19.2207 17.663 17.662C19.221 16.104 20 14.2167 20 12C20 9.78333 19.221 7.89567 17.663 6.337C16.1043 4.779 14.2167 4 12 4C10.3167 4 8.81233 4.46667 7.487 5.4C6.16233 6.33333 5.2 7.53333 4.6 9L2.45 9C3.08333 6.96667 4.27067 5.29167 6.012 3.975C7.754 2.65833 9.75 2 12 2C13.3833 2 14.6833 2.26267 15.9 2.788C17.1167 3.31267 18.175 4.025 19.075 4.925C19.975 5.825 20.6873 6.88333 21.212 8.1C21.7373 9.31667 22 10.6167 22 12ZM16 12L11 17L9.6 15.6L12.175 13L2 13L2 11L12.175 11L9.6 8.4L11 7L16 12Z" fill="white"/>
</g>
</svg>
