 <svg
    xmlns="http://www.w3.org/2000/svg"
    width="21"
    height="20"
    viewBox="0 0 21 20"
    fill="none"
  >
    <path
      d="M20.5 10C20.5 11.3833 20.2373 12.6833 19.712 13.9C19.1873 15.1167 18.475 16.175 17.575 17.075C16.675 17.975 15.6167 18.6873 14.4 19.212C13.1833 19.7373 11.8833 20 10.5 20C8.25 20 6.254 19.3417 4.512 18.025C2.77067 16.7083 1.58333 15.0333 0.95 13L3.1 13C3.7 14.4667 4.66233 15.6667 5.987 16.6C7.31233 17.5333 8.81667 18 10.5 18C12.7167 18 14.6043 17.2207 16.163 15.662C17.721 14.104 18.5 12.2167 18.5 10C18.5 7.78333 17.721 5.89567 16.163 4.337C14.6043 2.779 12.7167 2 10.5 2C8.81667 2 7.31233 2.46667 5.987 3.4C4.66233 4.33333 3.7 5.53333 3.1 7L0.949999 7C1.58333 4.96667 2.77067 3.29167 4.512 1.975C6.254 0.658333 8.25 -3.38763e-07 10.5 -4.37114e-07C11.8833 -4.97581e-07 13.1833 0.262666 14.4 0.787999C15.6167 1.31267 16.675 2.025 17.575 2.925C18.475 3.825 19.1873 4.88333 19.712 6.1C20.2373 7.31667 20.5 8.61667 20.5 10ZM14.5 10L9.5 15L8.1 13.6L10.675 11L0.5 11L0.5 9L10.675 9L8.1 6.4L9.5 5L14.5 10Z"
      fill="#1C1B1F"
    />
  </svg>