<svg width="50" height="50" viewBox="0 0 50 50" fill="none" xmlns="http://www.w3.org/2000/svg">
<path d="M25 14C18.9346 14 14 18.9656 14 25.0692C14 30.6071 18.0667 35.1947 23.35 36V27.8365H21.15C20.8464 27.8365 20.6 27.5891 20.6 27.283V25.6226C20.6 25.3166 20.8464 25.0692 21.15 25.0692H23.35V23.059C23.35 20.4295 24.6849 18.9811 27.1087 18.9811C28.091 18.9811 28.866 19.0498 28.8984 19.0525C29.1822 19.078 29.4 19.3171 29.4 19.6038V21.4717C29.4 21.7778 29.1536 22.0252 28.85 22.0252H27.75C27.1434 22.0252 26.65 22.5216 26.65 23.1321V25.0692H28.85C29.0079 25.0692 29.158 25.1373 29.2625 25.2563C29.367 25.3758 29.4154 25.5341 29.3962 25.6913L29.1899 27.3516C29.1553 27.6284 28.921 27.8365 28.6438 27.8365H26.65V36C31.9333 35.1947 36 30.6071 36 25.0692C36 18.9656 31.0654 14 25 14Z" fill="#4267B2"/>
<rect x="0.5" y="0.5" width="49" height="49" rx="15.5" stroke="#CACACA"/>
</svg>
