<svg width="50" height="50" viewBox="0 0 50 50" fill="none" xmlns="http://www.w3.org/2000/svg">
<mask id="mask0_72_11389" style="mask-type:alpha" maskUnits="userSpaceOnUse" x="0" y="0" width="50" height="50">
<rect width="50" height="50" fill="#D9D9D9"/>
</mask>
<g mask="url(#mask0_72_11389)">
<path d="M18.7499 41.6667C14.0971 41.6667 10.1562 40.0521 6.927 36.8229C3.69784 33.5938 2.08325 29.6528 2.08325 25C2.08325 20.3472 3.69784 16.4062 6.927 13.1771C10.1562 9.94792 14.0971 8.33333 18.7499 8.33333C23.4027 8.33333 27.3437 9.94792 30.5728 13.1771C33.802 16.4062 35.4166 20.3472 35.4166 25C35.4166 29.6528 33.802 33.5938 30.5728 36.8229C27.3437 40.0521 23.4027 41.6667 18.7499 41.6667ZM18.7499 37.5C22.2221 37.5 25.1735 36.2847 27.6041 33.8542C30.0346 31.4236 31.2499 28.4722 31.2499 25C31.2499 21.5278 30.0346 18.5764 27.6041 16.1458C25.1735 13.7153 22.2221 12.5 18.7499 12.5C15.2777 12.5 12.3263 13.7153 9.89575 16.1458C7.4652 18.5764 6.24992 21.5278 6.24992 25C6.24992 28.4722 7.4652 31.4236 9.89575 33.8542C12.3263 36.2847 15.2777 37.5 18.7499 37.5ZM39.5833 18.75L36.9791 13.0208L31.2499 10.4167L36.9791 7.8125L39.5833 2.08333L42.1874 7.8125L47.9166 10.4167L42.1874 13.0208L39.5833 18.75ZM39.5833 47.9167L36.9791 42.1875L31.2499 39.5833L36.9791 36.9792L39.5833 31.25L42.1874 36.9792L47.9166 39.5833L42.1874 42.1875L39.5833 47.9167Z" fill="white"/>
<path d="M19.1171 33.1818C17.964 33.1818 16.9776 32.9631 16.158 32.5257C15.3383 32.0814 14.7131 31.4392 14.2825 30.5991C13.8518 29.7521 13.6365 28.7315 13.6365 27.5374V23.3821C13.6365 22.188 13.8518 21.1709 14.2825 20.3308C14.7131 19.4838 15.3383 18.8381 16.158 18.3938C16.9776 17.9494 17.964 17.7273 19.1171 17.7273C20.0687 17.7273 20.9196 17.9321 21.6698 18.3417C22.42 18.7513 23.0382 19.3484 23.5245 20.1329C24.0177 20.9105 24.358 21.8513 24.5456 22.9552H21.5865C21.4753 22.4553 21.3017 22.0283 21.0655 21.6742C20.8363 21.3201 20.5549 21.0494 20.2215 20.8619C19.895 20.6745 19.5269 20.5807 19.1171 20.5807C18.5822 20.5807 18.1272 20.6918 17.7521 20.914C17.377 21.1292 17.0888 21.4486 16.8873 21.8721C16.6928 22.2887 16.5956 22.792 16.5956 23.3821V27.5374C16.5956 28.1275 16.6928 28.6308 16.8873 29.0474C17.0888 29.464 17.377 29.7833 17.7521 30.0055C18.1272 30.2207 18.5822 30.3284 19.1171 30.3284C19.5338 30.3284 19.9089 30.2381 20.2424 30.0576C20.5758 29.8701 20.8571 29.5994 21.0863 29.2453C21.3156 28.8912 21.4823 28.4608 21.5865 27.9539H24.5456C24.3511 29.0578 24.0072 30.002 23.514 30.7866C23.0278 31.5642 22.4096 32.1578 21.6594 32.5674C20.9161 32.977 20.0687 33.1818 19.1171 33.1818Z" fill="white"/>
</g>
</svg>
