<svg width="50" height="50" viewBox="0 0 50 50" fill="none" xmlns="http://www.w3.org/2000/svg">
<path d="M34.8055 23.0415H34V23H25V27H30.6515C29.827 29.3285 27.6115 31 25 31C21.6865 31 19 28.3135 19 25C19 21.6865 21.6865 19 25 19C26.5295 19 27.921 19.577 28.9805 20.5195L31.809 17.691C30.023 16.0265 27.634 15 25 15C19.4775 15 15 19.4775 15 25C15 30.5225 19.4775 35 25 35C30.5225 35 35 30.5225 35 25C35 24.3295 34.931 23.675 34.8055 23.0415Z" fill="#FFC107"/>
<path d="M16.1528 20.3455L19.4383 22.755C20.3273 20.554 22.4803 19 24.9998 19C26.5293 19 27.9208 19.577 28.9803 20.5195L31.8088 17.691C30.0228 16.0265 27.6338 15 24.9998 15C21.1588 15 17.8278 17.1685 16.1528 20.3455Z" fill="#FF3D00"/>
<path d="M25.0002 35.0003C27.5832 35.0003 29.9302 34.0118 31.7047 32.4043L28.6097 29.7853C27.6057 30.5458 26.3577 31.0003 25.0002 31.0003C22.3992 31.0003 20.1907 29.3418 19.3587 27.0273L16.0977 29.5398C17.7527 32.7783 21.1137 35.0003 25.0002 35.0003Z" fill="#4CAF50"/>
<path d="M34.8055 23.0415H34V23H25V27H30.6515C30.2555 28.1185 29.536 29.083 28.608 29.7855C28.6085 29.785 28.609 29.785 28.6095 29.7845L31.7045 32.4035C31.4855 32.6025 35 30 35 25C35 24.3295 34.931 23.675 34.8055 23.0415Z" fill="#1976D2"/>
<rect x="0.5" y="0.5" width="49" height="49" rx="15.5" stroke="#CACACA"/>
</svg>
