<svg width="32" height="33" viewBox="0 0 32 33" fill="none"
  xmlns="http://www.w3.org/2000/svg">
  <path fillRule="evenodd" clipRule="evenodd" d="M16 4.5C12.7408 4.5 12.3328 4.5136 11.0528 4.572C9.7752 4.6304 8.9024 4.8336 8.1392 5.1304C7.3392 5.4312 6.6136 5.9032 6.0136 6.5144C5.40338 7.11371 4.93109 7.8388 4.6296 8.6392C4.3344 9.4024 4.1304 10.276 4.072 11.5536C4.0144 12.8328 4 13.24 4 16.5C4 19.76 4.0136 20.1672 4.072 21.4472C4.1304 22.7248 4.3336 23.5976 4.6304 24.3608C4.9312 25.1608 5.4032 25.8864 6.0144 26.4864C6.61372 27.0966 7.33881 27.5689 8.1392 27.8704C8.9024 28.1664 9.7752 28.3696 11.0528 28.428C12.3328 28.4864 12.7408 28.5 16 28.5C19.2592 28.5 19.6672 28.4864 20.9472 28.428C22.2248 28.3696 23.0976 28.1664 23.8608 27.8696C24.6608 27.5688 25.3864 27.0968 25.9864 26.4856C26.5966 25.8863 27.0689 25.1612 27.3704 24.3608C27.6664 23.5976 27.8696 22.7248 27.928 21.4472C27.9864 20.1672 28 19.7592 28 16.5C28 13.2408 27.9864 12.8328 27.928 11.5528C27.8696 10.2752 27.6664 9.4024 27.3696 8.6392C27.0683 7.83845 26.596 7.11306 25.9856 6.5136C25.3863 5.90338 24.6612 5.43109 23.8608 5.1296C23.0976 4.8344 22.224 4.6304 20.9464 4.572C19.6672 4.5144 19.26 4.5 16 4.5ZM16 6.6624C19.204 6.6624 19.584 6.6744 20.8496 6.732C22.0192 6.7856 22.6544 6.98 23.0776 7.1456C23.6376 7.3624 24.0376 7.6232 24.4576 8.0424C24.8776 8.4624 25.1376 8.8624 25.3544 9.4224C25.5192 9.8456 25.7144 10.4808 25.768 11.6504C25.8256 12.916 25.8376 13.296 25.8376 16.5C25.8376 19.704 25.8256 20.084 25.768 21.3496C25.7144 22.5192 25.52 23.1544 25.3544 23.5776C25.1623 24.0988 24.8559 24.5704 24.4576 24.9576C24.0705 25.356 23.5989 25.6624 23.0776 25.8544C22.6544 26.0192 22.0192 26.2144 20.8496 26.268C19.584 26.3256 19.2048 26.3376 16 26.3376C12.7952 26.3376 12.416 26.3256 11.1504 26.268C9.9808 26.2144 9.3456 26.02 8.9224 25.8544C8.40116 25.6623 7.92961 25.3559 7.5424 24.9576C7.14414 24.5704 6.8377 24.0988 6.6456 23.5776C6.4808 23.1544 6.2856 22.5192 6.232 21.3496C6.1744 20.084 6.1624 19.704 6.1624 16.5C6.1624 13.296 6.1744 12.916 6.232 11.6504C6.2856 10.4808 6.48 9.8456 6.6456 9.4224C6.8624 8.8624 7.1232 8.4624 7.5424 8.0424C7.92955 7.64404 8.40113 7.33758 8.9224 7.1456C9.3456 6.9808 9.9808 6.7856 11.1504 6.732C12.416 6.6744 12.796 6.6624 16 6.6624Z" fill="currentColor" />
  <path fillRule="evenodd" clipRule="evenodd" d="M16 20.504C15.4742 20.504 14.9536 20.4004 14.4678 20.1992C13.982 19.998 13.5406 19.703 13.1688 19.3312C12.797 18.9594 12.502 18.518 12.3008 18.0322C12.0996 17.5464 11.996 17.0258 11.996 16.5C11.996 15.9742 12.0996 15.4535 12.3008 14.9677C12.502 14.4819 12.797 14.0405 13.1688 13.6687C13.5406 13.2969 13.982 13.002 14.4678 12.8007C14.9536 12.5995 15.4742 12.496 16 12.496C17.062 12.496 18.0804 12.9178 18.8313 13.6687C19.5822 14.4196 20.004 15.438 20.004 16.5C20.004 17.5619 19.5822 18.5803 18.8313 19.3312C18.0804 20.0821 17.062 20.504 16 20.504ZM16 10.332C14.3642 10.332 12.7953 10.9818 11.6386 12.1385C10.4819 13.2953 9.83203 14.8641 9.83203 16.5C9.83203 18.1358 10.4819 19.7047 11.6386 20.8614C12.7953 22.0181 14.3642 22.668 16 22.668C17.6359 22.668 19.2047 22.0181 20.3615 20.8614C21.5182 19.7047 22.168 18.1358 22.168 16.5C22.168 14.8641 21.5182 13.2953 20.3615 12.1385C19.2047 10.9818 17.6359 10.332 16 10.332ZM23.9624 10.22C23.9624 10.6066 23.8088 10.9775 23.5354 11.2509C23.262 11.5244 22.8911 11.678 22.5044 11.678C22.1177 11.678 21.7469 11.5244 21.4735 11.2509C21.2 10.9775 21.0464 10.6066 21.0464 10.22C21.0464 9.83328 21.2 9.46243 21.4735 9.189C21.7469 8.91557 22.1177 8.76196 22.5044 8.76196C22.8911 8.76196 23.262 8.91557 23.5354 9.189C23.8088 9.46243 23.9624 9.83328 23.9624 10.22Z" fill="currentColor" />
</svg>