<svg width="18" height="18" viewBox="0 0 18 18" fill="none" xmlns="http://www.w3.org/2000/svg">
<path d="M5.05 13.775C5.3 13.775 5.51267 13.6873 5.688 13.512C5.86267 13.3373 5.95 13.125 5.95 12.875C5.95 12.625 5.86267 12.4167 5.688 12.25C5.51267 12.0833 5.3 12 5.05 12C4.8 12 4.59167 12.0833 4.425 12.25C4.25833 12.4167 4.175 12.625 4.175 12.875C4.175 13.125 4.25833 13.3373 4.425 13.512C4.59167 13.6873 4.8 13.775 5.05 13.775ZM5.05 9.875C5.3 9.875 5.51267 9.79167 5.688 9.625C5.86267 9.45833 5.95 9.25 5.95 9C5.95 8.75 5.86267 8.54167 5.688 8.375C5.51267 8.20833 5.3 8.125 5.05 8.125C4.8 8.125 4.59167 8.20833 4.425 8.375C4.25833 8.54167 4.175 8.75 4.175 9C4.175 9.25 4.25833 9.45833 4.425 9.625C4.59167 9.79167 4.8 9.875 5.05 9.875ZM5.05 6C5.3 6 5.51267 5.91667 5.688 5.75C5.86267 5.58333 5.95 5.375 5.95 5.125C5.95 4.875 5.86267 4.66233 5.688 4.487C5.51267 4.31233 5.3 4.225 5.05 4.225C4.8 4.225 4.59167 4.31233 4.425 4.487C4.25833 4.66233 4.175 4.875 4.175 5.125C4.175 5.375 4.25833 5.58333 4.425 5.75C4.59167 5.91667 4.8 6 5.05 6ZM8.1 13.625H13.8V12.125H8.1V13.625ZM8.1 9.75H13.8V8.25H8.1V9.75ZM8.1 5.875H13.8V4.375H8.1V5.875ZM2.3 17.5C1.8 17.5 1.375 17.325 1.025 16.975C0.675 16.625 0.5 16.2 0.5 15.7V2.3C0.5 1.8 0.675 1.375 1.025 1.025C1.375 0.675 1.8 0.5 2.3 0.5H15.7C16.2 0.5 16.625 0.675 16.975 1.025C17.325 1.375 17.5 1.8 17.5 2.3V15.7C17.5 16.2 17.325 16.625 16.975 16.975C16.625 17.325 16.2 17.5 15.7 17.5H2.3ZM2.3 16H15.7C15.7667 16 15.8333 15.9667 15.9 15.9C15.9667 15.8333 16 15.7667 16 15.7V2.3C16 2.23333 15.9667 2.16667 15.9 2.1C15.8333 2.03333 15.7667 2 15.7 2H2.3C2.23333 2 2.16667 2.03333 2.1 2.1C2.03333 2.16667 2 2.23333 2 2.3V15.7C2 15.7667 2.03333 15.8333 2.1 15.9C2.16667 15.9667 2.23333 16 2.3 16Z" fill="currentColor"/>
</svg>
