<svg width="40" height="40" viewBox="0 0 40 40" fill="none" xmlns="http://www.w3.org/2000/svg">
<path d="M25.9655 9.51915C31.005 9.53639 34.1367 15.1115 31.6021 19.5546L28.8229 24.4269L26.0438 29.2993C23.5095 33.7424 17.2098 33.7209 14.7045 29.2606L11.9571 24.3696L9.20999 19.4786C6.70472 15.0182 9.8727 9.46461 14.9126 9.48185L20.4392 9.5005L25.9658 9.51915H25.9655Z" fill="#284792"/>
<path d="M14.7472 10.0053C17.267 5.5538 23.5667 5.5538 26.0865 10.0053L28.8498 14.8869L31.6131 19.7684C34.1329 24.2199 30.9832 29.7845 25.9437 29.7845H14.8904C9.8509 29.7845 6.70086 24.2199 9.22096 19.7684L11.9843 14.8872L14.7472 10.0053Z" fill="#EEA23D"/>
<path d="M21.9004 25.3411C21.8573 26.1381 21.2098 26.7711 20.4174 26.7711C19.6249 26.7711 18.9653 26.1262 18.9336 25.3186C19.4311 25.4136 19.9482 25.4636 20.4784 25.4636C20.9652 25.4636 21.4409 25.4214 21.9004 25.3411Z" fill="white"/>
<path d="M26.8496 21.2577C25.8543 22.9294 23.9638 24.1596 21.7059 24.5033C21.2877 24.567 20.8569 24.6001 20.4167 24.6001C19.9765 24.6001 19.5463 24.567 19.1282 24.5033C16.8699 24.1596 14.9784 22.9291 13.9834 21.2559C13.755 20.872 13.8116 20.3798 14.1173 20.0564C14.9735 19.1517 15.5714 17.9912 15.7904 16.6981C15.8067 16.6035 15.8208 16.5081 15.8325 16.4124C16.0271 15.3188 16.5884 14.356 17.3819 13.6611C18.197 12.9464 19.2575 12.5143 20.417 12.5143C20.4363 12.5143 20.4553 12.5143 20.4743 12.5143C21.5613 12.5277 22.5583 12.9208 23.3442 13.5689C24.1873 14.2635 24.7876 15.2523 24.996 16.3818C25.0101 16.5 25.0274 16.6172 25.0477 16.7329C25.2716 18.0124 25.8667 19.1602 26.715 20.0567C27.021 20.3805 27.0783 20.8731 26.8496 21.2573V21.2577Z" fill="white"/>
<circle cx="20" cy="20" r="19.5" stroke="#DFDFDF"/>
</svg>
