<svg width="75" height="87" viewBox="0 0 75 87" fill="none" xmlns="http://www.w3.org/2000/svg">
<path d="M35.9599 84.5565V65.3265C33.6699 65.3065 31.3899 65.2465 29.1199 65.1365V84.5465C29.1199 85.6665 30.0299 86.5765 31.1499 86.5765H33.9199C35.0499 86.5865 35.9599 85.6765 35.9599 84.5565Z" fill="#FFA500"/>
<path d="M48.1399 73.1165V65.0265C45.8699 65.1565 43.5899 65.2565 41.2999 65.3065V73.1165C41.2999 74.2365 42.2099 75.1465 43.3299 75.1465H46.0999C47.2299 75.1465 48.1399 74.2365 48.1399 73.1165Z" fill="#FFA500"/>
<path d="M74.3799 53.6165C71.2499 41.3965 65.8599 30.1865 58.7199 20.5665C55.8399 16.6765 51.6799 14.1965 47.0999 13.6165C45.7199 13.4365 44.3399 13.3065 42.9399 13.2065V21.3465C44.2599 22.8365 44.9599 24.8865 44.6299 27.1065C44.1599 30.1965 41.5899 32.6665 38.4899 33.0165C34.2299 33.5065 30.6099 30.1765 30.6099 26.0165C30.6099 22.9465 32.5699 20.3465 35.2999 19.3765V19.4765C35.2999 20.6665 36.1099 21.7765 37.2899 21.9665C38.7899 22.2065 40.0799 21.0565 40.0799 19.6065V1.07651C40.0799 0.596513 39.6899 0.206512 39.2099 0.206512H36.1799C35.6999 0.206512 35.3099 0.596513 35.3099 1.07651V12.9965C33.0799 13.0465 30.8699 13.1765 28.6899 13.4065C24.0099 13.8965 19.7299 16.4565 16.7799 20.4265C9.58988 30.0865 4.15988 41.3465 1.01988 53.6265C0.539879 55.5065 1.63988 57.4465 3.41988 57.7965C14.5299 59.9965 25.9699 61.1465 37.6599 61.1465C49.3799 61.1465 60.8499 59.9865 71.9799 57.7865C73.7599 57.4365 74.8699 55.4965 74.3799 53.6165Z" fill="#FFA500"/>
</svg>
