<svg width="25" height="27" viewBox="0 0 25 27" fill="none" xmlns="http://www.w3.org/2000/svg">
    <path
        d="M17.9655 3.51915C23.005 3.53639 26.1367 9.11146 23.6021 13.5546L20.8229 18.4269L18.0438 23.2993C15.5095 27.7424 9.20979 27.7209 6.70453 23.2606L3.95709 18.3696L1.20999 13.4786C-1.29528 9.01821 1.8727 3.46461 6.91255 3.48185L12.4392 3.5005L17.9658 3.51915H17.9655Z"
        fill="#284792" />
    <path
        d="M6.74724 4.00534C9.26699 -0.446198 15.5667 -0.446198 18.0865 4.00534L20.8498 8.88687L23.6131 13.7684C26.1329 18.2199 22.9832 23.7845 17.9437 23.7845H6.89041C1.8509 23.7845 -1.29914 18.2199 1.22096 13.7684L3.98427 8.88722L6.74724 4.00534Z"
        fill="#EEA23D" />
    <path
        d="M13.9004 19.3411C13.8573 20.1381 13.2098 20.7711 12.4174 20.7711C11.6249 20.7711 10.9653 20.1262 10.9336 19.3186C11.4311 19.4136 11.9482 19.4636 12.4784 19.4636C12.9652 19.4636 13.4409 19.4214 13.9004 19.3411Z"
        fill="white" />
    <path
        d="M18.8496 15.2577C17.8543 16.9294 15.9638 18.1596 13.7059 18.5033C13.2877 18.567 12.8569 18.6001 12.4167 18.6001C11.9765 18.6001 11.5463 18.567 11.1282 18.5033C8.8699 18.1596 6.97836 16.9291 5.98343 15.2559C5.75505 14.872 5.81163 14.3798 6.11728 14.0564C6.97353 13.1517 7.57138 11.9912 7.79045 10.6981C7.80666 10.6035 7.8208 10.5081 7.83253 10.4124C8.0271 9.31877 8.58839 8.35604 9.38185 7.6611C10.197 6.94644 11.2575 6.51434 12.417 6.51434C12.4363 6.51434 12.4553 6.51434 12.4743 6.51434C13.5613 6.52771 14.5583 6.92076 15.3442 7.56891C16.1873 8.2635 16.7876 9.25226 16.996 10.3818C17.0101 10.5 17.0274 10.6172 17.0477 10.7329C17.2716 12.0124 17.8667 13.1602 18.715 14.0567C19.021 14.3805 19.0783 14.8731 18.8496 15.2573V15.2577Z"
        fill="white" />
</svg>