<svg width="15" height="15" viewBox="0 0 15 15" fill="none" xmlns="http://www.w3.org/2000/svg">
<mask id="mask0_7665_33422" style="mask-type:alpha" maskUnits="userSpaceOnUse" x="0" y="0" width="15" height="15">
<rect width="15" height="15" fill="#D9D9D9"/>
</mask>
<g mask="url(#mask0_7665_33422)">
<path d="M7.50001 13.4375C6.68591 13.4375 5.91768 13.2814 5.19534 12.9693C4.47299 12.6572 3.84297 12.2324 3.30531 11.6947C2.76765 11.157 2.34278 10.527 2.03068 9.80467C1.71858 9.08233 1.56253 8.3141 1.56253 7.5C1.56253 6.67949 1.71858 5.90966 2.03068 5.19052C2.34278 4.47137 2.76765 3.84296 3.30531 3.3053C3.84297 2.76764 4.47299 2.34277 5.19534 2.03067C5.91768 1.71857 6.68591 1.56252 7.50001 1.56252C8.32052 1.56252 9.09035 1.71857 9.8095 2.03067C10.5286 2.34277 11.157 2.76764 11.6947 3.3053C12.2324 3.84296 12.6572 4.47137 12.9693 5.19052C13.2814 5.90966 13.4375 6.67949 13.4375 7.5C13.4375 8.3141 13.2814 9.08233 12.9693 9.80467C12.6572 10.527 12.2324 11.157 11.6947 11.6947C11.157 12.2324 10.5286 12.6572 9.8095 12.9693C9.09035 13.2814 8.32052 13.4375 7.50001 13.4375ZM7.50001 12.4868C7.81893 12.0637 8.08736 11.637 8.30531 11.2067C8.52326 10.7764 8.70074 10.3061 8.83776 9.79566H6.16226C6.30729 10.3221 6.48678 10.8005 6.70073 11.2308C6.91467 11.6611 7.18109 12.0797 7.50001 12.4868ZM6.2897 12.3149C6.05012 11.9712 5.83497 11.5803 5.64426 11.1424C5.45355 10.7045 5.30531 10.2556 5.19954 9.79566H3.07932C3.40946 10.4447 3.85217 10.99 4.40746 11.4315C4.96277 11.873 5.59018 12.1675 6.2897 12.3149ZM8.71032 12.3149C9.40984 12.1675 10.0373 11.873 10.5926 11.4315C11.1479 10.99 11.5906 10.4447 11.9207 9.79566H9.80048C9.67468 10.2596 9.51642 10.7105 9.32571 11.1484C9.13501 11.5863 8.92988 11.9752 8.71032 12.3149ZM2.68631 8.85819H5.00964C4.97038 8.62581 4.94193 8.39805 4.92431 8.17489C4.90668 7.95172 4.89787 7.72676 4.89787 7.5C4.89787 7.27324 4.90668 7.04828 4.92431 6.82511C4.94193 6.60195 4.97038 6.37419 5.00964 6.14181H2.68631C2.62621 6.35416 2.58014 6.57491 2.54809 6.80408C2.51604 7.03324 2.50001 7.26522 2.50001 7.5C2.50001 7.73478 2.51604 7.96676 2.54809 8.19592C2.58014 8.42509 2.62621 8.64584 2.68631 8.85819ZM5.94712 8.85819H9.0529C9.09216 8.62581 9.12061 8.40005 9.13825 8.18089C9.15587 7.96174 9.16468 7.73478 9.16468 7.5C9.16468 7.26522 9.15587 7.03826 9.13825 6.81911C9.12061 6.59995 9.09216 6.37419 9.0529 6.14181H5.94712C5.90786 6.37419 5.87941 6.59995 5.86178 6.81911C5.84415 7.03826 5.83534 7.26522 5.83534 7.5C5.83534 7.73478 5.84415 7.96174 5.86178 8.18089C5.87941 8.40005 5.90786 8.62581 5.94712 8.85819ZM9.99039 8.85819H12.3137C12.3738 8.64584 12.4199 8.42509 12.4519 8.19592C12.484 7.96676 12.5 7.73478 12.5 7.5C12.5 7.26522 12.484 7.03324 12.4519 6.80408C12.4199 6.57491 12.3738 6.35416 12.3137 6.14181H9.99039C10.0296 6.37419 10.0581 6.60195 10.0757 6.82511C10.0933 7.04828 10.1022 7.27324 10.1022 7.5C10.1022 7.72676 10.0933 7.95172 10.0757 8.17489C10.0581 8.39805 10.0296 8.62581 9.99039 8.85819ZM9.80048 5.20434H11.9207C11.5866 4.54728 11.1468 4.002 10.6016 3.5685C10.0563 3.13501 9.42588 2.83854 8.71032 2.67908C8.94991 3.04286 9.16305 3.4407 9.34975 3.87259C9.53645 4.30449 9.6867 4.74841 9.80048 5.20434ZM6.16226 5.20434H8.83776C8.69273 4.68191 8.51024 4.20053 8.29028 3.76022C8.07033 3.31992 7.80691 2.90425 7.50001 2.51322C7.19311 2.90425 6.92969 3.31992 6.70975 3.76022C6.48979 4.20053 6.30729 4.68191 6.16226 5.20434ZM3.07932 5.20434H5.19954C5.31332 4.74841 5.46357 4.30449 5.65028 3.87259C5.83697 3.4407 6.05012 3.04286 6.2897 2.67908C5.57015 2.83854 4.93873 3.13602 4.39545 3.57152C3.85218 4.00702 3.41347 4.55129 3.07932 5.20434Z" fill="#121212"/>
</g>
</svg>
