<svg width="15" height="15" viewBox="0 0 15 15" fill="none" xmlns="http://www.w3.org/2000/svg">
<mask id="mask0_7665_33427" style="mask-type:alpha" maskUnits="userSpaceOnUse" x="0" y="0" width="15" height="15">
<rect width="15" height="15" fill="#D9D9D9"/>
</mask>
<g mask="url(#mask0_7665_33427)">
<path d="M7.50106 7.41585C7.81205 7.41585 8.07792 7.30513 8.29867 7.08367C8.51942 6.86221 8.62979 6.59599 8.62979 6.285C8.62979 5.97401 8.51906 5.70814 8.29761 5.48739C8.07615 5.26664 7.80992 5.15626 7.49893 5.15626C7.18794 5.15626 6.92207 5.26699 6.70132 5.48845C6.48057 5.70991 6.3702 5.97613 6.3702 6.28712C6.3702 6.59811 6.48093 6.86398 6.70239 7.08473C6.92385 7.30548 7.19007 7.41585 7.50106 7.41585ZM7.5 12.1959C8.72275 11.1014 9.65844 10.0515 10.3071 9.04628C10.9557 8.04107 11.28 7.16066 11.28 6.40504C11.28 5.26563 10.9181 4.32893 10.1941 3.59495C9.47015 2.86097 8.57211 2.49398 7.5 2.49398C6.42788 2.49398 5.52985 2.86097 4.80589 3.59495C4.08193 4.32893 3.71995 5.26563 3.71995 6.40504C3.71995 7.16066 4.04427 8.04107 4.6929 9.04628C5.34155 10.0515 6.27725 11.1014 7.5 12.1959ZM7.5 13.4435C5.92709 12.0805 4.74761 10.8121 3.96154 9.63822C3.17549 8.46434 2.78246 7.38662 2.78246 6.40504C2.78246 4.96275 3.24901 3.79509 4.18211 2.90206C5.11519 2.00903 6.22115 1.56251 7.5 1.56251C8.77884 1.56251 9.8848 2.00903 10.8179 2.90206C11.751 3.79509 12.2175 4.96275 12.2175 6.40504C12.2175 7.38662 11.8245 8.46434 11.0384 9.63822C10.2524 10.8121 9.0729 12.0805 7.5 13.4435Z" fill="#121212"/>
</g>
</svg>
