<svg width="62" height="18" viewBox="0 0 62 18" fill="none" xmlns="http://www.w3.org/2000/svg">
<g clip-path="url(#clip0_7629_45280)">
<g clip-path="url(#clip1_7629_45280)">
<path d="M7.05793 17.5681V13.6713C6.59148 13.6659 6.12681 13.6552 5.66574 13.6338V17.5681C5.66574 17.7965 5.85053 17.9804 6.08017 17.9804H6.6453C6.87494 17.9804 7.05973 17.7965 7.05973 17.5681H7.05793Z" fill="#EFA73B"/>
<path d="M9.53913 15.2493V13.6106C9.07627 13.6374 8.6134 13.657 8.14694 13.6659V15.2493C8.14694 15.4778 8.33173 15.6616 8.56137 15.6616H9.1265C9.35614 15.6616 9.54093 15.4778 9.54093 15.2493H9.53913Z" fill="#EFA73B"/>
<path d="M14.8858 11.2971C14.2471 8.81947 13.1491 6.54887 11.6959 4.5978C11.1093 3.81059 10.2607 3.30721 9.32956 3.18939C9.04968 3.15369 8.76622 3.12692 8.48276 3.10549V4.75667C8.75187 5.05835 8.8954 5.47427 8.82722 5.92232C8.73214 6.54709 8.20827 7.04869 7.57676 7.12009C6.70843 7.21827 5.97287 6.5453 5.97287 5.70097C5.97287 5.07977 6.37294 4.55318 6.9291 4.35504V4.37646C6.9291 4.61744 7.09416 4.84236 7.33456 4.87984C7.63955 4.92982 7.90328 4.69598 7.90328 4.40145V0.649255C7.90328 0.551077 7.82434 0.472534 7.72567 0.472534H7.10672C7.00804 0.472534 6.9291 0.551077 6.9291 0.649255V3.06622C6.47521 3.07515 6.0249 3.10371 5.57997 3.15012C4.62732 3.25008 3.75541 3.76954 3.1544 4.57281C1.68865 6.52924 0.583507 8.81054 -0.0569733 11.3007C-0.155647 11.6827 0.0704051 12.0736 0.432806 12.145C2.69512 12.5895 5.0256 12.8234 7.40812 12.8234C9.79063 12.8234 12.1319 12.5895 14.3978 12.1415C14.7602 12.0701 14.9844 11.6791 14.8858 11.2971Z" fill="#EFA73B"/>
<path d="M21.7621 12.2468V7.42891L25.9512 12.2468H29.3007L24.1733 6.60778L28.8325 1.37756H25.5404L21.7621 5.87234V1.37756H19.114V12.2468H21.7621Z" fill="#0F2C5D"/>
<path d="M40.5477 6.93088C40.5477 9.99939 38.4415 12.4842 34.9664 12.4842C31.4913 12.4842 29.4066 9.99939 29.4066 6.93088C29.4066 3.86236 31.5343 1.37756 34.9449 1.37756C38.3554 1.37756 40.5477 3.88379 40.5477 6.93088ZM32.0564 6.93088C32.0564 8.55171 33.0342 10.0637 34.9664 10.0637C36.8986 10.0637 37.8764 8.55171 37.8764 6.93088C37.8764 5.31005 36.7479 3.77668 34.9664 3.77668C33.0557 3.77668 32.0564 5.33147 32.0564 6.93088Z" fill="#0F2C5D"/>
<path d="M53.0128 6.93088C53.0128 9.99939 50.9066 12.4842 47.4315 12.4842C43.9564 12.4842 41.8717 9.99939 41.8717 6.93088C41.8717 3.86236 43.9995 1.37756 47.41 1.37756C50.8205 1.37756 53.0128 3.88379 53.0128 6.93088ZM44.5215 6.93088C44.5215 8.55171 45.4993 10.0637 47.4315 10.0637C49.3637 10.0637 50.3415 8.55171 50.3415 6.93088C50.3415 5.31005 49.213 3.77668 47.4315 3.77668C45.5208 3.77668 44.5215 5.33147 44.5215 6.93088Z" fill="#0F2C5D"/>
<path d="M57.4873 1.37756H54.8374V12.2468H57.4873V1.37756Z" fill="#0F2C5D"/>
<path d="M61.0018 1.37756H55.1119V4.01409H61.0018V1.37756Z" fill="#0F2C5D"/>
<path d="M21.1054 15.7383C21.0068 15.5741 20.7323 15.417 20.4183 15.417C20.0129 15.417 19.8173 15.5866 19.8173 15.8008C19.8173 16.0525 20.1151 16.1221 20.4632 16.1631C21.0678 16.2381 21.6311 16.3934 21.6311 17.0825C21.6311 17.7251 21.0606 18.0018 20.4147 18.0018C19.8227 18.0018 19.367 17.8197 19.1517 17.2931L19.6074 17.0592C19.7366 17.377 20.0703 17.5162 20.4237 17.5162C20.7771 17.5162 21.0911 17.3966 21.0911 17.0842C21.0911 16.8129 20.8058 16.7005 20.4201 16.6594C19.8281 16.5898 19.2809 16.4327 19.2809 15.7865C19.2809 15.1939 19.8693 14.9511 20.4022 14.9457C20.8525 14.9457 21.3207 15.0743 21.5414 15.5187L21.1072 15.7419L21.1054 15.7383Z" fill="#EFA73B"/>
<path d="M22.8852 17.9269V15.044H23.427V17.9269H22.8852Z" fill="#EFA73B"/>
<path d="M27.2932 15.8383L26.3495 17.0897H26.2419L25.3179 15.833V17.9304H24.7707V15.0475H25.4004L26.3064 16.2882L27.2124 15.0475H27.8368V17.9304H27.2896V15.8383H27.2932Z" fill="#EFA73B"/>
<path d="M30.5476 17.0771H29.7277V17.925H29.1805V15.0421C29.6362 15.0421 30.0919 15.0386 30.5458 15.0386C31.9613 15.0386 31.9667 17.0771 30.5458 17.0771H30.5476ZM29.7277 16.5791H30.5476C31.2473 16.5791 31.2437 15.558 30.5476 15.558H29.7277V16.5791Z" fill="#EFA73B"/>
<path d="M33.3535 15.0421V17.4234H34.8444V17.9268H32.8081V15.0439H33.3553L33.3535 15.0421Z" fill="#EFA73B"/>
<path d="M36.7604 16.2327L37.5301 15.0421H38.1885V15.0671L37.0331 16.7361V17.9268H36.4859V16.7361L35.3718 15.0671V15.0421H36.0212L36.7586 16.2327H36.7604Z" fill="#EFA73B"/>
<path d="M43.2765 15.8794C43.2765 16.1025 43.1688 16.3168 42.8997 16.4364C43.2388 16.5399 43.3626 16.8969 43.3626 17.079C43.3626 17.7216 42.8782 17.9269 42.2772 17.9269H40.9029V15.044H42.2772C42.8477 15.044 43.2747 15.2993 43.2747 15.8794H43.2765ZM41.4429 16.2007H42.279C42.6234 16.2007 42.7347 16.0561 42.7347 15.8919C42.7347 15.7598 42.627 15.5385 42.279 15.5385H41.4429V16.2025V16.2007ZM41.4429 17.4199H42.279C42.5032 17.4199 42.8208 17.3449 42.8208 17.0736C42.8208 16.8023 42.5014 16.6773 42.279 16.6773H41.4429V17.4181V17.4199Z" fill="#EFA73B"/>
<path d="M46.7372 17.9269H44.5682V15.044H46.7372V15.5706H45.11V16.2346H46.6798V16.7416H45.11V17.3931H46.7372V17.9287V17.9269Z" fill="#EFA73B"/>
<path d="M48.9063 15.5366H47.9877V15.0421H50.372V15.5366H49.4535V17.925H48.9063V15.5366Z" fill="#EFA73B"/>
<path d="M52.2791 15.5366H51.3605V15.0421H53.7448V15.5366H52.8262V17.925H52.2791V15.5366Z" fill="#EFA73B"/>
<path d="M57.0656 17.9269H54.8966V15.044H57.0656V15.5706H55.4384V16.2346H57.0082V16.7416H55.4384V17.3931H57.0656V17.9287V17.9269Z" fill="#EFA73B"/>
<path d="M60.8851 17.9268H60.2357L59.3907 16.9629H58.865V17.9268H58.3178V15.0386C58.7771 15.0386 59.2364 15.0421 59.6957 15.0421C60.3792 15.0457 60.7398 15.4991 60.7398 15.9972C60.7398 16.3934 60.5568 16.7915 60.0078 16.904L60.8851 17.8893V17.9268ZM58.865 15.5509V16.4738H59.6975C60.0455 16.4738 60.1944 16.2435 60.1944 16.0132C60.1944 15.7829 60.0419 15.5527 59.6975 15.5527H58.865V15.5509Z" fill="#EFA73B"/>
</g>
</g>
<defs>
<clipPath id="clip0_7629_45280">
<rect width="62" height="18" fill="white"/>
</clipPath>
<clipPath id="clip1_7629_45280">
<rect width="61.0806" height="17.5275" fill="white" transform="translate(-0.0806274 0.472534)"/>
</clipPath>
</defs>
</svg>
