<?xml version="1.0" encoding="utf-8"?>
<!-- Generator: Adobe Illustrator 24.2.3, SVG Export Plug-In . SVG Version: 6.00 Build 0)  -->
<svg version="1.1" id="Layer_1" xmlns="http://www.w3.org/2000/svg" xmlns:xlink="http://www.w3.org/1999/xlink" x="0px" y="0px"
	 viewBox="0 0 360.33 146.74" style="enable-background:new 0 0 360.33 146.74;" xml:space="preserve">
<style type="text/css">
	.st0{fill:#002C61;}
	.st1{fill:#FFA500;}
	.st2{fill:#FFFFFF;}
</style>
<g>
	<g>
		<g>
			<g>
				<path class="st1" d="M65.28,114.48V95.25c-2.29-0.02-4.57-0.08-6.84-0.19v19.41c0,1.12,0.91,2.03,2.03,2.03h2.77
					C64.37,116.51,65.28,115.6,65.28,114.48z"/>
				<path class="st1" d="M77.46,103.04v-8.09c-2.27,0.13-4.55,0.23-6.84,0.28v7.81c0,1.12,0.91,2.03,2.03,2.03h2.77
					C76.55,105.07,77.46,104.16,77.46,103.04z"/>
				<path class="st1" d="M103.7,83.54c-3.13-12.22-8.52-23.43-15.66-33.05c-2.88-3.89-7.04-6.37-11.62-6.95
					c-1.38-0.18-2.76-0.31-4.16-0.41v8.14c1.32,1.49,2.02,3.54,1.69,5.76c-0.47,3.09-3.04,5.56-6.14,5.91
					c-4.26,0.49-7.88-2.84-7.88-7c0-3.07,1.96-5.67,4.69-6.64v0.1c0,1.19,0.81,2.3,1.99,2.49c1.5,0.24,2.79-0.91,2.79-2.36V31
					c0-0.48-0.39-0.87-0.87-0.87H65.5c-0.48,0-0.87,0.39-0.87,0.87v11.92c-2.23,0.05-4.44,0.18-6.62,0.41
					c-4.68,0.49-8.96,3.05-11.91,7.02c-7.19,9.66-12.62,20.92-15.76,33.2c-0.48,1.88,0.62,3.82,2.4,4.17
					c11.11,2.2,22.55,3.35,34.24,3.35c11.72,0,23.19-1.16,34.32-3.36C103.08,87.36,104.19,85.42,103.7,83.54z"/>
			</g>
		</g>
		<g>
			<polygon class="st0" points="137.47,88.22 137.47,64.45 158.03,88.22 174.47,88.22 149.3,60.39 172.18,34.59 156.01,34.59 
				137.47,56.77 137.47,34.59 124.46,34.59 124.46,88.22 			"/>
			<path class="st0" d="M229.69,61.99c0,15.14-10.34,27.4-27.4,27.4S175,77.13,175,61.99c0-15.03,10.45-27.4,27.19-27.4
				S229.69,46.96,229.69,61.99z M188.01,61.99c0,8,4.8,15.46,14.29,15.46c9.49,0,14.29-7.46,14.29-15.46
				c0-7.89-5.54-15.57-14.29-15.57C192.91,46.43,188.01,54.1,188.01,61.99z"/>
			<path class="st0" d="M290.89,61.99c0,15.14-10.34,27.4-27.4,27.4c-17.06,0-27.29-12.26-27.29-27.4c0-15.03,10.45-27.4,27.19-27.4
				S290.89,46.96,290.89,61.99z M249.2,61.99c0,8,4.8,15.46,14.29,15.46c9.49,0,14.29-7.46,14.29-15.46
				c0-7.89-5.54-15.57-14.29-15.57C254.11,46.43,249.2,54.1,249.2,61.99z"/>
			<rect x="299.85" y="34.59" class="st0" width="13.01" height="53.63"/>
			<rect x="301.19" y="34.59" class="st0" width="28.91" height="13.01"/>
		</g>
	</g>
	<g>
		<path class="st1" d="M134.24,105.45c-0.49-0.81-1.83-1.59-3.37-1.59c-1.99,0-2.95,0.83-2.95,1.89c0,1.24,1.46,1.58,3.17,1.79
			c2.97,0.37,5.73,1.14,5.73,4.53c0,3.17-2.8,4.53-5.98,4.53c-2.91,0-5.14-0.89-6.2-3.5l2.24-1.16c0.63,1.56,2.28,2.26,4,2.26
			c1.69,0,3.27-0.59,3.27-2.13c0-1.34-1.4-1.89-3.29-2.09c-2.91-0.35-5.59-1.12-5.59-4.31c0-2.93,2.89-4.13,5.51-4.15
			c2.21,0,4.51,0.63,5.59,2.83L134.24,105.45z"/>
		<path class="st1" d="M142.98,116.25v-14.23h2.66v14.23H142.98z"/>
		<path class="st1" d="M164.62,105.94l-4.63,6.18h-0.53l-4.53-6.2v10.35h-2.68v-14.23h3.09l4.45,6.12l4.45-6.12h3.07v14.23h-2.68
			V105.94z"/>
		<path class="st1" d="M180.59,112.06h-4.02v4.19h-2.68v-14.23c2.24,0,4.47-0.02,6.71-0.02C187.55,102,187.57,112.06,180.59,112.06z
			 M176.57,109.6h4.02c3.43,0,3.41-5.04,0-5.04h-4.02V109.6z"/>
		<path class="st1" d="M194.37,102.02v11.75h7.32v2.48h-10v-14.23H194.37z"/>
		<path class="st1" d="M211.1,107.89l3.78-5.87h3.23v0.12l-5.67,8.23v5.87h-2.68v-5.87l-5.47-8.23v-0.12h3.19L211.1,107.89z"/>
		<path class="st1" d="M243.09,106.15c0,1.1-0.53,2.15-1.85,2.74c1.67,0.51,2.28,2.28,2.28,3.17c0,3.17-2.38,4.19-5.33,4.19
			c-2.26,0-4.49,0-6.75,0v-14.23c2.24,0,4.49,0,6.75,0C240.99,102.02,243.09,103.28,243.09,106.15z M234.08,107.73h4.11
			c1.69,0,2.24-0.71,2.24-1.52c0-0.65-0.53-1.75-2.24-1.75h-4.11V107.73z M234.08,113.75h4.11c1.1,0,2.66-0.37,2.66-1.71
			c0-1.28-1.57-1.95-2.66-1.95h-4.11V113.75z"/>
		<path class="st1" d="M260.08,116.25h-10.65c0-4.74,0-9.49,0-14.23h10.65v2.6h-7.99v3.27h7.7v2.5h-7.7v3.21h7.99V116.25z"/>
		<path class="st1" d="M270.73,104.46h-4.51v-2.44c4.11,0,7.58,0,11.71,0v2.44h-4.51v11.79h-2.68V104.46z"/>
		<path class="st1" d="M287.29,104.46h-4.51v-2.44c4.11,0,7.58,0,11.71,0v2.44h-4.51v11.79h-2.68V104.46z"/>
		<path class="st1" d="M310.78,116.25h-10.65c0-4.74,0-9.49,0-14.23h10.65v2.6h-7.99v3.27h7.7v2.5h-7.7v3.21h7.99V116.25z"/>
		<path class="st1" d="M329.54,116.25h-3.19l-4.15-4.76h-2.58v4.76h-2.68V102c2.26,0,4.51,0.02,6.77,0.02
			c3.35,0.02,5.12,2.26,5.12,4.72c0,1.95-0.89,3.92-3.6,4.47l4.31,4.86V116.25z M319.62,104.52v4.55h4.08
			c1.71,0,2.44-1.14,2.44-2.28c0-1.14-0.75-2.28-2.44-2.28H319.62z"/>
	</g>
</g>
</svg>
