<svg width="115" height="33" viewBox="0 0 115 33" fill="none" xmlns="http://www.w3.org/2000/svg">
<path d="M13.44 32.1866V24.8499C12.5618 24.8398 11.6869 24.8196 10.8188 24.7793V32.1866C10.8188 32.6168 11.1668 32.9629 11.5991 32.9629H12.6631C13.0955 32.9629 13.4434 32.6168 13.4434 32.1866H13.44Z" fill="#EFA73B"/>
<path d="M18.1119 27.8208V24.7356C17.2404 24.786 16.3689 24.823 15.4907 24.8398V27.8208C15.4907 28.251 15.8386 28.5972 16.271 28.5972H17.335C17.7673 28.5972 18.1153 28.251 18.1153 27.8208H18.1119Z" fill="#EFA73B"/>
<path d="M28.1777 20.3801C26.9752 15.7152 24.908 11.4403 22.172 7.76688C21.0675 6.28475 19.4698 5.337 17.7167 5.11519C17.1898 5.04797 16.6561 4.99756 16.1224 4.95723V8.06599C16.6291 8.63398 16.8993 9.41705 16.7709 10.2606C16.5919 11.4369 15.6056 12.3813 14.4166 12.5157C12.7818 12.7006 11.3969 11.4335 11.3969 9.84387C11.3969 8.67431 12.1501 7.68286 13.1972 7.30981V7.35014C13.1972 7.80385 13.508 8.22731 13.9606 8.29789C14.5349 8.392 15.0314 7.95173 15.0314 7.39719V0.332722C15.0314 0.147877 14.8828 0 14.697 0H13.5316C13.3459 0 13.1972 0.147877 13.1972 0.332722V4.88329C12.3427 4.90009 11.4948 4.95387 10.6572 5.04125C8.86355 5.22945 7.22195 6.20745 6.09039 7.71983C3.33074 11.4033 1.25003 15.6984 0.0441614 20.3868C-0.141617 21.106 0.283984 21.842 0.966296 21.9765C5.22568 22.8133 9.61342 23.2536 14.0991 23.2536C18.5848 23.2536 22.9928 22.8133 27.259 21.9698C27.9413 21.8353 28.3635 21.0993 28.1777 20.3801Z" fill="#EFA73B"/>
<path d="M41.1248 22.168V13.0971L49.0119 22.168H55.3182L45.6645 11.5511L54.4366 1.70386H48.2384L41.1248 10.1664V1.70386H36.1392V22.168H41.1248Z" fill="#0F2C5D"/>
<path d="M76.4936 12.1594C76.4936 17.9367 72.5281 22.6149 65.9853 22.6149C59.4426 22.6149 55.5176 17.9367 55.5176 12.1594C55.5176 6.38213 59.5236 1.70386 65.9448 1.70386C72.366 1.70386 76.4936 6.42246 76.4936 12.1594ZM60.5066 12.1594C60.5066 15.211 62.3475 18.0577 65.9853 18.0577C69.6232 18.0577 71.4641 15.211 71.4641 12.1594C71.4641 9.10777 69.3395 6.22081 65.9853 6.22081C62.388 6.22081 60.5066 9.1481 60.5066 12.1594Z" fill="#0F2C5D"/>
<path d="M99.9624 12.1594C99.9624 17.9367 95.9968 22.6149 89.4541 22.6149C82.9113 22.6149 78.9863 17.9367 78.9863 12.1594C78.9863 6.38213 82.9924 1.70386 89.4135 1.70386C95.8347 1.70386 99.9624 6.42246 99.9624 12.1594ZM83.9753 12.1594C83.9753 15.211 85.8162 18.0577 89.4541 18.0577C93.0919 18.0577 94.9328 15.211 94.9328 12.1594C94.9328 9.10777 92.8082 6.22081 89.4541 6.22081C85.8567 6.22081 83.9753 9.1481 83.9753 12.1594Z" fill="#0F2C5D"/>
<path d="M108.386 1.70386H103.397V22.168H108.386V1.70386Z" fill="#0F2C5D"/>
<path d="M115.004 1.70386H103.915V6.6678H115.004V1.70386Z" fill="#0F2C5D"/>
<path d="M39.8884 28.7417C39.7026 28.4325 39.1858 28.1368 38.5947 28.1368C37.8313 28.1368 37.4631 28.4561 37.4631 28.8593C37.4631 29.3332 38.0238 29.4643 38.6791 29.5416C39.8174 29.6828 40.8781 29.9751 40.8781 31.2724C40.8781 32.4823 39.8039 33.0033 38.5879 33.0033C37.4733 33.0033 36.6153 32.6604 36.21 31.669L37.0679 31.2287C37.3111 31.827 37.9394 32.0891 38.6048 32.0891C39.2702 32.0891 39.8613 31.8639 39.8613 31.2758C39.8613 30.7649 39.3243 30.5532 38.5981 30.4759C37.4834 30.3448 36.4532 30.0491 36.4532 28.8325C36.4532 27.7167 37.5611 27.2596 38.5643 27.2495C39.4121 27.2495 40.2937 27.4915 40.7092 28.3283L39.8917 28.7484L39.8884 28.7417Z" fill="#EFA73B"/>
<path d="M43.2393 32.8621V27.4343H44.2593V32.8621H43.2393Z" fill="#EFA73B"/>
<path d="M51.5382 28.93L49.7615 31.286H49.5588L47.8193 28.9199V32.8689H46.7891V27.4412H47.9747L49.6804 29.7769L51.3862 27.4412H52.5617V32.8689H51.5315V28.93H51.5382Z" fill="#EFA73B"/>
<path d="M57.6657 31.2624H56.122V32.8588H55.0918V27.431C55.9498 27.431 56.8077 27.4243 57.6623 27.4243C60.3274 27.4243 60.3375 31.2624 57.6623 31.2624H57.6657ZM56.122 30.3247H57.6657C58.983 30.3247 58.9762 28.4023 57.6657 28.4023H56.122V30.3247Z" fill="#EFA73B"/>
<path d="M62.9487 27.4309V31.9143H65.7557V32.862H61.9219V27.4343H62.9521L62.9487 27.4309Z" fill="#EFA73B"/>
<path d="M69.3629 29.6726L70.812 27.4309H72.0517V27.478L69.8764 30.6203V32.862H68.8461V30.6203L66.7485 27.478V27.4309H67.9713L69.3596 29.6726H69.3629Z" fill="#EFA73B"/>
<path d="M81.6309 29.0072C81.6309 29.4273 81.4283 29.8306 80.9216 30.0558C81.56 30.2507 81.793 30.9229 81.793 31.2657C81.793 32.4756 80.881 32.8621 79.7495 32.8621H77.1621V27.4343H79.7495C80.8236 27.4343 81.6275 27.9149 81.6275 29.0072H81.6309ZM78.1788 29.6121H79.7529C80.4014 29.6121 80.6108 29.3399 80.6108 29.0307C80.6108 28.782 80.4082 28.3653 79.7529 28.3653H78.1788V29.6155V29.6121ZM78.1788 31.9076H79.7529C80.1751 31.9076 80.773 31.7664 80.773 31.2556C80.773 30.7447 80.1717 30.5095 79.7529 30.5095H78.1788V31.9042V31.9076Z" fill="#EFA73B"/>
<path d="M88.1467 32.8621H84.063V27.4343H88.1467V28.4258H85.0831V29.676H88.0386V30.6305H85.0831V31.8572H88.1467V32.8654V32.8621Z" fill="#EFA73B"/>
<path d="M92.2304 28.3619H90.501V27.4309H94.9901V28.3619H93.2606V32.8586H92.2304V28.3619Z" fill="#EFA73B"/>
<path d="M98.5805 28.3619H96.8511V27.4309H101.34V28.3619H99.6107V32.8586H98.5805V28.3619Z" fill="#EFA73B"/>
<path d="M107.593 32.8621H103.509V27.4343H107.593V28.4258H104.529V29.676H107.484V30.6305H104.529V31.8572H107.593V32.8654V32.8621Z" fill="#EFA73B"/>
<path d="M114.784 32.8621H113.561L111.97 31.0473H110.98V32.8621H109.95V27.4243C110.815 27.4243 111.68 27.431 112.544 27.431C113.831 27.4378 114.51 28.2914 114.51 29.2291C114.51 29.9752 114.166 30.7247 113.132 30.9364L114.784 32.7916V32.8621ZM110.98 28.3889V30.1264H112.548C113.203 30.1264 113.483 29.6929 113.483 29.2593C113.483 28.8258 113.196 28.3922 112.548 28.3922H110.98V28.3889Z" fill="#EFA73B"/>
</svg>
