<svg width="15" height="15" viewBox="0 0 15 15" fill="none" xmlns="http://www.w3.org/2000/svg">
<mask id="mask0_7665_33417" style="mask-type:alpha" maskUnits="userSpaceOnUse" x="0" y="0" width="15" height="15">
<rect width="15" height="15" fill="#D9D9D9"/>
</mask>
<g mask="url(#mask0_7665_33417)">
<path d="M2.69234 12.1875C2.37663 12.1875 2.1094 12.0781 1.89065 11.8594C1.6719 11.6406 1.56253 11.3734 1.56253 11.0577V3.94233C1.56253 3.62662 1.6719 3.35939 1.89065 3.14064C2.1094 2.92189 2.37663 2.81252 2.69234 2.81252H12.3077C12.6234 2.81252 12.8906 2.92189 13.1094 3.14064C13.3281 3.35939 13.4375 3.62662 13.4375 3.94233V11.0577C13.4375 11.3734 13.3281 11.6406 13.1094 11.8594C12.8906 12.0781 12.6234 12.1875 12.3077 12.1875H2.69234ZM7.50001 7.84853L2.50001 4.65142V11.0577C2.50001 11.1138 2.51804 11.1598 2.5541 11.1959C2.59017 11.232 2.63625 11.25 2.69234 11.25H12.3077C12.3638 11.25 12.4099 11.232 12.4459 11.1959C12.482 11.1598 12.5 11.1138 12.5 11.0577V4.65142L7.50001 7.84853ZM7.50001 6.875L12.4039 3.75H2.59617L7.50001 6.875ZM2.50001 4.65142V3.75V11.0577C2.50001 11.1138 2.51804 11.1598 2.5541 11.1959C2.59017 11.232 2.63625 11.25 2.69234 11.25H2.50001V4.65142Z" fill="#121212"/>
</g>
</svg>
