<svg xmlns="http://www.w3.org/2000/svg" width="50" height="50" viewBox="0 0 50 50" fill="none">
<rect width="50" height="50" rx="25" fill="#EEA23D"/>
<mask id="mask0_3807_14717" style="mask-type:alpha" maskUnits="userSpaceOnUse" x="11" y="11" width="28" height="28">
<rect x="11.25" y="11.25" width="27.5" height="27.5" fill="#D9D9D9"/>
</mask>
<g mask="url(#mask0_3807_14717)">
<path d="M24.485 31.2736C22.8618 31.1399 21.4917 30.4765 20.3749 29.2833C19.2574 28.0893 18.6986 26.6616 18.6986 25.0002C18.6986 23.2432 19.3097 21.7536 20.5319 20.5314C21.7541 19.3092 23.2437 18.6981 25.0007 18.6981C26.6621 18.6981 28.0898 19.2519 29.2838 20.3595C30.477 21.4672 31.1404 22.8422 31.2741 24.4845L29.4694 23.9403C29.2211 22.909 28.6864 22.0642 27.8652 21.4057C27.0441 20.7464 26.0892 20.4168 25.0007 20.4168C23.7402 20.4168 22.6612 20.8656 21.7637 21.7632C20.8661 22.6608 20.4173 23.7397 20.4173 25.0002C20.4173 26.0887 20.7469 27.0436 21.4062 27.8647C22.0646 28.6859 22.9095 29.2206 23.9408 29.4689L24.485 31.2736ZM25.86 35.8283C25.7263 35.8665 25.5881 35.8856 25.4452 35.8856H25.0007C23.492 35.8856 22.0742 35.5991 20.7473 35.0262C19.4197 34.4533 18.2689 33.6798 17.2949 32.7059C16.321 31.7319 15.5475 30.5811 14.9746 29.2535C14.4017 27.9266 14.1152 26.5088 14.1152 25.0002C14.1152 23.4915 14.4017 22.0733 14.9746 20.7457C15.5475 19.4188 16.321 18.2684 17.2949 17.2944C18.2689 16.3205 19.4197 15.547 20.7473 14.9741C22.0742 14.4012 23.492 14.1147 25.0007 14.1147C26.5093 14.1147 27.9275 14.4012 29.2551 14.9741C30.582 15.547 31.7324 16.3205 32.7064 17.2944C33.6803 18.2684 34.4538 19.4188 35.0267 20.7457C35.5996 22.0733 35.8861 23.4915 35.8861 25.0002V25.415C35.8861 25.5586 35.867 25.7068 35.8288 25.8595L34.1673 25.3439V25.0002C34.1673 22.4411 33.2793 20.2736 31.5033 18.4976C29.7272 16.7215 27.5597 15.8335 25.0007 15.8335C22.4416 15.8335 20.2741 16.7215 18.498 18.4976C16.722 20.2736 15.834 22.4411 15.834 25.0002C15.834 27.5592 16.722 29.7267 18.498 31.5028C20.2741 33.2788 22.4416 34.1668 25.0007 34.1668H25.3444L25.86 35.8283ZM34.3392 36.0575L29.1257 30.8439L27.8939 34.5965L25.0007 25.0002L34.597 27.8934L30.8444 29.1252L36.0579 34.3387L34.3392 36.0575Z" fill="white"/>
</g>
</svg>