<svg width="63" height="62" viewBox="0 0 63 62" fill="none" xmlns="http://www.w3.org/2000/svg">
<rect x="0.332031" width="62" height="62" rx="31" fill="#D5E3F7"/>
<mask id="mask0_11316_41075" style="mask-type:alpha" maskUnits="userSpaceOnUse" x="15" y="15" width="33" height="32">
<rect x="15.332" y="15" width="32" height="32" fill="#D9D9D9"/>
</mask>
<g mask="url(#mask0_11316_41075)">
<path d="M24.8193 37.8201C24.4851 37.8201 24.2049 37.707 23.9789 37.481C23.7528 37.2549 23.6398 36.9748 23.6398 36.6406V34.6406H40.1397L40.5628 35.0637V22.9996H42.5628C42.897 22.9996 43.1771 23.1127 43.4032 23.3387C43.6292 23.5648 43.7423 23.8449 43.7423 24.1791V42.538L39.0244 37.8201H24.8193ZM18.9219 36.6919V19.5125C18.9219 19.1783 19.0349 18.8982 19.261 18.6721C19.487 18.446 19.7672 18.333 20.1014 18.333H36.7167C37.0509 18.333 37.331 18.446 37.5571 18.6721C37.7831 18.8982 37.8962 19.1783 37.8962 19.5125V30.7945C37.8962 31.1287 37.7831 31.4088 37.5571 31.6349C37.331 31.8609 37.0509 31.974 36.7167 31.974H23.6398L18.9219 36.6919ZM35.8962 29.974V20.333H20.9218V30.8972L21.845 29.974H35.8962Z" fill="#274593"/>
</g>
</svg>
