 <svg
    xmlns="http://www.w3.org/2000/svg"
    width="24"
    height="24"
    viewBox="0 0 24 24"
    fill="none"
  >
    <circle cx="12" cy="12" r="12" fill="#FEEFD3" />
    <mask
      id="mask0_72_11558"
      maskUnits="userSpaceOnUse"
      x="4"
      y="4"
      width="16"
      height="16"
    >
      <rect x="4" y="4" width="16" height="16" fill="#D9D9D9" />
    </mask>
    <g mask="url(#mask0_72_11558)">
      <path
        d="M16.0431 17.0284C15.2598 17.6852 14.3672 17.9695 13.3654 17.8814C12.3636 17.7934 11.5343 17.3577 10.8776 16.5743L6.38025 11.2102C5.90911 10.6482 5.70587 9.99939 5.77054 9.26369C5.83521 8.528 6.14852 7.92457 6.71048 7.45343C7.27244 6.98228 7.92127 6.77904 8.65697 6.84371C9.39266 6.90838 9.99609 7.2217 10.4672 7.78366L14.5362 12.6369C14.836 12.9946 14.966 13.4003 14.9261 13.8543C14.8862 14.3082 14.6874 14.6851 14.3298 14.9849C13.9722 15.2847 13.5664 15.4147 13.1125 15.3748C12.6586 15.3349 12.2817 15.1361 11.9819 14.7785L7.91287 9.92523L8.67918 9.28276L12.7482 14.136C12.8695 14.2808 13.0202 14.3609 13.2003 14.3764C13.3802 14.3926 13.5426 14.34 13.6874 14.2186C13.8321 14.0973 13.9124 13.9464 13.9283 13.7661C13.9441 13.5864 13.8913 13.4242 13.7699 13.2794L9.70092 8.42613C9.4011 8.06852 9.02422 7.86976 8.57028 7.82986C8.11634 7.78996 7.71057 7.91992 7.35295 8.21974C6.99534 8.51956 6.79659 8.89644 6.75668 9.35038C6.71678 9.80432 6.84674 10.2101 7.14656 10.5677L11.6439 15.9319C12.115 16.4938 12.7184 16.8071 13.4541 16.8718C14.1898 16.9365 14.8387 16.7332 15.4006 16.2621C15.9626 15.791 16.2759 15.1875 16.3406 14.4518C16.4052 13.7161 16.202 13.0673 15.7308 12.5053L11.2335 7.14118L11.9998 6.49871L16.4972 11.8629C17.1539 12.6462 17.4383 13.5388 17.3502 14.5406C17.2621 15.5424 16.8264 16.3717 16.0431 17.0284Z"
        fill="#EEA23D"
      />
    </g>
  </svg>