<svg xmlns="http://www.w3.org/2000/svg" width="50" height="50" viewBox="0 0 50 50" fill="none">
<rect width="50" height="50" rx="25" fill="#EEA23D"/>
<mask id="mask0_3807_14733" style="mask-type:alpha" maskUnits="userSpaceOnUse" x="11" y="11" width="28" height="28">
<rect x="11.25" y="11.25" width="27.5" height="27.5" fill="#D9D9D9"/>
</mask>
<g mask="url(#mask0_3807_14733)">
<path d="M25.0007 25.0002C23.7402 25.0002 22.6612 24.5514 21.7637 23.6538C20.8661 22.7562 20.4173 21.6772 20.4173 20.4168C20.4173 19.1564 20.8661 18.0774 21.7637 17.1799C22.6612 16.2823 23.7402 15.8335 25.0007 15.8335C26.2611 15.8335 27.3401 16.2823 28.2376 17.1799C29.1352 18.0774 29.584 19.1564 29.584 20.4168C29.584 21.6772 29.1352 22.7562 28.2376 23.6538C27.3401 24.5514 26.2611 25.0002 25.0007 25.0002ZM15.834 34.1668V30.9585C15.834 30.3092 16.0013 29.7122 16.3359 29.1676C16.6697 28.6237 17.1135 28.2085 17.6673 27.922C18.8513 27.33 20.0545 26.8858 21.2767 26.5894C22.4989 26.2938 23.7402 26.146 25.0007 26.146C26.2611 26.146 27.5024 26.2938 28.7246 26.5894C29.9468 26.8858 31.15 27.33 32.334 27.922C32.8878 28.2085 33.3316 28.6237 33.6654 29.1676C34 29.7122 34.1673 30.3092 34.1673 30.9585V34.1668H15.834ZM18.1257 31.8752H31.8757V30.9585C31.8757 30.7484 31.8233 30.5575 31.7187 30.3856C31.6133 30.2137 31.4746 30.08 31.3027 29.9845C30.2715 29.4689 29.2307 29.082 28.1803 28.8238C27.13 28.5664 26.0701 28.4377 25.0007 28.4377C23.9312 28.4377 22.8713 28.5664 21.821 28.8238C20.7706 29.082 19.7298 29.4689 18.6986 29.9845C18.5267 30.08 18.3884 30.2137 18.2838 30.3856C18.1784 30.5575 18.1257 30.7484 18.1257 30.9585V31.8752ZM25.0007 22.7085C25.6309 22.7085 26.1705 22.4839 26.6197 22.0347C27.0681 21.5863 27.2923 21.047 27.2923 20.4168C27.2923 19.7866 27.0681 19.2473 26.6197 18.7989C26.1705 18.3497 25.6309 18.1252 25.0007 18.1252C24.3704 18.1252 23.8311 18.3497 23.3827 18.7989C22.9336 19.2473 22.709 19.7866 22.709 20.4168C22.709 21.047 22.9336 21.5863 23.3827 22.0347C23.8311 22.4839 24.3704 22.7085 25.0007 22.7085Z" fill="white"/>
</g>
</svg>