<svg width="18" height="18" viewBox="0 0 18 18" fill="none" xmlns="http://www.w3.org/2000/svg">
<path d="M16.0114 8.8846C15.9537 6.96665 15.2553 5.33813 13.9162 3.99903C12.5771 2.65993 10.9486 1.96153 9.03061 1.90383V0.403877C10.1973 0.429511 11.2896 0.66861 12.3075 1.12118C13.3255 1.57374 14.2146 2.18015 14.9748 2.9404C15.7351 3.70065 16.3415 4.58975 16.794 5.6077C17.2466 6.62564 17.4857 7.71793 17.5113 8.8846H16.0114ZM12.0114 8.8846C11.9537 8.08332 11.6428 7.39903 11.0787 6.83173C10.5146 6.26441 9.8319 5.95511 9.03061 5.90383V4.40388C10.2473 4.45516 11.2838 4.9106 12.1402 5.7702C12.9966 6.62982 13.4536 7.66795 13.5113 8.8846H12.0114ZM16.4036 17.5961C14.4588 17.5961 12.5328 17.1346 10.6258 16.2115C8.71875 15.2884 7.0162 14.0779 5.51814 12.5798C4.02005 11.0817 2.80788 9.38076 1.88161 7.47693C0.955329 5.57309 0.492188 3.64874 0.492188 1.70388C0.492188 1.40388 0.592188 1.15388 0.792188 0.953877C0.992188 0.753877 1.24219 0.653877 1.54219 0.653877H4.80366C5.06265 0.653877 5.28861 0.733685 5.48156 0.893302C5.6745 1.05292 5.79405 1.25901 5.84021 1.51158L6.41329 4.45385C6.45302 4.7 6.44885 4.92372 6.40079 5.125C6.3527 5.32629 6.24725 5.50193 6.08444 5.65193L3.78444 7.9C4.57419 9.24104 5.51586 10.4526 6.60946 11.5346C7.70305 12.6167 8.94087 13.5603 10.3229 14.3654L12.5575 12.0923C12.7204 11.9295 12.913 11.8138 13.1354 11.7452C13.3578 11.6766 13.5857 11.6622 13.8191 11.702L16.5959 12.2673C16.8485 12.3237 17.0546 12.4459 17.2142 12.6337C17.3738 12.8215 17.4536 13.0449 17.4536 13.3039V16.5461C17.4536 16.8461 17.3536 17.0961 17.1536 17.2961C16.9536 17.4961 16.7036 17.5961 16.4036 17.5961ZM3.06524 6.4808L4.84986 4.7731C4.88191 4.74745 4.90275 4.71219 4.91236 4.66733C4.92198 4.62244 4.92037 4.58078 4.90754 4.54233L4.47294 2.3077C4.4601 2.25642 4.43766 2.21796 4.40561 2.19233C4.37356 2.16668 4.3319 2.15385 4.28061 2.15385H2.14216C2.1037 2.15385 2.07164 2.16668 2.04599 2.19233C2.02035 2.21796 2.00754 2.25001 2.00754 2.28848C2.0588 2.97181 2.17066 3.66604 2.34311 4.37118C2.51555 5.07631 2.75625 5.77952 3.06524 6.4808ZM11.7267 15.0654C12.3896 15.3744 13.0809 15.6106 13.8008 15.7741C14.5207 15.9375 15.1934 16.0346 15.8191 16.0654C15.8575 16.0654 15.8896 16.0526 15.9152 16.0269C15.9409 16.0013 15.9537 15.9692 15.9537 15.9308V13.8269C15.9537 13.7756 15.9409 13.734 15.9152 13.7019C15.8896 13.6699 15.8511 13.6474 15.7998 13.6346L13.6998 13.2077C13.6614 13.1949 13.6277 13.1933 13.5989 13.2029C13.57 13.2125 13.5396 13.2333 13.5075 13.2654L11.7267 15.0654Z" fill="currentColor"/>
</svg>
