<svg xmlns="http://www.w3.org/2000/svg" width="50" height="50" viewBox="0 0 50 50" fill="none">
<rect width="50" height="50" rx="25" fill="#EEA23D"/>
<mask id="mask0_3807_14709" style="mask-type:alpha" maskUnits="userSpaceOnUse" x="11" y="11" width="28" height="28">
<rect x="11.25" y="11.25" width="27.5" height="27.5" fill="#D9D9D9"/>
</mask>
<g mask="url(#mask0_3807_14709)">
<path d="M25.5723 35.4559L25.4004 32.4481H24.4264C21.8674 32.4481 19.6999 31.5601 17.9238 29.784C16.1478 28.008 15.2598 25.8404 15.2598 23.2814C15.2598 20.7224 16.1478 18.5549 17.9238 16.7788C19.6999 15.0028 21.8674 14.1147 24.4264 14.1147C25.7059 14.1147 26.8995 14.3535 28.0072 14.8309C29.1148 15.3083 30.0842 15.9626 30.9153 16.7937C31.7456 17.6241 32.3995 18.593 32.877 19.7007C33.3544 20.8083 33.5931 22.0019 33.5931 23.2814C33.5931 24.58 33.3926 25.8259 32.9915 27.0191C32.5905 28.2131 32.0317 29.3352 31.3152 30.3856C30.5994 31.4359 29.7546 32.3908 28.7806 33.2502C27.8066 34.1095 26.7372 34.8448 25.5723 35.4559ZM27.291 32.2762C28.6469 31.1304 29.7496 29.789 30.599 28.252C31.4492 26.7143 31.8743 25.0575 31.8743 23.2814C31.8743 21.1998 31.1536 19.4379 29.7122 17.9957C28.2699 16.5542 26.508 15.8335 24.4264 15.8335C22.3448 15.8335 20.5833 16.5542 19.1418 17.9957C17.6996 19.4379 16.9785 21.1998 16.9785 23.2814C16.9785 25.363 17.6996 27.1249 19.1418 28.5671C20.5833 30.0086 22.3448 30.7293 24.4264 30.7293H27.291V32.2762ZM24.4264 29.3257C24.7129 29.3257 24.9516 29.2252 25.1426 29.0243C25.3336 28.8242 25.429 28.5904 25.429 28.3231C25.429 28.0366 25.3336 27.7929 25.1426 27.592C24.9516 27.3919 24.7129 27.2918 24.4264 27.2918C24.14 27.2918 23.9013 27.3919 23.7103 27.592C23.5193 27.7929 23.4238 28.0366 23.4238 28.3231C23.4238 28.5904 23.5193 28.8242 23.7103 29.0243C23.9013 29.2252 24.14 29.3257 24.4264 29.3257ZM23.7676 25.8309H25.1426C25.1426 25.3153 25.2094 24.9284 25.3431 24.6702C25.4768 24.4127 25.8396 23.988 26.4316 23.396C26.7754 23.0713 27.0523 22.723 27.2624 22.351C27.4724 21.9782 27.5775 21.5627 27.5775 21.1043C27.5775 20.2068 27.2673 19.5193 26.6471 19.0418C26.026 18.5644 25.2954 18.3257 24.4551 18.3257C23.6721 18.3257 23.0132 18.5407 22.4785 18.9708C21.9438 19.4001 21.5618 19.9108 21.3327 20.5028L22.6217 21.0184C22.7363 20.6746 22.9368 20.355 23.2233 20.0593C23.5098 19.7629 23.9204 19.6147 24.4551 19.6147C25.028 19.6147 25.4577 19.7771 25.7441 20.1017C26.0306 20.4264 26.1738 20.7797 26.1738 21.1616C26.1738 21.5054 26.0783 21.8063 25.8874 22.0645C25.6964 22.322 25.4481 22.6035 25.1426 22.909C24.5315 23.4246 24.1495 23.8639 23.9967 24.2267C23.844 24.5896 23.7676 25.1243 23.7676 25.8309Z" fill="white"/>
</g>
</svg>