<svg xmlns="http://www.w3.org/2000/svg" width="18" height="20" viewBox="0 0 18 20" fill="none">
<path d="M3 19.5C2.3 19.5 1.70833 19.2583 1.225 18.775C0.741667 18.2916 0.5 17.7 0.5 17V14.5H3.5V0.699951L4.875 1.87495L6.3 0.699951L7.7 1.87495L9.1 0.699951L10.5 1.87495L11.9 0.699951L13.3 1.87495L14.7 0.699951L16.125 1.87495L17.5 0.699951V17C17.5 17.7 17.2583 18.2916 16.775 18.775C16.2917 19.2583 15.7 19.5 15 19.5H3ZM15 18C15.2833 18 15.5207 17.9039 15.712 17.712C15.904 17.5206 16 17.2833 16 17V2.99995H5V14.5H14V17C14 17.2833 14.096 17.5206 14.288 17.712C14.4793 17.9039 14.7167 18 15 18ZM6.2 6.74995V5.24995H11.875V6.74995H6.2ZM6.2 9.74995V8.24995H11.875V9.74995H6.2ZM13.95 6.87495C13.7 6.87495 13.4873 6.79162 13.312 6.62495C13.1373 6.45828 13.05 6.24995 13.05 5.99995C13.05 5.74995 13.1373 5.54162 13.312 5.37495C13.4873 5.20828 13.7 5.12495 13.95 5.12495C14.1833 5.12495 14.3873 5.20828 14.562 5.37495C14.7373 5.54162 14.825 5.74995 14.825 5.99995C14.825 6.24995 14.7373 6.45828 14.562 6.62495C14.3873 6.79162 14.1833 6.87495 13.95 6.87495ZM13.95 9.87495C13.7 9.87495 13.4873 9.79162 13.312 9.62495C13.1373 9.45828 13.05 9.24995 13.05 8.99995C13.05 8.74995 13.1373 8.54162 13.312 8.37495C13.4873 8.20828 13.7 8.12495 13.95 8.12495C14.1833 8.12495 14.3873 8.20828 14.562 8.37495C14.7373 8.54162 14.825 8.74995 14.825 8.99995C14.825 9.24995 14.7373 9.45828 14.562 9.62495C14.3873 9.79162 14.1833 9.87495 13.95 9.87495ZM3 18H12.5V16H2V17C2 17.2833 2.09567 17.5206 2.287 17.712C2.479 17.9039 2.71667 18 3 18Z" fill="white"/>
</svg>