<svg width="20" height="20" viewBox="0 0 20 20" fill="none" xmlns="http://www.w3.org/2000/svg">
<mask id="mask0_11316_40430" style="mask-type:alpha" maskUnits="userSpaceOnUse" x="0" y="0" width="20" height="20">
<rect width="20" height="20" fill="#D9D9D9"/>
</mask>
<g mask="url(#mask0_11316_40430)">
<path d="M11.5224 17.9165V15.7146L16.0464 11.2114C16.1501 11.1131 16.2619 11.0416 16.3821 10.9967C16.5022 10.9518 16.6223 10.9294 16.7425 10.9294C16.8735 10.9294 17.0003 10.954 17.1227 11.0031C17.2452 11.0523 17.3565 11.126 17.4567 11.2243L18.2275 12.0031C18.3172 12.1067 18.3867 12.2189 18.4358 12.3396C18.485 12.4604 18.5095 12.5811 18.5095 12.7018C18.5095 12.8225 18.4871 12.9454 18.4423 13.0704C18.3974 13.1954 18.3258 13.3097 18.2275 13.4133L13.7243 17.9165H11.5224ZM12.516 16.923H13.3076L16.0128 14.205L15.6378 13.8009L15.242 13.4181L12.516 16.1313V16.923ZM5.25642 17.9165C4.83547 17.9165 4.47917 17.7707 4.1875 17.479C3.89583 17.1874 3.75 16.8311 3.75 16.4101V3.58967C3.75 3.16873 3.89583 2.81242 4.1875 2.52075C4.47917 2.22909 4.83547 2.08325 5.25642 2.08325H11.875L16.25 6.45821V8.78994H15V7.08321H11.25V3.33323H5.25642C5.19231 3.33323 5.13353 3.35994 5.0801 3.41336C5.02669 3.46679 4.99998 3.52556 4.99998 3.58967V16.4101C4.99998 16.4742 5.02669 16.533 5.0801 16.5864C5.13353 16.6399 5.19231 16.6666 5.25642 16.6666H9.69548V17.9165H5.25642ZM15.6378 13.8009L15.242 13.4181L16.0128 14.205L15.6378 13.8009Z" fill="#EEA23D"/>
</g>
</svg>
