<svg width="43" height="42" viewBox="0 0 43 42" fill="none" xmlns="http://www.w3.org/2000/svg">
<path d="M28.6251 30.7917L31.5417 27.875L23.8334 20.1667V10.5833H19.6667V21.8333L28.6251 30.7917ZM21.7501 41.8333C18.8681 41.8333 16.1598 41.2861 13.6251 40.1917C11.0904 39.0986 8.8855 37.6146 7.0105 35.7396C5.1355 33.8646 3.65147 31.6597 2.55841 29.125C1.46397 26.5903 0.916748 23.8819 0.916748 21C0.916748 18.1181 1.46397 15.4097 2.55841 12.875C3.65147 10.3403 5.1355 8.13542 7.0105 6.26042C8.8855 4.38542 11.0904 2.9007 13.6251 1.80625C16.1598 0.713196 18.8681 0.166668 21.7501 0.166668C24.632 0.166668 27.3404 0.713196 29.8751 1.80625C32.4098 2.9007 34.6147 4.38542 36.4897 6.26042C38.3647 8.13542 39.8487 10.3403 40.9417 12.875C42.0362 15.4097 42.5834 18.1181 42.5834 21C42.5834 23.8819 42.0362 26.5903 40.9417 29.125C39.8487 31.6597 38.3647 33.8646 36.4897 35.7396C34.6147 37.6146 32.4098 39.0986 29.8751 40.1917C27.3404 41.2861 24.632 41.8333 21.7501 41.8333ZM21.7501 37.6667C26.3681 37.6667 30.3008 36.0438 33.548 32.7979C36.7938 29.5507 38.4167 25.6181 38.4167 21C38.4167 16.3819 36.7938 12.4493 33.548 9.20208C30.3008 5.95625 26.3681 4.33333 21.7501 4.33333C17.132 4.33333 13.2001 5.95625 9.95425 9.20208C6.70703 12.4493 5.08341 16.3819 5.08341 21C5.08341 25.6181 6.70703 29.5507 9.95425 32.7979C13.2001 36.0438 17.132 37.6667 21.7501 37.6667Z" fill="white"/>
</svg>
