<svg width="62" height="62" viewBox="0 0 62 62" fill="none" xmlns="http://www.w3.org/2000/svg">
<rect width="62" height="62" rx="31" fill="#D5E3F7"/>
<mask id="mask0_11316_41045" style="mask-type:alpha" maskUnits="userSpaceOnUse" x="15" y="15" width="32" height="32">
<rect x="15" y="15" width="32" height="32" fill="#D9D9D9"/>
</mask>
<g mask="url(#mask0_11316_41045)">
<path d="M43.3486 44.7437L39.4409 40.8693C39.058 41.1309 38.6431 41.3292 38.1961 41.4642C37.7491 41.5993 37.2811 41.6668 36.7922 41.6668C35.449 41.6668 34.2991 41.189 33.3425 40.2334C32.3859 39.2779 31.9076 38.1292 31.9076 36.7873C31.9076 35.4454 32.3854 34.2972 33.341 33.3425C34.2966 32.3878 35.4453 31.9104 36.7871 31.9104C38.129 31.9104 39.2772 32.3875 40.2319 33.3415C41.1866 34.2956 41.664 35.4425 41.664 36.7822C41.664 37.2841 41.5931 37.7587 41.4512 38.2061C41.3093 38.6534 41.1076 39.0685 40.846 39.4514L44.7409 43.3386L43.3486 44.7437ZM22.5358 41.6796C21.1961 41.6796 20.0492 41.2022 19.0952 40.2476C18.1411 39.2929 17.6641 38.1377 17.6641 36.7822C17.6641 35.4425 18.1411 34.2956 19.0952 33.3415C20.0492 32.3875 21.1961 31.9104 22.5358 31.9104C23.8914 31.9104 25.0465 32.3875 26.0012 33.3415C26.9559 34.2956 27.4332 35.4425 27.4332 36.7822C27.4332 38.1377 26.9559 39.2929 26.0012 40.2476C25.0465 41.2022 23.8914 41.6796 22.5358 41.6796ZM22.5358 39.6797C23.3461 39.6797 24.0316 39.3993 24.5923 38.8386C25.153 38.2779 25.4333 37.5925 25.4333 36.7822C25.4333 35.9924 25.153 35.3164 24.5923 34.754C24.0316 34.1916 23.3461 33.9104 22.5358 33.9104C21.7461 33.9104 21.07 34.1916 20.5076 34.754C19.9452 35.3164 19.664 35.9924 19.664 36.7822C19.664 37.5925 19.9452 38.2779 20.5076 38.8386C21.07 39.3993 21.7461 39.6797 22.5358 39.6797ZM36.7922 39.6797C37.582 39.6797 38.258 39.3993 38.8204 38.8386C39.3828 38.2779 39.664 37.5925 39.664 36.7822C39.664 35.9924 39.3828 35.3164 38.8204 34.754C38.258 34.1916 37.582 33.9104 36.7922 33.9104C35.982 33.9104 35.2965 34.1916 34.7358 34.754C34.1751 35.3164 33.8948 35.9924 33.8948 36.7822C33.8948 37.5925 34.1751 38.2779 34.7358 38.8386C35.2965 39.3993 35.982 39.6797 36.7922 39.6797ZM22.5358 27.4489C21.1961 27.4489 20.0492 26.9715 19.0952 26.0168C18.1411 25.0621 17.6641 23.907 17.6641 22.5515C17.6641 21.2117 18.1411 20.0648 19.0952 19.1108C20.0492 18.1567 21.1961 17.6797 22.5358 17.6797C23.8914 17.6797 25.0465 18.1567 26.0012 19.1108C26.9559 20.0648 27.4332 21.2117 27.4332 22.5515C27.4332 23.907 26.9559 25.0621 26.0012 26.0168C25.0465 26.9715 23.8914 27.4489 22.5358 27.4489ZM36.7922 27.4489C35.4367 27.4489 34.2816 26.9715 33.3269 26.0168C32.3722 25.0621 31.8948 23.907 31.8948 22.5515C31.8948 21.2117 32.3722 20.0648 33.3269 19.1108C34.2816 18.1567 35.4367 17.6797 36.7922 17.6797C38.132 17.6797 39.2789 18.1567 40.2329 19.1108C41.187 20.0648 41.664 21.2117 41.664 22.5515C41.664 23.907 41.187 25.0621 40.2329 26.0168C39.2789 26.9715 38.132 27.4489 36.7922 27.4489ZM22.5358 25.4489C23.3461 25.4489 24.0316 25.1686 24.5923 24.6079C25.153 24.0472 25.4333 23.3617 25.4333 22.5515C25.4333 21.7617 25.153 21.0856 24.5923 20.5233C24.0316 19.9609 23.3461 19.6797 22.5358 19.6797C21.7461 19.6797 21.07 19.9609 20.5076 20.5233C19.9452 21.0856 19.664 21.7617 19.664 22.5515C19.664 23.3617 19.9452 24.0472 20.5076 24.6079C21.07 25.1686 21.7461 25.4489 22.5358 25.4489ZM36.7922 25.4489C37.582 25.4489 38.258 25.1686 38.8204 24.6079C39.3828 24.0472 39.664 23.3617 39.664 22.5515C39.664 21.7617 39.3828 21.0856 38.8204 20.5233C38.258 19.9609 37.582 19.6797 36.7922 19.6797C35.982 19.6797 35.2965 19.9609 34.7358 20.5233C34.1751 21.0856 33.8948 21.7617 33.8948 22.5515C33.8948 23.3617 34.1751 24.0472 34.7358 24.6079C35.2965 25.1686 35.982 25.4489 36.7922 25.4489Z" fill="#274593"/>
</g>
</svg>
