<svg xmlns="http://www.w3.org/2000/svg" width="28" height="21" viewBox="0 0 28 21" fill="none">
<path d="M28 2.48586C26.9699 2.90758 25.8626 3.19247 24.7008 3.32064C25.8867 2.66455 26.7977 1.62563 27.2265 0.387611C26.1164 0.995252 24.8871 1.43635 23.5785 1.67408C22.5308 0.643688 21.0378 0 19.3855 0C16.2131 0 13.6409 2.37358 13.6409 5.30132C13.6409 5.71684 13.6917 6.12151 13.7897 6.5095C9.01541 6.28844 4.78264 4.17778 1.94932 0.970313C1.45484 1.75328 1.17147 2.66391 1.17147 3.63551C1.17147 5.47485 2.18564 7.0975 3.72704 8.04818C2.7854 8.02066 1.89962 7.78215 1.12513 7.38511C1.12448 7.4072 1.12448 7.42943 1.12448 7.45178C1.12448 10.0203 3.10465 12.1629 5.73259 12.6503C5.25057 12.7715 4.74307 12.8362 4.21918 12.8362C3.84903 12.8362 3.48923 12.8028 3.13839 12.7411C3.86947 14.8472 5.99089 16.38 8.50473 16.4226C6.53871 17.8446 4.06183 18.6922 1.37032 18.6922C0.906641 18.6922 0.449401 18.667 0 18.618C2.54226 20.1223 5.56179 21 8.80587 21C19.3721 21 25.1503 12.9218 25.1503 5.91594C25.1503 5.68609 25.1447 5.45753 25.1337 5.23C26.2559 4.48269 27.2298 3.54907 27.9999 2.48586H28Z" fill="white"/>
</svg>