<svg width="16" height="16" viewBox="0 0 16 16" fill="none" xmlns="http://www.w3.org/2000/svg">
<mask id="mask0_664_906" style="mask-type:alpha" maskUnits="userSpaceOnUse" x="0" y="0" width="16" height="16">
<rect width="16" height="16" fill="#D9D9D9"/>
</mask>
<g mask="url(#mask0_664_906)">
<path d="M9.26797 14.0332C9.07908 14.2221 8.84308 14.3165 8.55997 14.3165C8.27641 14.3165 8.04019 14.2221 7.8513 14.0332L1.98464 8.1665C1.88464 8.0665 1.80686 7.95539 1.7513 7.83317C1.69575 7.71095 1.66797 7.57761 1.66797 7.43317V2.6665C1.66797 2.38873 1.7653 2.15273 1.95997 1.9585C2.15419 1.76384 2.39019 1.6665 2.66797 1.6665H7.43464C7.56797 1.6665 7.69864 1.69428 7.82664 1.74984C7.95419 1.80539 8.06241 1.87762 8.1513 1.9665L14.018 7.83317C14.218 8.03317 14.318 8.27473 14.318 8.55784C14.318 8.84139 14.2235 9.07761 14.0346 9.2665L9.26797 14.0332ZM8.5513 13.3332L13.318 8.5665L7.43464 2.6665H2.66797V7.43317L8.5513 13.3332ZM4.33464 5.1665C4.56797 5.1665 4.7653 5.08584 4.92664 4.9245C5.08752 4.76362 5.16797 4.5665 5.16797 4.33317C5.16797 4.09984 5.08752 3.9025 4.92664 3.74117C4.7653 3.58028 4.56797 3.49984 4.33464 3.49984C4.1013 3.49984 3.90419 3.58028 3.7433 3.74117C3.58197 3.9025 3.5013 4.09984 3.5013 4.33317C3.5013 4.5665 3.58197 4.76362 3.7433 4.9245C3.90419 5.08584 4.1013 5.1665 4.33464 5.1665Z" fill="#848484"/>
</g>
</svg>
