 <svg
    width="14"
    height="14"
    viewBox="0 0 14 14"
    fill="none"
    xmlns="http://www.w3.org/2000/svg"
  >
    <path
      d="M8.26699 13.0334C8.0781 13.2223 7.8421 13.3167 7.55899 13.3167C7.27544 13.3167 7.03921 13.2223 6.85033 13.0334L0.983659 7.16675C0.883659 7.06675 0.805881 6.95564 0.750326 6.83342C0.69477 6.71119 0.666992 6.57786 0.666992 6.43341V1.66675C0.666992 1.38897 0.764325 1.15297 0.958992 0.958748C1.15321 0.764081 1.38921 0.666748 1.66699 0.666748H6.43366C6.56699 0.666748 6.69766 0.694526 6.82566 0.750081C6.95321 0.805637 7.06144 0.877859 7.15033 0.966748L13.017 6.83342C13.217 7.03341 13.317 7.27497 13.317 7.55808C13.317 7.84164 13.2225 8.07786 13.0337 8.26675L8.26699 13.0334ZM7.55033 12.3334L12.317 7.56675L6.43366 1.66675H1.66699V6.43341L7.55033 12.3334ZM3.33366 4.16675C3.56699 4.16675 3.76433 4.08608 3.92566 3.92475C4.08655 3.76386 4.16699 3.56675 4.16699 3.33341C4.16699 3.10008 4.08655 2.90275 3.92566 2.74141C3.76433 2.58053 3.56699 2.50008 3.33366 2.50008C3.10033 2.50008 2.90321 2.58053 2.74233 2.74141C2.58099 2.90275 2.50033 3.10008 2.50033 3.33341C2.50033 3.56675 2.58099 3.76386 2.74233 3.92475C2.90321 4.08608 3.10033 4.16675 3.33366 4.16675Z"
      fill="currentColor"
    />
  </svg>