<svg width="120" height="145" viewBox="0 0 120 145" fill="none" xmlns="http://www.w3.org/2000/svg">
<path d="M78.9992 9.96664C96.5573 10.0269 107.469 29.5064 98.6379 45.0308L88.955 62.0551L79.2721 79.0795C70.4425 94.6038 48.4937 94.5288 39.7651 78.9442L30.1928 61.8547L20.6217 44.7653C11.8931 29.1806 22.9306 9.77608 40.4899 9.83632L59.7452 9.90148L79.0004 9.96664H78.9992Z" fill="#284792"/>
<path d="M39.9116 11.6654C48.6907 -3.88846 70.6395 -3.88846 79.4186 11.6654L89.0462 28.7217L98.6738 45.778C107.453 61.3319 96.4791 80.7745 78.921 80.7745H40.4104C22.8523 80.7745 11.8773 61.3319 20.6576 45.778L30.2852 28.7229L39.9116 11.6654Z" fill="#EEA23D"/>
<path d="M64.8342 65.2493C64.684 68.034 62.4279 70.2458 59.667 70.2458C56.9061 70.2458 54.608 67.9922 54.4974 65.1706C56.2307 65.5025 58.0324 65.6771 59.8798 65.6771C61.5757 65.6771 63.2332 65.5296 64.8342 65.2493Z" fill="white"/>
<path d="M82.0798 50.9814C78.6122 56.8226 72.0255 61.1207 64.1587 62.3219C62.7019 62.5445 61.2007 62.66 59.667 62.66C58.1333 62.66 56.6345 62.5445 55.1777 62.3219C47.3097 61.1207 40.7194 56.8213 37.253 50.9752C36.4573 49.6339 36.6544 47.9139 37.7194 46.784C40.7026 43.6231 42.7856 39.5683 43.5488 35.0501C43.6053 34.7193 43.6546 34.3862 43.6955 34.0517C44.3734 30.2306 46.3289 26.8668 49.0934 24.4386C51.9336 21.9416 55.6284 20.4318 59.6682 20.4318C59.7355 20.4318 59.8016 20.4318 59.8677 20.4318C63.6551 20.4785 67.1287 21.8518 69.8668 24.1165C72.8043 26.5434 74.8957 29.9982 75.6217 33.9448C75.671 34.3579 75.7311 34.7673 75.802 35.1718C76.5821 39.6421 78.6554 43.6526 81.611 46.7852C82.6772 47.9163 82.8767 49.6376 82.0798 50.9802V50.9814Z" fill="white"/>
<path d="M0 144.537V107.274H6.76555V144.537H0ZM6.03676 135.754L5.67284 127.556L24.7721 107.274H32.3702L16.4972 124.522L12.7505 128.727L6.03676 135.754ZM25.3963 144.537L11.4485 127.556L15.9239 122.499L33.3064 144.537H25.3963Z" fill="#274593"/>
<path d="M48.6081 144.911C45.7627 144.911 43.2294 144.281 41.0101 143.021C38.7888 141.761 37.0371 140.031 35.7539 137.83C34.4698 135.63 33.8287 133.128 33.8287 130.324C33.8287 127.521 34.4708 124.974 35.7539 122.792C37.0371 120.609 38.7898 118.898 41.0101 117.654C43.2304 116.412 45.7627 115.791 48.6081 115.791C51.4535 115.791 54.0462 116.412 56.2844 117.654C58.5226 118.898 60.2734 120.601 61.5405 122.765C62.8067 124.93 63.4403 127.45 63.4403 130.323C63.4403 133.197 62.8067 135.63 61.5405 137.829C60.2734 140.03 58.5217 141.76 56.2844 143.02C54.0462 144.28 51.4874 144.91 48.6081 144.91V144.911ZM48.6081 139.215C50.2033 139.215 51.627 138.861 52.8752 138.15C54.1245 137.441 55.104 136.412 55.8158 135.062C56.5267 133.714 56.8831 132.135 56.8831 130.324C56.8831 128.514 56.5267 126.891 55.8158 125.56C55.104 124.23 54.1245 123.21 52.8752 122.499C51.626 121.79 50.2212 121.435 48.66 121.435C47.0987 121.435 45.6496 121.79 44.4183 122.499C43.186 123.21 42.2065 124.23 41.4777 125.56C40.7489 126.891 40.385 128.48 40.385 130.324C40.385 132.169 40.7489 133.714 41.4777 135.062C42.2065 136.412 43.186 137.441 44.4183 138.15C45.6496 138.861 47.0468 139.215 48.6081 139.215Z" fill="#EEA23D"/>
<path d="M82.1746 144.911C79.3293 144.911 76.7959 144.281 74.5766 143.021C72.3553 141.761 70.6036 140.031 69.3205 137.83C68.0364 135.63 67.3953 133.128 67.3953 130.324C67.3953 127.521 68.0373 124.974 69.3205 122.792C70.6036 120.609 72.3563 118.898 74.5766 117.654C76.7969 116.412 79.3293 115.791 82.1746 115.791C85.02 115.791 87.6127 116.412 89.8509 117.654C92.0891 118.898 93.8399 120.601 95.1071 122.765C96.3732 124.93 97.0068 127.45 97.0068 130.323C97.0068 133.197 96.3732 135.63 95.1071 137.829C93.8399 140.03 92.0882 141.76 89.8509 143.02C87.6127 144.28 85.054 144.91 82.1746 144.91V144.911ZM82.1746 139.215C83.7699 139.215 85.1935 138.861 86.4418 138.15C87.691 137.441 88.6705 136.412 89.3824 135.062C90.0932 133.714 90.4496 132.135 90.4496 130.324C90.4496 128.514 90.0932 126.891 89.3824 125.56C88.6705 124.23 87.691 123.21 86.4418 122.499C85.1925 121.79 83.7878 121.435 82.2265 121.435C80.6652 121.435 79.2161 121.79 77.9848 122.499C76.7526 123.21 75.773 124.23 75.0442 125.56C74.3154 126.891 73.9515 128.48 73.9515 130.324C73.9515 132.169 74.3154 133.714 75.0442 135.062C75.773 136.412 76.7526 137.441 77.9848 138.15C79.2161 138.861 80.6134 139.215 82.1746 139.215Z" fill="#EEA23D"/>
<path d="M103.252 144.537V116.111H109.445V123.936L108.716 121.647C109.549 119.731 110.858 118.276 112.646 117.282C114.433 116.289 116.661 115.791 119.333 115.791V122.126C119.055 122.056 118.795 122.012 118.553 121.993C118.309 121.976 118.066 121.966 117.824 121.966C115.36 121.966 113.4 122.703 111.943 124.176C110.485 125.648 109.757 127.84 109.757 130.75V144.537H103.252Z" fill="#EEA23D"/>
</svg>
