 <svg
    xmlns="http://www.w3.org/2000/svg"
    width="18"
    height="19"
    viewBox="0 0 18 19"
    fill="none"
  >
    <path
      d="M12.4997 17.3334V15.6667H15.833V7.33335H4.16634V10.6667H2.49967V4.00002C2.49967 3.54169 2.66273 3.14946 2.98884 2.82335C3.31551 2.49669 3.70801 2.33335 4.16634 2.33335H4.99967V0.666687H6.66634V2.33335H13.333V0.666687H14.9997V2.33335H15.833C16.2913 2.33335 16.6838 2.49669 17.0105 2.82335C17.3366 3.14946 17.4997 3.54169 17.4997 4.00002V15.6667C17.4997 16.125 17.3366 16.5175 17.0105 16.8442C16.6838 17.1703 16.2913 17.3334 15.833 17.3334H12.4997ZM6.66634 19L5.49967 17.8334L7.64551 15.6667H0.833008V14H7.64551L5.49967 11.8334L6.66634 10.6667L10.833 14.8334L6.66634 19ZM4.16634 5.66669H15.833V4.00002H4.16634V5.66669Z"
      fill="#121212"
    />
  </svg>