<svg width="28" height="26" viewBox="0 0 28 26" fill="none" xmlns="http://www.w3.org/2000/svg">
<path d="M2.62273 25.7362C2.09443 25.7362 1.63217 25.5381 1.23594 25.1418C0.839715 24.7456 0.641602 24.2834 0.641602 23.7551V7.60883C0.641602 7.08052 0.839715 6.61826 1.23594 6.22203C1.63217 5.82581 2.09443 5.62769 2.62273 5.62769H8.89632V2.62298C8.89632 2.09468 9.09443 1.63241 9.49066 1.23619C9.88688 0.839959 10.3491 0.641846 10.8775 0.641846H16.8208C17.3491 0.641846 17.8114 0.839959 18.2076 1.23619C18.6039 1.63241 18.802 2.09468 18.802 2.62298V5.62769H25.0756C25.6039 5.62769 26.0661 5.82581 26.4624 6.22203C26.8586 6.61826 27.0567 7.08052 27.0567 7.60883V23.7551C27.0567 24.2834 26.8586 24.7456 26.4624 25.1418C26.0661 25.5381 25.6039 25.7362 25.0756 25.7362H2.62273ZM10.8775 5.62769H16.8208V2.62298H10.8775V5.62769ZM25.0756 17.4484H16.8539V19.4296H10.9105V17.4484H2.62273V23.7551H25.0756V17.4484ZM12.8916 17.4484H14.8727V15.4673H12.8916V17.4484ZM2.62273 15.4673H10.9105V13.4862H16.8539V15.4673H25.0756V7.60883H2.62273V15.4673Z" fill="#848484"/>
</svg>
