<svg width="20" height="20" viewBox="0 0 20 20" fill="none" xmlns="http://www.w3.org/2000/svg">
<mask id="mask0_665_909" style="mask-type:alpha" maskUnits="userSpaceOnUse" x="0" y="0" width="20" height="20">
<rect width="20" height="20" fill="#D9D9D9"/>
</mask>
<g mask="url(#mask0_665_909)">
<path d="M6 8.85433L10 2.271L14 8.85433H6ZM14.5833 18.021C13.625 18.021 12.8125 17.6877 12.1458 17.021C11.4792 16.3543 11.1458 15.5418 11.1458 14.5835C11.1458 13.6252 11.4792 12.8127 12.1458 12.146C12.8125 11.4793 13.625 11.146 14.5833 11.146C15.5417 11.146 16.3542 11.4793 17.0208 12.146C17.6875 12.8127 18.0208 13.6252 18.0208 14.5835C18.0208 15.5418 17.6875 16.3543 17.0208 17.021C16.3542 17.6877 15.5417 18.021 14.5833 18.021ZM2.8125 17.6043V11.5627H8.85417V17.6043H2.8125ZM14.5833 16.771C15.1944 16.771 15.7119 16.5593 16.1358 16.136C16.5592 15.7121 16.7708 15.1946 16.7708 14.5835C16.7708 13.9724 16.5592 13.4549 16.1358 13.031C15.7119 12.6077 15.1944 12.396 14.5833 12.396C13.9722 12.396 13.455 12.6077 13.0317 13.031C12.6078 13.4549 12.3958 13.9724 12.3958 14.5835C12.3958 15.1946 12.6078 15.7121 13.0317 16.136C13.455 16.5593 13.9722 16.771 14.5833 16.771ZM4.0625 16.3543H7.60417V12.8127H4.0625V16.3543ZM8.20833 7.60433H11.7917L10 4.7085L8.20833 7.60433Z" fill="#848484"/>
</g>
</svg>
