<svg
    width="39"
    height="44"
    viewBox="0 0 39 44"
    fill="none"
    xmlns="http://www.w3.org/2000/svg"
  >
    <path
      d="M16.2343 33.0365L31.6457 17.625L29.2395 15.2188L16.2343 28.224L9.70304 21.6927L7.29679 24.099L16.2343 33.0365ZM4.14575 43.9792C2.99992 43.9792 2.02596 43.5781 1.22388 42.776C0.421794 41.974 0.020752 41 0.020752 39.8542V9.14583C0.020752 8 0.421794 7.02604 1.22388 6.22396C2.02596 5.42188 2.99992 5.02083 4.14575 5.02083H14.3437C14.4964 3.76042 15.0602 2.68104 16.0349 1.78271C17.0081 0.885903 18.1631 0.4375 19.4999 0.4375C20.8749 0.4375 22.0398 0.885903 22.9947 1.78271C23.9496 2.68104 24.5034 3.76042 24.6562 5.02083H34.8541C35.9999 5.02083 36.9739 5.42188 37.776 6.22396C38.578 7.02604 38.9791 8 38.9791 9.14583V39.8542C38.9791 41 38.578 41.974 37.776 42.776C36.9739 43.5781 35.9999 43.9792 34.8541 43.9792H4.14575ZM4.14575 40.5417H34.8541C35.0069 40.5417 35.1596 40.4653 35.3124 40.3125C35.4652 40.1597 35.5416 40.0069 35.5416 39.8542V9.14583C35.5416 8.99306 35.4652 8.84028 35.3124 8.6875C35.1596 8.53472 35.0069 8.45833 34.8541 8.45833H4.14575C3.99297 8.45833 3.8402 8.53472 3.68742 8.6875C3.53464 8.84028 3.45825 8.99306 3.45825 9.14583V39.8542C3.45825 40.0069 3.53464 40.1597 3.68742 40.3125C3.8402 40.4653 3.99297 40.5417 4.14575 40.5417ZM19.4999 6.96875C19.9964 6.96875 20.4074 6.80604 20.7328 6.48063C21.0567 6.15674 21.2187 5.74653 21.2187 5.25C21.2187 4.75347 21.0567 4.3425 20.7328 4.01708C20.4074 3.69319 19.9964 3.53125 19.4999 3.53125C19.0034 3.53125 18.5932 3.69319 18.2693 4.01708C17.9439 4.3425 17.7812 4.75347 17.7812 5.25C17.7812 5.74653 17.9439 6.15674 18.2693 6.48063C18.5932 6.80604 19.0034 6.96875 19.4999 6.96875Z"
      fill="currentColor"
    />
  </svg>