<svg width="46" height="46" viewBox="0 0 46 46" fill="none" xmlns="http://www.w3.org/2000/svg">
<path d="M16.7497 39.6667C12.0969 39.6667 8.15592 38.0521 4.92676 34.8229C1.69759 31.5938 0.0830078 27.6528 0.0830078 23C0.0830078 18.3472 1.69759 14.4062 4.92676 11.1771C8.15592 7.94792 12.0969 6.33333 16.7497 6.33333C21.4025 6.33333 25.3434 7.94792 28.5726 11.1771C31.8018 14.4062 33.4163 18.3472 33.4163 23C33.4163 27.6528 31.8018 31.5938 28.5726 34.8229C25.3434 38.0521 21.4025 39.6667 16.7497 39.6667ZM16.7497 35.5C20.2219 35.5 23.1733 34.2847 25.6038 31.8542C28.0344 29.4236 29.2497 26.4722 29.2497 23C29.2497 19.5278 28.0344 16.5764 25.6038 14.1458C23.1733 11.7153 20.2219 10.5 16.7497 10.5C13.2775 10.5 10.3261 11.7153 7.89551 14.1458C5.46495 16.5764 4.24967 19.5278 4.24967 23C4.24967 26.4722 5.46495 29.4236 7.89551 31.8542C10.3261 34.2847 13.2775 35.5 16.7497 35.5ZM37.583 16.75L34.9788 11.0208L29.2497 8.41667L34.9788 5.8125L37.583 0.0833321L40.1872 5.8125L45.9163 8.41667L40.1872 11.0208L37.583 16.75ZM37.583 45.9167L34.9788 40.1875L29.2497 37.5833L34.9788 34.9792L37.583 29.25L40.1872 34.9792L45.9163 37.5833L40.1872 40.1875L37.583 45.9167Z" fill="white"/>
</svg>
