 <svg
    width="17"
    height="19"
    viewBox="0 0 17 19"
    fill="none"
    xmlns="http://www.w3.org/2000/svg"
  >
    <path
      d="M3.025 18.5C2.60833 18.5 2.25417 18.3542 1.9625 18.0625C1.67083 17.7708 1.525 17.4167 1.525 17V2.75H0.5V1.25H5.2V0.5H11.8V1.25H16.5V2.75H15.475V17C15.475 17.4 15.325 17.75 15.025 18.05C14.725 18.35 14.375 18.5 13.975 18.5H3.025ZM13.975 2.75H3.025V17H13.975V2.75ZM5.675 14.85H7.175V4.875H5.675V14.85ZM9.825 14.85H11.325V4.875H9.825V14.85ZM3.025 2.75V17V2.75Z"
      fill="currentColor"
    />
  </svg>