<svg
    xmlns="http://www.w3.org/2000/svg"
    width="20"
    height="18"
    viewBox="0 0 20 18"
    fill="none"
  >
    <path
      d="M10 17.3252L8.9 16.3252C7.23333 14.8252 5.85833 13.5335 4.775 12.4502C3.69167 11.3669 2.83333 10.4042 2.2 9.56221C1.56667 8.72087 1.125 7.95421 0.875 7.26221C0.625 6.57087 0.5 5.86687 0.5 5.15021C0.5 3.73354 0.979333 2.54587 1.938 1.58721C2.896 0.629207 4.08333 0.150208 5.5 0.150208C6.36667 0.150208 7.19167 0.354208 7.975 0.762208C8.75833 1.17087 9.43333 1.75854 10 2.52521C10.5667 1.75854 11.2417 1.17087 12.025 0.762208C12.8083 0.354208 13.6333 0.150208 14.5 0.150208C15.9167 0.150208 17.104 0.629207 18.062 1.58721C19.0207 2.54587 19.5 3.73354 19.5 5.15021C19.5 5.86687 19.375 6.57087 19.125 7.26221C18.875 7.95421 18.4333 8.72087 17.8 9.56221C17.1667 10.4042 16.3083 11.3669 15.225 12.4502C14.1417 13.5335 12.7667 14.8252 11.1 16.3252L10 17.3252ZM10 15.3002C11.6 13.8669 12.9167 12.6335 13.95 11.6002C14.9833 10.5669 15.8 9.67087 16.4 8.91221C17 8.15421 17.4167 7.48354 17.65 6.90021C17.8833 6.31687 18 5.73354 18 5.15021C18 4.15021 17.6667 3.31687 17 2.65021C16.3333 1.98354 15.5 1.65021 14.5 1.65021C13.7167 1.65021 12.9873 1.87521 12.312 2.32521C11.6373 2.77521 11.1083 3.40021 10.725 4.20021H9.275C8.875 3.38354 8.34167 2.75421 7.675 2.31221C7.00833 1.87087 6.28333 1.65021 5.5 1.65021C4.5 1.65021 3.66667 1.98354 3 2.65021C2.33333 3.31687 2 4.15021 2 5.15021C2 5.73354 2.11667 6.31687 2.35 6.90021C2.58333 7.48354 3 8.15421 3.6 8.91221C4.2 9.67087 5.01667 10.5625 6.05 11.5872C7.08333 12.6125 8.4 13.8502 10 15.3002Z"
      fill="#848484"
    />
  </svg>