<svg width="22" height="27" viewBox="0 0 22 27" fill="none"
  xmlns="http://www.w3.org/2000/svg">
  <path d="M0.666687 22.1667V20.1667H3.33335V10.5C3.33335 8.67778 3.89469 7.072 5.01735 5.68267C6.13913 4.29422 7.5778 3.4 9.33335 3V2.06667C9.33335 1.6 9.49469 1.20533 9.81735 0.882668C10.1391 0.56089 10.5334 0.400002 11 0.400002C11.4667 0.400002 11.8609 0.56089 12.1827 0.882668C12.5054 1.20533 12.6667 1.6 12.6667 2.06667V3C14.4222 3.4 15.8614 4.29422 16.984 5.68267C18.1058 7.072 18.6667 8.67778 18.6667 10.5V20.1667H21.3334V22.1667H0.666687ZM11 26.0667C10.3334 26.0667 9.76669 25.8333 9.30002 25.3667C8.83335 24.9 8.60002 24.3333 8.60002 23.6667H13.4C13.4 24.3333 13.1667 24.9 12.7 25.3667C12.2334 25.8333 11.6667 26.0667 11 26.0667ZM5.33335 20.1667H16.6667V10.5C16.6667 8.92222 16.1165 7.58311 15.016 6.48267C13.9165 5.38311 12.5778 4.83333 11 4.83333C9.42224 4.83333 8.08358 5.38311 6.98402 6.48267C5.88358 7.58311 5.33335 8.92222 5.33335 10.5V20.1667Z" fill="currentColor" />
</svg>