 <svg
    width="53"
    height="52"
    viewBox="0 0 53 52"
    fill="none"
    xmlns="http://www.w3.org/2000/svg"
  >
    <path
      d="M9.67855 51.2174C8.73623 51.3728 7.85339 51.1555 7.03004 50.5654C6.20669 49.9753 5.71727 49.2091 5.56179 48.2667L0.897237 19.9972C0.741752 19.0549 0.959072 18.1721 1.5492 17.3487C2.13932 16.5254 2.90554 16.0359 3.84786 15.8805L17.8059 13.5773L16.4454 5.33207C16.29 4.38975 16.5073 3.50692 17.0974 2.68357C17.6875 1.86021 18.4537 1.3708 19.3961 1.21531L24.5199 0.36986C25.4622 0.214375 26.3451 0.431695 27.1684 1.02182C27.9918 1.61194 28.4812 2.37816 28.6367 3.32048L29.9972 11.5658L43.8963 9.27235C44.8386 9.11686 45.7215 9.33418 46.5448 9.92431C47.3682 10.5144 47.8576 11.2807 48.0131 12.223L52.6776 40.4925C52.8331 41.4348 52.6158 42.3176 52.0257 43.141C51.4356 43.9643 50.6693 44.4538 49.727 44.6092L9.67855 51.2174ZM9.09548 47.6837L49.144 41.0756L44.4794 12.806L30.5802 15.0994C30.7616 16.1988 30.541 17.1225 29.9183 17.8706C29.2955 18.6187 28.4345 19.0834 27.3351 19.2648L22.7413 20.0228C21.6812 20.1977 20.7362 20.031 19.9061 19.5226C19.0761 19.0143 18.5704 18.2104 18.389 17.111L4.43093 19.4142L9.09548 47.6837ZM13.474 40.4879L27.5499 38.1653L27.4138 37.3408C27.2972 36.6341 27.0168 36.035 26.5728 35.5436C26.1287 35.0522 25.6156 34.7537 25.0336 34.6481C23.7059 34.4236 22.6773 34.3009 21.9479 34.28C21.2185 34.2592 20.5201 34.3039 19.8526 34.414C19.1066 34.5371 18.3261 34.7567 17.5111 35.0726C16.6961 35.3886 15.7877 35.8107 14.7859 36.339C14.2293 36.6325 13.8197 37.0833 13.557 37.6913C13.2944 38.2992 13.2213 38.9566 13.3379 39.6634L13.474 40.4879ZM32.6116 33.2767L42.6237 31.6247L42.1378 28.68L32.1257 30.332L32.6116 33.2767ZM19.5222 32.4116C20.4252 32.2626 21.1292 31.8238 21.6341 31.0952C22.1391 30.3665 22.3203 29.5703 22.1777 28.7065C22.0287 27.8035 21.5997 27.0979 20.8907 26.5897C20.1817 26.0815 19.3757 25.902 18.4727 26.051C17.6089 26.1935 16.9131 26.6209 16.3853 27.3331C15.8575 28.0454 15.6681 28.853 15.8171 29.7561C15.9596 30.6198 16.3968 31.314 17.1287 31.8386C17.8606 32.3631 18.6584 32.5541 19.5222 32.4116ZM31.5134 26.6216L41.5256 24.9696L41.0397 22.0249L31.0276 23.6769L31.5134 26.6216ZM21.9227 16.528L27.0465 15.6825L25.103 3.90355L19.9791 4.749L21.9227 16.528Z"
      fill="currentColor"
    />
  </svg>