  <svg
    width="36"
    height="40"
    viewBox="0 0 36 40"
    fill="none"
    xmlns="http://www.w3.org/2000/svg"
  >
    <path
      d="M10.3589 38.5072L10.8624 31.6507L7.43416 31.3989C6.48186 31.329 5.6973 30.9359 5.08046 30.2196C4.46199 29.5047 4.18773 28.6712 4.25766 27.7189L4.67729 22.0051L2.62033 21.854C1.85849 21.7981 1.32152 21.4231 1.00943 20.7293C0.695691 20.0368 0.753063 19.3807 1.18154 18.7612L5.69732 12.0269C6.27062 8.39251 8.05691 5.44996 11.0562 3.19929C14.0554 0.950138 17.4405 -0.0359598 21.2116 0.240993C25.3255 0.543123 28.7237 2.24798 31.4061 5.35558C34.0884 8.46317 35.2799 12.0549 34.9806 16.1307C34.7568 19.1781 33.7082 21.8584 31.8349 24.1719C29.96 26.4852 27.6227 28.1901 24.8231 29.2866L24.0719 39.5143L10.3589 38.5072ZM14.0389 35.3307L20.8955 35.8343L21.5585 26.8065L23.27 26.1854C25.631 25.3248 27.5594 23.9728 29.0551 22.1295C30.5493 20.286 31.3803 18.2216 31.5481 15.9361C31.7803 12.7744 30.8644 9.99803 28.8004 7.60682C26.735 5.21397 24.1215 3.90145 20.9598 3.66926C17.9125 3.44546 15.2291 4.26326 12.9096 6.12268C10.5901 7.98209 9.22038 10.4666 8.80053 13.5761L5.38617 18.6104L8.35733 18.8286L7.68593 27.9706L14.5425 28.4742L14.0389 35.3307ZM17.8064 23.1416L21.2347 23.3934L21.6353 21.0675C22.1008 20.9868 22.5028 20.8632 22.8413 20.6965C23.1783 20.5298 23.4913 20.3039 23.7803 20.0187L25.8802 21.1495L27.8084 18.3614L26.0277 16.7945C26.1728 16.3838 26.2607 15.969 26.2915 15.55C26.3222 15.131 26.2959 14.7078 26.2124 14.2804L28.2028 12.9904L26.7027 9.95051L24.4601 10.7624C24.2159 10.4381 23.9392 10.1688 23.6302 9.95464C23.3196 9.74035 22.94 9.55928 22.4913 9.41143L22.4348 7.052L19.0065 6.80023L18.6059 9.12609C18.1404 9.2068 17.7392 9.33052 17.4022 9.49725C17.0636 9.66388 16.7499 9.88977 16.4608 10.1749L14.3609 9.04412L12.4328 11.8323L14.2134 13.3992C14.0684 13.8098 13.9805 14.2246 13.9497 14.6436C13.9189 15.0626 13.9453 15.4858 14.0288 15.9132L12.0384 17.2032L13.5385 20.2431L15.781 19.4312C16.0253 19.7556 16.3027 20.0249 16.6133 20.2392C16.9223 20.4533 17.3012 20.6344 17.7499 20.7822L17.8064 23.1416ZM19.8646 18.5822C18.8742 18.5095 18.0706 18.115 17.4538 17.3987C16.8353 16.6839 16.5625 15.8312 16.6352 14.8408C16.7079 13.8505 17.1025 13.0461 17.8189 12.4277C18.5336 11.8108 19.3862 11.5387 20.3766 11.6114C21.3669 11.6841 22.1714 12.0779 22.7898 12.7928C23.4067 13.5091 23.6787 14.3624 23.606 15.3528C23.5333 16.3432 23.1395 17.1468 22.4248 17.7638C21.7084 18.3821 20.855 18.655 19.8646 18.5822Z"
      fill="currentColor"
    />
  </svg>