 <svg
    width="51"
    height="50"
    viewBox="0 0 51 50"
    fill="none"
    xmlns="http://www.w3.org/2000/svg"
  >
    <mask
      id="mask0_72_11414"
      maskUnits="userSpaceOnUse"
      x="0"
      y="0"
      width="51"
      height="50"
    >
      <rect x="0.25" width="50" height="50" fill="#D9D9D9" />
    </mask>
    <g mask="url(#mask0_72_11414)">
      <path
        d="M2.33301 41.6667V35.8333C2.33301 34.6528 2.63717 33.5674 3.24551 32.5771C3.85245 31.5882 4.6594 30.8333 5.66634 30.3125C7.81912 29.2361 10.0066 28.4285 12.2288 27.8896C14.4511 27.3521 16.708 27.0833 18.9997 27.0833C21.2913 27.0833 23.5483 27.3521 25.7705 27.8896C27.9927 28.4285 30.1802 29.2361 32.333 30.3125C33.34 30.8333 34.1469 31.5882 34.7538 32.5771C35.3622 33.5674 35.6663 34.6528 35.6663 35.8333V41.6667H2.33301ZM39.833 41.6667V35.4167C39.833 33.8889 39.408 32.4215 38.558 31.0146C37.7066 29.609 36.4997 28.4028 34.9372 27.3958C36.708 27.6042 38.3747 27.9597 39.9372 28.4625C41.4997 28.9667 42.958 29.5833 44.3122 30.3125C45.5622 31.0069 46.517 31.7792 47.1768 32.6292C47.8365 33.4806 48.1663 34.4097 48.1663 35.4167V41.6667H39.833ZM18.9997 25C16.708 25 14.7462 24.184 13.1143 22.5521C11.4823 20.9201 10.6663 18.9583 10.6663 16.6667C10.6663 14.375 11.4823 12.4132 13.1143 10.7812C14.7462 9.1493 16.708 8.33333 18.9997 8.33333C21.2913 8.33333 23.2531 9.1493 24.8851 10.7812C26.517 12.4132 27.333 14.375 27.333 16.6667C27.333 18.9583 26.517 20.9201 24.8851 22.5521C23.2531 24.184 21.2913 25 18.9997 25ZM39.833 16.6667C39.833 18.9583 39.017 20.9201 37.3851 22.5521C35.7532 24.184 33.7913 25 31.4997 25C31.1177 25 30.6316 24.9569 30.0413 24.8708C29.4511 24.7833 28.965 24.6875 28.583 24.5833C29.5205 23.4722 30.2406 22.2396 30.7434 20.8854C31.2476 19.5312 31.4997 18.125 31.4997 16.6667C31.4997 15.2083 31.2476 13.8021 30.7434 12.4479C30.2406 11.0937 29.5205 9.86111 28.583 8.75C29.0691 8.57639 29.5552 8.46319 30.0413 8.41042C30.5275 8.35903 31.0136 8.33333 31.4997 8.33333C33.7913 8.33333 35.7532 9.1493 37.3851 10.7812C39.017 12.4132 39.833 14.375 39.833 16.6667ZM6.49967 37.5H31.4997V35.8333C31.4997 35.4514 31.4045 35.1042 31.2143 34.7917C31.0226 34.4792 30.7705 34.2361 30.458 34.0625C28.583 33.125 26.6906 32.4215 24.7809 31.9521C22.8712 31.484 20.9441 31.25 18.9997 31.25C17.0552 31.25 15.1281 31.484 13.2184 31.9521C11.3087 32.4215 9.41634 33.125 7.54134 34.0625C7.22884 34.2361 6.97745 34.4792 6.78717 34.7917C6.59551 35.1042 6.49967 35.4514 6.49967 35.8333V37.5ZM18.9997 20.8333C20.1455 20.8333 21.1268 20.425 21.9434 19.6083C22.7587 18.7931 23.1663 17.8125 23.1663 16.6667C23.1663 15.5208 22.7587 14.5403 21.9434 13.725C21.1268 12.9083 20.1455 12.5 18.9997 12.5C17.8538 12.5 16.8733 12.9083 16.058 13.725C15.2413 14.5403 14.833 15.5208 14.833 16.6667C14.833 17.8125 15.2413 18.7931 16.058 19.6083C16.8733 20.425 17.8538 20.8333 18.9997 20.8333Z"
        fill="currentColor"
      />
    </g>
  </svg>