 <svg
    width="17"
    height="18"
    viewBox="0 0 17 18"
    fill="none"
    xmlns="http://www.w3.org/2000/svg"
  >
    <path
      d="M7.93734 13.1666H9.18734V9.70829H12.6665V8.45829H9.18734V4.83329H7.93734V8.45829H4.33317V9.70829H7.93734V13.1666ZM8.49984 17.3333C7.36095 17.3333 6.28456 17.1145 5.27067 16.677C4.25678 16.2395 3.37137 15.6423 2.61442 14.8854C1.85748 14.1284 1.26025 13.243 0.822754 12.2291C0.385254 11.2152 0.166504 10.1319 0.166504 8.97913C0.166504 7.84024 0.385254 6.76385 0.822754 5.74996C1.26025 4.73607 1.85748 3.85413 2.61442 3.10413C3.37137 2.35413 4.25678 1.76038 5.27067 1.32288C6.28456 0.885376 7.36789 0.666626 8.52067 0.666626C9.65956 0.666626 10.7359 0.885376 11.7498 1.32288C12.7637 1.76038 13.6457 2.35413 14.3957 3.10413C15.1457 3.85413 15.7394 4.73607 16.1769 5.74996C16.6144 6.76385 16.8332 7.84718 16.8332 8.99996C16.8332 10.1388 16.6144 11.2152 16.1769 12.2291C15.7394 13.243 15.1457 14.1284 14.3957 14.8854C13.6457 15.6423 12.7637 16.2395 11.7498 16.677C10.7359 17.1145 9.65261 17.3333 8.49984 17.3333ZM8.52067 16.0833C10.479 16.0833 12.1457 15.3923 13.5207 14.0104C14.8957 12.6284 15.5832 10.9513 15.5832 8.97913C15.5832 7.02079 14.8957 5.35413 13.5207 3.97913C12.1457 2.60413 10.4721 1.91663 8.49984 1.91663C6.5415 1.91663 4.87137 2.60413 3.48942 3.97913C2.10748 5.35413 1.4165 7.02774 1.4165 8.99996C1.4165 10.9583 2.10748 12.6284 3.48942 14.0104C4.87137 15.3923 6.54845 16.0833 8.52067 16.0833Z"
      fill="currentColor"
    />
  </svg>